<svg id="Modules" xmlns="http://www.w3.org/2000/svg" xmlns:xlink="http://www.w3.org/1999/xlink" viewBox="0 0 500 500"><defs><style>.cls-1{fill:url(#linear-gradient);}.cls-2{fill:url(#linear-gradient-2);}.cls-3{fill:#fff;}</style><linearGradient id="linear-gradient" x1="74.19" y1="167.41" x2="335.52" y2="167.41" gradientUnits="userSpaceOnUse"><stop offset="0" stop-color="#27a8e0"/><stop offset="0.18" stop-color="#26a4dd"/><stop offset="0.37" stop-color="#2197d5"/><stop offset="0.57" stop-color="#1a83c8"/><stop offset="0.76" stop-color="#1066b5"/><stop offset="0.96" stop-color="#03419d"/><stop offset="1" stop-color="#003797"/><stop offset="1" stop-color="#1a4687"/></linearGradient><linearGradient id="linear-gradient-2" x1="4.44" y1="250" x2="495.56" y2="250" gradientUnits="userSpaceOnUse"><stop offset="0" stop-color="#fdc831"/><stop offset="0.07" stop-color="#fbb832"/><stop offset="0.23" stop-color="#f79933"/><stop offset="0.4" stop-color="#f58134"/><stop offset="0.58" stop-color="#f36f34"/><stop offset="0.77" stop-color="#f16535"/><stop offset="1" stop-color="#f16235"/></linearGradient></defs><title>Workplace</title><path class="cls-1" d="M335.52,65.64h-203A58.32,58.32,0,0,0,74.19,124V269.18C151.78,234.81,274.25,167.59,335.52,65.64Z"/><path class="cls-2" d="M437.25,65.64H405.48a415.94,415.94,0,0,0,9-52.64S402.3,34.47,378.6,65.64C367.66,80,354.28,96.45,338.51,113.79,291.22,165.86,222.43,226.11,134,263.27a457.55,457.55,0,0,1-59.8,20.47A436.63,436.63,0,0,1,4.44,296.41,438.58,438.58,0,0,0,74.19,298V428.69A58.31,58.31,0,0,0,132.5,487H437.25a58.31,58.31,0,0,0,58.31-58.31V124A58.32,58.32,0,0,0,437.25,65.64ZM207.09,432.32H138.87V314.18h68.22Zm110.29,0H249.16V267.18h68.22Zm110.29,0H359.44V220.17h68.23Z"/><rect class="cls-3" x="138.87" y="314.18" width="68.22" height="118.14"/><rect class="cls-3" x="249.16" y="267.18" width="68.22" height="165.14"/><rect class="cls-3" x="359.44" y="220.17" width="68.22" height="212.14"/></svg>