<svg id="Modules" xmlns="http://www.w3.org/2000/svg" viewBox="0 0 500 500"><defs><style>.cls-1{fill:#0a1437;}</style></defs><title>Architektur</title><path class="cls-1" d="M355.6,272.88a4,4,0,0,0-3.31-3.91l-31.12-5.32a4,4,0,0,0-4.63,3.91v57.66a4,4,0,0,0,4.46,3.93l31.13-3.93a4,4,0,0,0,3.47-3.94Z"/><path class="cls-1" d="M367.56,323.27l27.33-3.45v-89l-73-27.29a4,4,0,0,0-5.35,3.72V251.9a4,4,0,0,0,3.3,3.92L360,262.67a3.76,3.76,0,0,1,3.12,3.7v53A4,4,0,0,0,367.56,323.27Z"/><path class="cls-1" d="M249.36,251.38a4,4,0,0,0-4.64,3.91v79a4,4,0,0,0,4.46,3.94l56.38-7.12a4,4,0,0,0,3.47-3.94V264.93a4,4,0,0,0-3.3-3.91Z"/><path class="cls-1" d="M133.84,248.73a3.59,3.59,0,0,1,.1.93v29a4,4,0,0,0,4.16,4l48-2.25a4,4,0,0,0,3.77-4v-54.5a4,4,0,0,0-5.07-3.81l-46.25,13.4a3.7,3.7,0,0,1-1.55.14,3.77,3.77,0,0,1-3.26-3.74V172.56a4,4,0,0,1,2.35-3.63l56-24.81a3.78,3.78,0,0,1,4.92,1.81,3.48,3.48,0,0,1,.36,1.63v53.8a4,4,0,0,0,5.07,3.81l31.93-9.25a4,4,0,0,0,2.86-3.82V126.58a3.61,3.61,0,0,1,.35-1.62,3.78,3.78,0,0,1,4.93-1.82l152.4,67.5V101.9H108.52V249l21.13-3A3.8,3.8,0,0,1,133.84,248.73Z"/><path class="cls-1" d="M351.13,332.91,320,336.84a4,4,0,0,0-3.47,3.94v13.57a4,4,0,0,0,4.68,3.91l31.12-5.69a4,4,0,0,0,3.26-3.9V336.85A4,4,0,0,0,351.13,332.91Z"/><path class="cls-1" d="M184.26,155.78l-40.7,18a3.94,3.94,0,0,0-2.36,3.62v40.19a4,4,0,0,0,5.07,3.81l40.7-11.8a4,4,0,0,0,2.86-3.8V159.42A4,4,0,0,0,184.26,155.78Z"/><path class="cls-1" d="M87.66,300.11l20.86-1v23.49L122,324.32a4,4,0,0,0,4.47-3.94V294.86a4,4,0,0,0-4.16-4l-13.76.64v.07l-13.12.62a4,4,0,0,1-4.16-4V270.11a4,4,0,0,1,3.41-3.93l13.87-2V284l14.14-.67a4,4,0,0,0,3.78-4V258.61a4,4,0,0,0-4.54-3.93l-13.38,1.92h0l-21.39,3.08a4,4,0,0,0-3.39,3.93v32.75a3.74,3.74,0,0,0,3.92,3.75Z"/><path class="cls-1" d="M491.39,267.12,475.1,261a4,4,0,0,1-2.58-3.71V235.66a3.74,3.74,0,0,0-2.24-3.43l-75.39-33.38v8.2l67.76,30a4,4,0,0,1,2.36,3.63v10.84a4,4,0,0,1-5.36,3.72L394.89,231v8l67.54,25.25A4,4,0,0,1,465,268v47a4,4,0,0,1-3.47,3.94l-66.65,8.42L366.57,331a4,4,0,0,0-3.47,3.94v20a4,4,0,0,1-3.26,3.91l-46.38,8.47a3.91,3.91,0,0,1-.68.06,3.78,3.78,0,0,1-3.62-2.73,2.9,2.9,0,0,1-.13-1V342.73a4,4,0,0,0-4.46-3.94l-63.14,8a3.8,3.8,0,0,1-4-2.36,3.63,3.63,0,0,1-.25-1.38V246.1a3.24,3.24,0,0,1,.13-1,3.77,3.77,0,0,1,4.25-2.68l62.81,10.72a4,4,0,0,0,4.63-3.91V196.15a3.58,3.58,0,0,1,.35-1.63,3.78,3.78,0,0,1,4.72-1.9l80.79,30.21v-24l-144.59-64a4,4,0,0,0-5.58,3.64v59.31a4,4,0,0,1-2.87,3.8L200.2,213.62a4,4,0,0,0-2.85,3.82v66.13a4,4,0,0,1-3.79,4l-55.83,2.64a4,4,0,0,0-3.79,4v35a3.52,3.52,0,0,1-.32,1.58,3.78,3.78,0,0,1-3.9,2.16l-21.2-2.71v0l-46-5.88A4,4,0,0,1,59,320.36v-78a3.65,3.65,0,0,0-.34-1.6,3.79,3.79,0,0,0-4.67-2l-42.1,14.89a3.73,3.73,0,0,0-2.5,3.53v64.39a4,4,0,0,0,3.47,3.94l16.82,2.12a3.74,3.74,0,0,0,4.21-3.58,3.87,3.87,0,0,0-3.47-3.89L20.39,319a4,4,0,0,1-3.47-4V262.72A4,4,0,0,1,19.56,259l26.67-9.42a4,4,0,0,1,5.29,3.74V327A4,4,0,0,0,55,330.91l53.53,6.82v50.55H394.89V334.93l74.35-9.38a3.76,3.76,0,0,0,3.28-3.72v-48a4,4,0,0,1,5.36-3.72l11.06,4.14a3.75,3.75,0,0,0,4.93-2.52A3.87,3.87,0,0,0,491.39,267.12Z"/></svg>