<svg xmlns="http://www.w3.org/2000/svg" xmlns:xlink="http://www.w3.org/1999/xlink" viewBox="0 0 500 500"><defs><style>.cls-1{mask:url(#mask);filter:url(#luminosity-noclip-13);}.cls-10,.cls-12,.cls-14,.cls-16,.cls-18,.cls-2,.cls-20,.cls-22,.cls-24,.cls-4,.cls-6,.cls-8{mix-blend-mode:multiply;}.cls-2{fill:url(#linear-gradient);}.cls-3{mask:url(#mask-2);filter:url(#luminosity-noclip-18);}.cls-4{fill:url(#linear-gradient-2);}.cls-5{mask:url(#mask-3);filter:url(#luminosity-noclip-19);}.cls-6{fill:url(#linear-gradient-3);}.cls-7{mask:url(#mask-4);filter:url(#luminosity-noclip-20);}.cls-8{fill:url(#linear-gradient-4);}.cls-9{mask:url(#mask-5);filter:url(#luminosity-noclip-21);}.cls-10{fill:url(#linear-gradient-5);}.cls-11{mask:url(#mask-6);filter:url(#luminosity-noclip-22);}.cls-12{fill:url(#linear-gradient-6);}.cls-13{mask:url(#mask-7);filter:url(#luminosity-noclip-14);}.cls-14{fill:url(#linear-gradient-7);}.cls-15{mask:url(#mask-8);filter:url(#luminosity-noclip-23);}.cls-16{fill:url(#linear-gradient-8);}.cls-17{mask:url(#mask-9);filter:url(#luminosity-noclip-24);}.cls-18{fill:url(#linear-gradient-9);}.cls-19{mask:url(#mask-10);filter:url(#luminosity-noclip-15);}.cls-20{fill:url(#linear-gradient-10);}.cls-21{mask:url(#mask-11);filter:url(#luminosity-noclip-16);}.cls-22{fill:url(#linear-gradient-11);}.cls-23{mask:url(#mask-12);filter:url(#luminosity-noclip-17);}.cls-24{fill:url(#linear-gradient-12);}.cls-25{isolation:isolate;}.cls-26{fill:url(#linear-gradient-13);}.cls-27{fill:url(#linear-gradient-14);}.cls-28{fill:#29377f;}.cls-29{fill:url(#linear-gradient-15);}.cls-30{fill:url(#radial-gradient);}.cls-31{fill:url(#radial-gradient-2);}.cls-32{fill:url(#linear-gradient-16);}.cls-33{mask:url(#mask-13);}.cls-34,.cls-38,.cls-42,.cls-46,.cls-48,.cls-50,.cls-54,.cls-56{opacity:0.6;mix-blend-mode:hard-light;}.cls-34{fill:url(#linear-gradient-17);}.cls-35{mask:url(#mask-14);}.cls-36,.cls-40,.cls-44,.cls-52{mix-blend-mode:overlay;}.cls-36{fill:url(#linear-gradient-18);}.cls-37{mask:url(#mask-15);}.cls-38{fill:url(#linear-gradient-19);}.cls-39{mask:url(#mask-16);}.cls-40{fill:url(#linear-gradient-20);}.cls-41{mask:url(#mask-17);}.cls-42{fill:url(#linear-gradient-21);}.cls-43{mask:url(#mask-18);}.cls-44{fill:url(#linear-gradient-22);}.cls-45{mask:url(#mask-19);}.cls-46{fill:url(#linear-gradient-23);}.cls-47{mask:url(#mask-20);}.cls-48{fill:url(#linear-gradient-24);}.cls-49{mask:url(#mask-21);}.cls-50{fill:url(#linear-gradient-25);}.cls-51{mask:url(#mask-22);}.cls-52{fill:url(#linear-gradient-26);}.cls-53{mask:url(#mask-23);}.cls-54{fill:url(#linear-gradient-27);}.cls-55{mask:url(#mask-24);}.cls-56{fill:url(#linear-gradient-28);}.cls-57{filter:url(#luminosity-noclip-12);}.cls-58{filter:url(#luminosity-noclip-11);}.cls-59{filter:url(#luminosity-noclip-10);}.cls-60{filter:url(#luminosity-noclip-9);}.cls-61{filter:url(#luminosity-noclip-8);}.cls-62{filter:url(#luminosity-noclip-7);}.cls-63{filter:url(#luminosity-noclip-6);}.cls-64{filter:url(#luminosity-noclip-5);}.cls-65{filter:url(#luminosity-noclip-4);}.cls-66{filter:url(#luminosity-noclip-3);}.cls-67{filter:url(#luminosity-noclip-2);}.cls-68{filter:url(#luminosity-noclip);}</style><filter id="luminosity-noclip" x="14.1" y="-8441" width="45.13" height="32766" filterUnits="userSpaceOnUse" color-interpolation-filters="sRGB"><feFlood flood-color="#fff" result="bg"/><feBlend in="SourceGraphic" in2="bg"/></filter><mask id="mask" x="14.1" y="-8441" width="45.13" height="32766" maskUnits="userSpaceOnUse"><g class="cls-68"/></mask><linearGradient id="linear-gradient" x1="28.52" y1="340.58" x2="41.18" y2="258.7" gradientUnits="userSpaceOnUse"><stop offset="0" stop-color="#fff"/><stop offset="0.08" stop-color="#f6f6f6"/><stop offset="0.23" stop-color="#ddd"/><stop offset="0.4" stop-color="#b4b4b4"/><stop offset="0.61" stop-color="#7b7b7b"/><stop offset="0.85" stop-color="#333"/><stop offset="1"/></linearGradient><filter id="luminosity-noclip-2" x="81.83" y="-8441" width="307.56" height="32766" filterUnits="userSpaceOnUse" color-interpolation-filters="sRGB"><feFlood flood-color="#fff" result="bg"/><feBlend in="SourceGraphic" in2="bg"/></filter><mask id="mask-2" x="81.83" y="-8441" width="307.56" height="32766" maskUnits="userSpaceOnUse"><g class="cls-67"/></mask><linearGradient id="linear-gradient-2" x1="414.57" y1="660.9" x2="146.6" y2="2.13" xlink:href="#linear-gradient"/><filter id="luminosity-noclip-3" x="120.88" y="-8441" width="268.51" height="32766" filterUnits="userSpaceOnUse" color-interpolation-filters="sRGB"><feFlood flood-color="#fff" result="bg"/><feBlend in="SourceGraphic" in2="bg"/></filter><mask id="mask-3" x="120.88" y="-8441" width="268.51" height="32766" maskUnits="userSpaceOnUse"><g class="cls-66"/></mask><linearGradient id="linear-gradient-3" x1="367.17" y1="378.1" x2="214.93" y2="146.74" xlink:href="#linear-gradient"/><filter id="luminosity-noclip-4" x="81.83" y="-8441" width="139.31" height="32766" filterUnits="userSpaceOnUse" color-interpolation-filters="sRGB"><feFlood flood-color="#fff" result="bg"/><feBlend in="SourceGraphic" in2="bg"/></filter><mask id="mask-4" x="81.83" y="-8441" width="139.31" height="32766" maskUnits="userSpaceOnUse"><g class="cls-65"/></mask><linearGradient id="linear-gradient-4" x1="-105.04" y1="189.21" x2="279.08" y2="489.96" xlink:href="#linear-gradient"/><filter id="luminosity-noclip-5" x="232.15" y="-8441" width="167.6" height="32766" filterUnits="userSpaceOnUse" color-interpolation-filters="sRGB"><feFlood flood-color="#fff" result="bg"/><feBlend in="SourceGraphic" in2="bg"/></filter><mask id="mask-5" x="232.15" y="-8441" width="167.6" height="32766" maskUnits="userSpaceOnUse"><g class="cls-64"/></mask><linearGradient id="linear-gradient-5" x1="333.2" y1="174.57" x2="309.38" y2="422.71" xlink:href="#linear-gradient"/><filter id="luminosity-noclip-6" x="81.83" y="-8441" width="212.94" height="32766" filterUnits="userSpaceOnUse" color-interpolation-filters="sRGB"><feFlood flood-color="#fff" result="bg"/><feBlend in="SourceGraphic" in2="bg"/></filter><mask id="mask-6" x="81.83" y="-8441" width="212.94" height="32766" maskUnits="userSpaceOnUse"><g class="cls-63"/></mask><linearGradient id="linear-gradient-6" x1="110.09" y1="-280.82" x2="202.4" y2="249.2" gradientUnits="userSpaceOnUse"><stop offset="0" stop-color="#fff"/><stop offset="1"/></linearGradient><filter id="luminosity-noclip-7" x="14.09" y="-8441" width="45.14" height="32766" filterUnits="userSpaceOnUse" color-interpolation-filters="sRGB"><feFlood flood-color="#fff" result="bg"/><feBlend in="SourceGraphic" in2="bg"/></filter><mask id="mask-7" x="14.09" y="-8441" width="45.14" height="32766" maskUnits="userSpaceOnUse"><g class="cls-62"/></mask><linearGradient id="linear-gradient-7" x1="-79.43" y1="383.7" x2="84.34" y2="227.37" xlink:href="#linear-gradient"/><filter id="luminosity-noclip-8" x="271.92" y="-8441" width="127.83" height="32766" filterUnits="userSpaceOnUse" color-interpolation-filters="sRGB"><feFlood flood-color="#fff" result="bg"/><feBlend in="SourceGraphic" in2="bg"/></filter><mask id="mask-8" x="271.92" y="-8441" width="127.83" height="32766" maskUnits="userSpaceOnUse"><g class="cls-61"/></mask><linearGradient id="linear-gradient-8" x1="465.49" y1="253.26" x2="278.9" y2="365.42" xlink:href="#linear-gradient"/><filter id="luminosity-noclip-9" x="81.83" y="-8441" width="100.51" height="32766" filterUnits="userSpaceOnUse" color-interpolation-filters="sRGB"><feFlood flood-color="#fff" result="bg"/><feBlend in="SourceGraphic" in2="bg"/></filter><mask id="mask-9" x="81.83" y="-8441" width="100.51" height="32766" maskUnits="userSpaceOnUse"><g class="cls-60"/></mask><linearGradient id="linear-gradient-9" x1="73.02" y1="278.51" x2="170.17" y2="393.9" xlink:href="#linear-gradient"/><filter id="luminosity-noclip-10" x="69.13" y="-8441" width="12.7" height="32766" filterUnits="userSpaceOnUse" color-interpolation-filters="sRGB"><feFlood flood-color="#fff" result="bg"/><feBlend in="SourceGraphic" in2="bg"/></filter><mask id="mask-10" x="69.13" y="-8441" width="12.7" height="32766" maskUnits="userSpaceOnUse"><g class="cls-59"/></mask><linearGradient id="linear-gradient-10" x1="184.68" y1="142.21" x2="-1.92" y2="220.62" xlink:href="#linear-gradient"/><filter id="luminosity-noclip-11" x="303.56" y="-8441" width="41.04" height="32766" filterUnits="userSpaceOnUse" color-interpolation-filters="sRGB"><feFlood flood-color="#fff" result="bg"/><feBlend in="SourceGraphic" in2="bg"/></filter><mask id="mask-11" x="303.56" y="-8441" width="41.04" height="32766" maskUnits="userSpaceOnUse"><g class="cls-58"/></mask><linearGradient id="linear-gradient-11" x1="431.91" y1="369.29" x2="255.12" y2="443.58" xlink:href="#linear-gradient"/><filter id="luminosity-noclip-12" x="348.37" y="-8441" width="35.94" height="32766" filterUnits="userSpaceOnUse" color-interpolation-filters="sRGB"><feFlood flood-color="#fff" result="bg"/><feBlend in="SourceGraphic" in2="bg"/></filter><mask id="mask-12" x="348.37" y="-8441" width="35.94" height="32766" maskUnits="userSpaceOnUse"><g class="cls-57"/></mask><linearGradient id="linear-gradient-12" x1="418.07" y1="482.46" x2="346.61" y2="420.67" xlink:href="#linear-gradient"/><linearGradient id="linear-gradient-13" x1="67.35" y1="21.04" x2="267.84" y2="259.25" gradientUnits="userSpaceOnUse"><stop offset="0" stop-color="#fbb823"/><stop offset="0.6" stop-color="#f17b21"/><stop offset="0.68" stop-color="#f07122"/><stop offset="0.85" stop-color="#ef6323"/><stop offset="1" stop-color="#ef5e24"/></linearGradient><linearGradient id="linear-gradient-14" x1="44.86" y1="607.42" x2="308.38" y2="257.71" gradientUnits="userSpaceOnUse"><stop offset="0" stop-color="#3bc5f3"/><stop offset="1" stop-color="#3751a2"/></linearGradient><linearGradient id="linear-gradient-15" x1="370.59" y1="450.43" x2="325.93" y2="384.92" gradientUnits="userSpaceOnUse"><stop offset="0" stop-color="#0b89c3"/><stop offset="1" stop-color="#35499a"/></linearGradient><radialGradient id="radial-gradient" cx="122.73" cy="221.47" r="402.69" gradientUnits="userSpaceOnUse"><stop offset="0" stop-color="#fff"/><stop offset="0.17" stop-color="#fcfcfd"/><stop offset="0.3" stop-color="#f2f4f7"/><stop offset="0.42" stop-color="#e2e5ec"/><stop offset="0.53" stop-color="#cbd0de"/><stop offset="0.64" stop-color="#adb6cb"/><stop offset="0.72" stop-color="#8e9ab7"/><stop offset="0.74" stop-color="#96a1bc"/><stop offset="0.86" stop-color="#bec3d4"/><stop offset="0.95" stop-color="#d7d9e3"/><stop offset="1" stop-color="#e0e1e8"/></radialGradient><radialGradient id="radial-gradient-2" cx="160.45" cy="262.66" r="371.42" gradientUnits="userSpaceOnUse"><stop offset="0" stop-color="#fff"/><stop offset="0.49" stop-color="#afb7cc"/><stop offset="0.72" stop-color="#8e9ab7"/><stop offset="0.74" stop-color="#96a1bc"/><stop offset="0.86" stop-color="#bec3d4"/><stop offset="0.95" stop-color="#d7d9e3"/><stop offset="1" stop-color="#e0e1e8"/></radialGradient><linearGradient id="linear-gradient-16" x1="77.49" y1="164.68" x2="32.83" y2="294.95" gradientUnits="userSpaceOnUse"><stop offset="0" stop-color="#f59220"/><stop offset="1" stop-color="#ee4035"/></linearGradient><filter id="luminosity-noclip-13" x="14.1" y="275.7" width="45.13" height="28.94" filterUnits="userSpaceOnUse" color-interpolation-filters="sRGB"><feFlood flood-color="#fff" result="bg"/><feBlend in="SourceGraphic" in2="bg"/></filter><mask id="mask-13" x="14.1" y="275.7" width="45.13" height="28.94" maskUnits="userSpaceOnUse"><g class="cls-1"><path class="cls-2" d="M14.45,275.7c-2.49,23.42,8.28,36.75,40.34,24q2.24-.88,4.44-1.83a17.36,17.36,0,0,1-10.57-4.75C28,300.32,17.76,290.16,14.45,275.7Z"/></g></mask><linearGradient id="linear-gradient-17" x1="28.52" y1="340.58" x2="41.18" y2="258.7" gradientUnits="userSpaceOnUse"><stop offset="0" stop-color="#221f1f"/><stop offset="1" stop-color="#221f1f"/></linearGradient><filter id="luminosity-noclip-14" x="14.09" y="235.86" width="45.14" height="68.78" filterUnits="userSpaceOnUse" color-interpolation-filters="sRGB"><feFlood flood-color="#fff" result="bg"/><feBlend in="SourceGraphic" in2="bg"/></filter><mask id="mask-14" x="14.09" y="235.86" width="45.14" height="68.78" maskUnits="userSpaceOnUse"><g class="cls-13"><path class="cls-14" d="M46.57,257.26c-8.91-3.64-16.25-11.54-19.86-21.4-5.9,12.84-10,25.25-11.74,35.91a2.25,2.25,0,0,0-.06.36c-.12.76-.23,1.53-.33,2.32-3,24.2,7.58,38.22,40.21,25.25q2.24-.88,4.44-1.83C42.21,295.87,39.92,278.29,46.57,257.26Z"/></g></mask><linearGradient id="linear-gradient-18" x1="-79.43" y1="383.7" x2="84.34" y2="227.37" xlink:href="#linear-gradient-17"/><filter id="luminosity-noclip-15" x="69.13" y="160.74" width="12.7" height="54.72" filterUnits="userSpaceOnUse" color-interpolation-filters="sRGB"><feFlood flood-color="#fff" result="bg"/><feBlend in="SourceGraphic" in2="bg"/></filter><mask id="mask-15" x="69.13" y="160.74" width="12.7" height="54.72" maskUnits="userSpaceOnUse"><g class="cls-19"><path class="cls-20" d="M81.83,160.74a161.05,161.05,0,0,0-12.7,12v42.71a133.79,133.79,0,0,1,12.7-14.27Z"/></g></mask><linearGradient id="linear-gradient-19" x1="184.68" y1="142.21" x2="-1.92" y2="220.62" xlink:href="#linear-gradient-17"/><filter id="luminosity-noclip-16" x="303.56" y="377.32" width="41.04" height="68.29" filterUnits="userSpaceOnUse" color-interpolation-filters="sRGB"><feFlood flood-color="#fff" result="bg"/><feBlend in="SourceGraphic" in2="bg"/></filter><mask id="mask-16" x="303.56" y="377.32" width="41.04" height="68.29" maskUnits="userSpaceOnUse"><g class="cls-21"><path class="cls-22" d="M344.6,412.24a137.2,137.2,0,0,1-14.14-34.92q-13.44,7.74-26.9,15.53c3.62,10.83,14.81,37,29.11,52.75C325.46,423.46,337.79,415.48,344.6,412.24Z"/></g></mask><linearGradient id="linear-gradient-20" x1="431.91" y1="369.29" x2="255.12" y2="443.58" xlink:href="#linear-gradient-17"/><filter id="luminosity-noclip-17" x="348.37" y="418.27" width="35.94" height="39.04" filterUnits="userSpaceOnUse" color-interpolation-filters="sRGB"><feFlood flood-color="#fff" result="bg"/><feBlend in="SourceGraphic" in2="bg"/></filter><mask id="mask-17" x="348.37" y="418.27" width="35.94" height="39.04" maskUnits="userSpaceOnUse"><g class="cls-23"><path class="cls-24" d="M369.67,434.65c-5.31,12.12-9.24,18.9-21.3,22.54,16.38,1.74,28-14.78,35.94-38.92C380.41,429.66,375.26,434.44,369.67,434.65Z"/></g></mask><linearGradient id="linear-gradient-21" x1="418.07" y1="482.46" x2="346.61" y2="420.67" xlink:href="#linear-gradient-17"/><filter id="luminosity-noclip-18" x="81.83" y="138.54" width="307.56" height="169.27" filterUnits="userSpaceOnUse" color-interpolation-filters="sRGB"><feFlood flood-color="#fff" result="bg"/><feBlend in="SourceGraphic" in2="bg"/></filter><mask id="mask-18" x="81.83" y="138.54" width="307.56" height="169.27" maskUnits="userSpaceOnUse"><g class="cls-3"><path class="cls-4" d="M225.52,192.51c43.66,0-13.25,129.51,28.66,114,28.2-10.42,49.53-38.75,78.16-83.74,18.58-29.22,38.22-52.56,57.05-67.55l-28.91-16.69c-119.69,189.63-64.62,19.32-117.15,11-39.52-6.28-81.89,23.57-161.5,116.63v20.54C144.2,251.48,187.15,192.51,225.52,192.51Z"/></g></mask><linearGradient id="linear-gradient-22" x1="414.57" y1="660.9" x2="146.6" y2="2.13" xlink:href="#linear-gradient-17"/><filter id="luminosity-noclip-19" x="120.88" y="155.23" width="268.51" height="152.58" filterUnits="userSpaceOnUse" color-interpolation-filters="sRGB"><feFlood flood-color="#fff" result="bg"/><feBlend in="SourceGraphic" in2="bg"/></filter><mask id="mask-19" x="120.88" y="155.23" width="268.51" height="152.58" maskUnits="userSpaceOnUse"><g class="cls-5"><path class="cls-6" d="M261.94,281.77c-19.61-4.72,14.51-82.26-18.61-96-32.77-13.62-90.81,41.68-122.45,74.72,42.27-32.38,74.84-67.95,104.64-67.95,43.66,0-13.25,129.51,28.66,114,28.2-10.42,49.53-38.75,78.16-83.74,18.58-29.22,38.22-52.56,57.05-67.55C355,155.23,286.09,287.58,261.94,281.77Z"/></g></mask><linearGradient id="linear-gradient-23" x1="367.17" y1="378.1" x2="214.93" y2="146.74" xlink:href="#linear-gradient-17"/><filter id="luminosity-noclip-20" x="81.83" y="309.59" width="139.31" height="158.07" filterUnits="userSpaceOnUse" color-interpolation-filters="sRGB"><feFlood flood-color="#fff" result="bg"/><feBlend in="SourceGraphic" in2="bg"/></filter><mask id="mask-20" x="81.83" y="309.59" width="139.31" height="158.07" maskUnits="userSpaceOnUse"><g class="cls-7"><path class="cls-8" d="M144.57,360c27.54-8.95,42,21.53,76.57,24.4h0c-24-7.84-38.36-40.61-38.8-61.82-.65-31.67-51.62.4-100.51,36.1v26.43c0,46.89,20.87,76.38,52.4,82.6C104.37,445.29,106.26,372.39,144.57,360Z"/></g></mask><linearGradient id="linear-gradient-24" x1="-105.04" y1="189.21" x2="279.08" y2="489.96" xlink:href="#linear-gradient-17"/><filter id="luminosity-noclip-21" x="232.15" y="257.84" width="167.6" height="141.91" filterUnits="userSpaceOnUse" color-interpolation-filters="sRGB"><feFlood flood-color="#fff" result="bg"/><feBlend in="SourceGraphic" in2="bg"/></filter><mask id="mask-21" x="232.15" y="257.84" width="167.6" height="141.91" maskUnits="userSpaceOnUse"><g class="cls-9"><path class="cls-10" d="M396.73,261.86c-7.44-16.6-55.09,19-114.24,91.93-18.94,23.37-36,32.21-50.34,32.28h0c5.41,5.87,71.41-22.7,59.46,13.68l11.95-6.9q13.43-7.75,26.9-15.53l67.77-39.13C401,301.25,399.68,268.42,396.73,261.86Z"/></g></mask><linearGradient id="linear-gradient-25" x1="333.2" y1="174.57" x2="309.38" y2="422.71" xlink:href="#linear-gradient-17"/><filter id="luminosity-noclip-22" x="81.83" y="29.62" width="212.94" height="198.79" filterUnits="userSpaceOnUse" color-interpolation-filters="sRGB"><feFlood flood-color="#fff" result="bg"/><feBlend in="SourceGraphic" in2="bg"/></filter><mask id="mask-22" x="81.83" y="29.62" width="212.94" height="198.79" maskUnits="userSpaceOnUse"><g class="cls-11"><path class="cls-12" d="M81.83,113.47v115c37.43-75.93,88.54-123.57,160.75-114.15C293.75,121,298.51,120.8,293,99.56c-34.28-19.8-67.3-38.85-93.54-54C134.76,8.22,81.83,38.77,81.83,113.47Z"/></g></mask><linearGradient id="linear-gradient-26" x1="110.09" y1="-280.82" x2="202.4" y2="249.2" gradientUnits="userSpaceOnUse"><stop offset="0" stop-color="#f1f1f1"/><stop offset="1" stop-color="#f1f1f1"/></linearGradient><filter id="luminosity-noclip-23" x="271.92" y="257.84" width="127.83" height="107.73" filterUnits="userSpaceOnUse" color-interpolation-filters="sRGB"><feFlood flood-color="#fff" result="bg"/><feBlend in="SourceGraphic" in2="bg"/></filter><mask id="mask-23" x="271.92" y="257.84" width="127.83" height="107.73" maskUnits="userSpaceOnUse"><g class="cls-15"><path class="cls-16" d="M398.23,338.19c2.76-36.94,1.45-69.77-1.5-76.33-7.44-16.6-55.09,19-114.24,91.93a146.28,146.28,0,0,1-10.57,11.78h0c65.2-58.74,92-73.63,106.89-71.64,10.94,1.46,8.21,31,4.41,52.92Z"/></g></mask><linearGradient id="linear-gradient-27" x1="465.49" y1="253.26" x2="278.9" y2="365.42" xlink:href="#linear-gradient-17"/><filter id="luminosity-noclip-24" x="81.83" y="309.59" width="100.51" height="71.29" filterUnits="userSpaceOnUse" color-interpolation-filters="sRGB"><feFlood flood-color="#fff" result="bg"/><feBlend in="SourceGraphic" in2="bg"/></filter><mask id="mask-24" x="81.83" y="309.59" width="100.51" height="71.29" maskUnits="userSpaceOnUse"><g class="cls-17"><path class="cls-18" d="M182.34,322.53c-.65-31.67-51.62.4-100.51,36.1v22.25c13.48-20.77,42.75-42.38,61-52.09C167.21,315.82,177.57,315.76,182.34,322.53Z"/></g></mask><linearGradient id="linear-gradient-28" x1="73.02" y1="278.51" x2="170.17" y2="393.9" xlink:href="#linear-gradient-17"/></defs><title>Artboard 1</title><g class="cls-25"><g id="Modules"><path class="cls-26" d="M389.39,155.23c-18.83,15-38.47,38.33-57.05,67.55-28.63,45-50,73.32-78.16,83.74-41.91,15.5,15-114-28.66-114-38.37,0-81.32,59-143.69,94.17V113.47c0-74.7,52.93-105.25,117.6-67.91C250.59,75.08,327.47,119.48,389.39,155.23Z"/><path class="cls-27" d="M398.23,338.19l-67.77,39.13q-13.44,7.74-26.9,15.53L199.43,453c-64.67,37.34-117.6,6.79-117.6-67.9V358.63c48.89-35.7,99.86-67.77,100.51-36.1.75,35.73,41,104.21,100.15,31.26s106.8-108.53,114.24-91.93C399.68,268.42,401,301.25,398.23,338.19Z"/><path class="cls-28" d="M456.42,301.65c5.67-32,10.12-65.34,11-93.33C491.58,238.08,487.91,273.66,456.42,301.65Z"/><path class="cls-29" d="M384.31,418.27c-8,24.14-19.56,40.66-35.94,38.92h0c-21.41-7.58-39.93-49.78-44.8-64.34q13.43-7.75,26.9-15.53C339.4,413.64,370.07,459.78,384.31,418.27Z"/><path class="cls-30" d="M467.42,208.32c-.88,28-5.33,61.37-11,93.33-6.64,37.42-15,72.93-21.2,95.63-13.91,50.62-66.29,64.2-83.9,60.73a19.42,19.42,0,0,1-2.95-.82c16.38,1.74,28-14.78,35.94-38.92a2.09,2.09,0,0,1,.08-.23c7.52-22.86,11.79-52.48,13.84-79.85,2.76-36.94,1.45-69.77-1.5-76.33-7.44-16.6-55.09,19-114.24,91.93s-99.4,4.47-100.15-31.26c-.65-31.67-51.62.4-100.51,36.1-6.27,4.57-12.51,9.2-18.59,13.77-52.25,39.19-55-51.54-48.66-97.95-3,24.2,7.58,38.22,40.21,25.25q2.24-.88,4.44-1.83a225,225,0,0,0,22.6-11.19c62.37-35.2,105.32-94.17,143.69-94.17,43.66,0-13.25,129.51,28.66,114,28.2-10.42,49.53-38.75,78.16-83.74,18.58-29.22,38.22-52.56,57.05-67.55,24.18-19.22,47-24.66,64.59-11C465,152.86,468.4,177.28,467.42,208.32Z"/><path class="cls-31" d="M375.51,449.48q8.26-10.62,14.46-29.34l.12-.39c8.57-26.1,12.39-58.51,14.08-81.11,2.68-35.95,1.8-70.74-2-79.22-2.14-4.79-6.57-7.54-12.14-7.54-24,0-73.67,50.71-112.15,98.16-16,19.68-31.83,30.09-45.89,30.09-25.54,0-43.21-34.74-43.68-57.73-.25-11.92-6.72-18.77-17.74-18.77-16.26,0-44.71,15.48-92.24,50.19-5.84,4.26-12.11,8.91-18.66,13.82-7.42,5.56-13.81,8.38-19,8.38-3.85,0-7-1.55-9.9-4.88-9.49-10.86-13.14-37.7-12.62-65.06,4.08,3,9.25,4.51,15.42,4.51,6.6,0,14.49-1.8,23.43-5.35,1.54-.62,3-1.24,4.57-1.88a231.06,231.06,0,0,0,23.2-11.5c26.67-15.05,49.86-34.37,70.31-51.42,27-22.53,50.36-42,70.45-42,4,0,5.87,1.54,6.9,2.7,7.42,8.34,4.39,34.44,2,55.42-2.72,23.37-5.07,43.55,2.93,52.53A13.87,13.87,0,0,0,248,313.77a23.81,23.81,0,0,0,8.25-1.66c28.92-10.69,50.82-38.52,81.12-86.14,18.31-28.78,37.59-51.63,55.74-66.08,14.22-11.31,27.68-17.29,38.91-17.29a28.74,28.74,0,0,1,18.3,6.37c4.75,3.7,12.51,16.31,11.16,59.16-.77,24.63-4.55,56.61-10.91,92.48-5.77,32.49-13.65,68-21.09,95.09C420.74,427.5,395.51,443.38,375.51,449.48Z"/><path class="cls-32" d="M81.83,201.19C47.6,234.31,27,294.08,59.23,297.87q-2.2.94-4.44,1.83c-32.63,13-43.22-1.05-40.21-25.25.1-.79.21-1.56.33-2.32a2.25,2.25,0,0,1,.06-.36c5.31-33.29,34.33-83.64,66.86-111Z"/><g class="cls-33"><path class="cls-34" d="M14.45,275.7c-2.49,23.42,8.28,36.75,40.34,24q2.24-.88,4.44-1.83a17.36,17.36,0,0,1-10.57-4.75C28,300.32,17.76,290.16,14.45,275.7Z"/></g><g class="cls-35"><path class="cls-36" d="M46.57,257.26c-8.91-3.64-16.25-11.54-19.86-21.4-5.9,12.84-10,25.25-11.74,35.91a2.25,2.25,0,0,0-.06.36c-.12.76-.23,1.53-.33,2.32-3,24.2,7.58,38.22,40.21,25.25q2.24-.88,4.44-1.83C42.21,295.87,39.92,278.29,46.57,257.26Z"/></g><g class="cls-37"><path class="cls-38" d="M81.83,160.74a161.05,161.05,0,0,0-12.7,12v42.71a133.79,133.79,0,0,1,12.7-14.27Z"/></g><g class="cls-39"><path class="cls-40" d="M344.6,412.24a137.2,137.2,0,0,1-14.14-34.92q-13.44,7.74-26.9,15.53c3.62,10.83,14.81,37,29.11,52.75C325.46,423.46,337.79,415.48,344.6,412.24Z"/></g><g class="cls-41"><path class="cls-42" d="M369.67,434.65c-5.31,12.12-9.24,18.9-21.3,22.54,16.38,1.74,28-14.78,35.94-38.92C380.41,429.66,375.26,434.44,369.67,434.65Z"/></g><g class="cls-43"><path class="cls-44" d="M225.52,192.51c43.66,0-13.25,129.51,28.66,114,28.2-10.42,49.53-38.75,78.16-83.74,18.58-29.22,38.22-52.56,57.05-67.55l-28.91-16.69c-119.69,189.63-64.62,19.32-117.15,11-39.52-6.28-81.89,23.57-161.5,116.63v20.54C144.2,251.48,187.15,192.51,225.52,192.51Z"/></g><g class="cls-45"><path class="cls-46" d="M261.94,281.77c-19.61-4.72,14.51-82.26-18.61-96-32.77-13.62-90.81,41.68-122.45,74.72,42.27-32.38,74.84-67.95,104.64-67.95,43.66,0-13.25,129.51,28.66,114,28.2-10.42,49.53-38.75,78.16-83.74,18.58-29.22,38.22-52.56,57.05-67.55C355,155.23,286.09,287.58,261.94,281.77Z"/></g><g class="cls-47"><path class="cls-48" d="M144.57,360c27.54-8.95,42,21.53,76.57,24.4h0c-24-7.84-38.36-40.61-38.8-61.82-.65-31.67-51.62.4-100.51,36.1v26.43c0,46.89,20.87,76.38,52.4,82.6C104.37,445.29,106.26,372.39,144.57,360Z"/></g><g class="cls-49"><path class="cls-50" d="M396.73,261.86c-7.44-16.6-55.09,19-114.24,91.93-18.94,23.37-36,32.21-50.34,32.28h0c5.41,5.87,71.41-22.7,59.46,13.68l11.95-6.9q13.43-7.75,26.9-15.53l67.77-39.13C401,301.25,399.68,268.42,396.73,261.86Z"/></g><g class="cls-51"><path class="cls-52" d="M81.83,113.47v115c37.43-75.93,88.54-123.57,160.75-114.15C293.75,121,298.51,120.8,293,99.56c-34.28-19.8-67.3-38.85-93.54-54C134.76,8.22,81.83,38.77,81.83,113.47Z"/></g><g class="cls-53"><path class="cls-54" d="M398.23,338.19c2.76-36.94,1.45-69.77-1.5-76.33-7.44-16.6-55.09,19-114.24,91.93a146.28,146.28,0,0,1-10.57,11.78h0c65.2-58.74,92-73.63,106.89-71.64,10.94,1.46,8.21,31,4.41,52.92Z"/></g><g class="cls-55"><path class="cls-56" d="M182.34,322.53c-.65-31.67-51.62.4-100.51,36.1v22.25c13.48-20.77,42.75-42.38,61-52.09C167.21,315.82,177.57,315.76,182.34,322.53Z"/></g></g></g></svg>