<?xml version="1.0" encoding="utf-8"?>
<!-- Generator: Adobe Illustrator 22.1.0, SVG Export Plug-In . SVG Version: 6.00 Build 0)  -->
<svg version="1.1" id="Modules" xmlns="http://www.w3.org/2000/svg" xmlns:xlink="http://www.w3.org/1999/xlink" x="0px" y="0px"
	 viewBox="0 0 500 500" style="enable-background:new 0 0 500 500;" xml:space="preserve">
<style type="text/css">
	.st0{fill:url(#SVGID_1_);}
	.st1{fill:url(#SVGID_2_);}
</style>
<g>
	
		<linearGradient id="SVGID_1_" gradientUnits="userSpaceOnUse" x1="245.872" y1="499.4095" x2="255.5583" y2="51.4203" gradientTransform="matrix(1 0 0 -1 0 500)">
		<stop  offset="0" style="stop-color:#6457A4"/>
		<stop  offset="7.354832e-02" style="stop-color:#6168AD"/>
		<stop  offset="0.2474" style="stop-color:#5A89BF"/>
		<stop  offset="0.4256" style="stop-color:#55A3CE"/>
		<stop  offset="0.6077" style="stop-color:#51B6D8"/>
		<stop  offset="0.796" style="stop-color:#4FC1DE"/>
		<stop  offset="1" style="stop-color:#4EC5E0"/>
	</linearGradient>
	<path class="st0" d="M110,94.4c18.4,0,33.2,14.9,33.2,33.2c0,0.9,0,1.7-0.1,2.6l176.3,87.3c10.8-12.7,26.9-20.8,44.9-20.8
		c32.5,0,58.8,26.4,58.8,58.9s-26.4,58.8-58.8,58.8c-11.7,0-22.6-3.4-31.7-9.3l-121.5,86.4c2,5.3,3.1,10.9,3.1,16.9
		c0,26.6-21.6,48.2-48.2,48.2s-48.2-21.6-48.2-48.2s21.6-48.2,48.2-48.2c11.7,0,22.4,4.1,30.7,11.1l118-83.9
		c-5.9-9.2-9.3-20-9.3-31.7c0-5.6,0.8-11,2.3-16.2l-175.6-87c-5.9,5.3-13.6,8.4-22.1,8.4c-18.3,0-33.2-14.9-33.2-33.2
		C76.8,109.3,91.7,94.4,110,94.4 M110,72c-30.7,0-55.7,25-55.7,55.7s25,55.7,55.7,55.7c8.2,0,16.2-1.8,23.5-5.2l149.7,74.1
		c0,1.1-0.1,2.2-0.1,3.3c0,8.3,1.2,16.4,3.7,24.2L196,344.4c-9.3-4.3-19.5-6.6-29.8-6.6c-38.9,0-70.6,31.7-70.6,70.6
		s31.7,70.6,70.6,70.6s70.6-31.7,70.6-70.6c0-2.4-0.1-4.8-0.4-7.2l98.3-69.9c9.4,3.7,19.5,5.6,29.7,5.6c44.8,0,81.3-36.5,81.3-81.3
		s-36.5-81.3-81.3-81.3c-17.8,0-34.8,5.8-48.8,16.3l-151.2-74.9C158.9,90.7,136.6,72,110,72L110,72z"/>
	
		<linearGradient id="SVGID_2_" gradientUnits="userSpaceOnUse" x1="248.357" y1="499.4633" x2="258.0432" y2="51.4741" gradientTransform="matrix(1 0 0 -1 0 500)">
		<stop  offset="0" style="stop-color:#6457A4"/>
		<stop  offset="7.354832e-02" style="stop-color:#6168AD"/>
		<stop  offset="0.2474" style="stop-color:#5A89BF"/>
		<stop  offset="0.4256" style="stop-color:#55A3CE"/>
		<stop  offset="0.6077" style="stop-color:#51B6D8"/>
		<stop  offset="0.796" style="stop-color:#4FC1DE"/>
		<stop  offset="1" style="stop-color:#4EC5E0"/>
	</linearGradient>
	<path class="st1" d="M249.9,21C221.8,21,199,43.8,199,71.9s22.8,50.9,50.9,50.9s50.9-22.8,50.9-50.9S278,21,249.9,21z M249.9,100.4
		c-15.8,0-28.5-12.8-28.5-28.5s12.8-28.5,28.5-28.5s28.5,12.8,28.5,28.5S265.6,100.4,249.9,100.4z"/>
</g>
</svg>
