<?xml version="1.0" encoding="utf-8"?>
<!-- Generator: Adobe Illustrator 22.1.0, SVG Export Plug-In . SVG Version: 6.00 Build 0)  -->
<svg version="1.1" id="Modules" xmlns="http://www.w3.org/2000/svg" xmlns:xlink="http://www.w3.org/1999/xlink" x="0px" y="0px"
	 viewBox="0 0 500 500" style="enable-background:new 0 0 500 500;" xml:space="preserve">
<style type="text/css">
	.st0{display:none;}
	.st1{display:inline;filter:url(#Adobe_OpacityMaskFilter);}
	.st2{filter:url(#Adobe_OpacityMaskFilter_1_);}
	.st3{mask:url(#SVGID_1_);fill:url(#SVGID_2_);}
	.st4{display:inline;fill:url(#SVGID_3_);}
	.st5{display:inline;fill:url(#SVGID_4_);}
	.st6{display:inline;fill:#25A9E0;}
	.st7{display:inline;fill:#006DA5;}
	.st8{display:inline;fill:url(#SVGID_5_);}
	.st9{display:inline;fill:url(#SVGID_6_);}
	.st10{display:inline;}
	.st11{fill:url(#SVGID_7_);}
	.st12{fill:url(#SVGID_8_);}
	.st13{fill:url(#SVGID_9_);}
	.st14{opacity:0.5;fill:url(#SVGID_10_);}
	.st15{fill:url(#SVGID_11_);}
	.st16{opacity:0.25;fill:url(#SVGID_12_);}
	.st17{fill:url(#SVGID_13_);}
	.st18{opacity:0.25;fill:url(#SVGID_14_);}
	.st19{fill:url(#SVGID_15_);}
	.st20{opacity:0.5;fill:url(#SVGID_16_);}
	.st21{display:inline;opacity:0.25;fill:url(#SVGID_17_);}
	.st22{display:none;fill:url(#SVGID_18_);}
	.st23{filter:url(#Adobe_OpacityMaskFilter_2_);}
	.st24{filter:url(#Adobe_OpacityMaskFilter_3_);}
	.st25{mask:url(#SVGID_19_);fill:url(#SVGID_20_);}
	.st26{fill:url(#SVGID_21_);}
	.st27{fill:url(#SVGID_22_);}
	.st28{fill:url(#SVGID_23_);}
	.st29{fill:url(#SVGID_24_);}
	.st30{fill:url(#SVGID_25_);}
	.st31{fill:url(#SVGID_26_);}
	.st32{fill:url(#SVGID_27_);}
	.st33{fill:url(#SVGID_28_);}
	.st34{fill:url(#SVGID_29_);}
	.st35{fill:url(#SVGID_30_);}
	.st36{fill:url(#SVGID_31_);}
	.st37{fill:url(#SVGID_32_);}
	.st38{fill:url(#SVGID_33_);}
	.st39{fill:url(#SVGID_34_);}
	.st40{fill:url(#SVGID_35_);}
	.st41{fill:url(#SVGID_36_);}
	.st42{fill:url(#SVGID_37_);}
	.st43{fill:url(#SVGID_38_);}
	.st44{fill:url(#SVGID_39_);}
	.st45{fill:url(#SVGID_40_);}
	.st46{fill:url(#SVGID_41_);}
	.st47{fill:url(#SVGID_42_);}
	.st48{fill:url(#SVGID_43_);}
</style>
<g id="Hostig" class="st0">
	<defs>
		<filter id="Adobe_OpacityMaskFilter" filterUnits="userSpaceOnUse" x="132.5" y="365.3" width="324.1" height="39">
			<feFlood  style="flood-color:white;flood-opacity:1" result="back"/>
			<feBlend  in="SourceGraphic" in2="back" mode="normal"/>
		</filter>
	</defs>
	<mask maskUnits="userSpaceOnUse" x="132.5" y="365.3" width="324.1" height="39" id="SVGID_1_" class="st10">
		<g style="filter:url(#Adobe_OpacityMaskFilter);">
			<defs>
				<filter id="Adobe_OpacityMaskFilter_1_" filterUnits="userSpaceOnUse" x="132.5" y="365.3" width="324.1" height="39">
					<feFlood  style="flood-color:white;flood-opacity:1" result="back"/>
					<feBlend  in="SourceGraphic" in2="back" mode="normal"/>
				</filter>
			</defs>
			<mask maskUnits="userSpaceOnUse" x="132.5" y="365.3" width="324.1" height="39" id="SVGID_1_">
				<g class="st2">
				</g>
			</mask>
			
				<radialGradient id="SVGID_2_" cx="294.4901" cy="996.4299" r="162.0642" gradientTransform="matrix(1 0 0 0.1203 0 264.9659)" gradientUnits="userSpaceOnUse">
				<stop  offset="0" style="stop-color:#999999"/>
				<stop  offset="0.1268" style="stop-color:#8E8E8E"/>
				<stop  offset="0.3466" style="stop-color:#727272"/>
				<stop  offset="0.6328" style="stop-color:#444444"/>
				<stop  offset="0.9714" style="stop-color:#060606"/>
				<stop  offset="1" style="stop-color:#000000"/>
			</radialGradient>
			<path class="st3" d="M456.5,384.8c0,10.8-72.6,19.5-162,19.5c-89.5,0-162-8.7-162-19.5c0-10.8,72.5-19.5,162-19.5
				C384,365.3,456.5,374.1,456.5,384.8z"/>
		</g>
	</mask>
	
		<radialGradient id="SVGID_3_" cx="294.4901" cy="996.4299" r="162.0642" gradientTransform="matrix(1 0 0 0.1203 0 264.9659)" gradientUnits="userSpaceOnUse">
		<stop  offset="0" style="stop-color:#606263"/>
		<stop  offset="0.1232" style="stop-color:#6B6C6D"/>
		<stop  offset="0.3365" style="stop-color:#878889"/>
		<stop  offset="0.6145" style="stop-color:#B5B5B6"/>
		<stop  offset="0.9431" style="stop-color:#F3F4F4"/>
		<stop  offset="1" style="stop-color:#FFFFFF"/>
	</radialGradient>
	<path class="st4" d="M456.5,384.8c0,10.8-72.6,19.5-162,19.5c-89.5,0-162-8.7-162-19.5c0-10.8,72.5-19.5,162-19.5
		C384,365.3,456.5,374.1,456.5,384.8z"/>
	<radialGradient id="SVGID_4_" cx="51.108" cy="85.5255" r="686.4553" gradientUnits="userSpaceOnUse">
		<stop  offset="0" style="stop-color:#27A8E0"/>
		<stop  offset="0.1182" style="stop-color:#26A4DC"/>
		<stop  offset="0.2407" style="stop-color:#2597D1"/>
		<stop  offset="0.3651" style="stop-color:#2283BE"/>
		<stop  offset="0.4901" style="stop-color:#1E66A4"/>
		<stop  offset="0.6" style="stop-color:#1A4687"/>
		<stop  offset="0.6839" style="stop-color:#18386C"/>
		<stop  offset="0.8222" style="stop-color:#142444"/>
		<stop  offset="0.9324" style="stop-color:#12182C"/>
		<stop  offset="1" style="stop-color:#111323"/>
	</radialGradient>
	<path class="st5" d="M183.9,135.3c-0.8,0-2,0-2.8,0h-66.2c-2.8,0-4.8,2-4.8,4.8c0,2.4,2,4.4,4.8,4.4h38.7h9.9c2.4,0,4.4,2,4.4,4.4
		c0,2.8-2,4.8-4.4,4.8H85.4c-2.4,0-4.4,2-4.4,4.4c0,2.4,2,4.8,4.4,4.8h98.1c2.4,0,4.4,2,4.4,4.4c0,2.4-2,4.4-4.4,4.4H95.4
		c-2.4,0-4.4,2-4.4,4.8c0,2.4,2,4.4,4.4,4.4h65c2.4,0,4.4,2,4.4,4.4c0,2.8-2,4.8-4.4,4.8c-16.8,0-33.1,0-49.4,0H85
		c-2.8,0-4.8,2-4.8,4.4c0,2.4,2,4.4,4.8,4.4h15.1H136c2.4,0,4.4,2.4,4.4,4.8c0,2.4-2,4.4-4.4,4.4H85c-2.8,0-4.8,1.9-4.8,4.8
		c0,2.4,2,4.4,4.8,4.4h71.4c2.4,0,4.4,2,4.4,4.4c0,2.8-2,4.8-4.4,4.8c-31.5,0-63.4,0-94.9,0c-2.4,0-4.4,2-4.4,4.4
		c0,2.4,2,4.4,4.4,4.4h23.1h25.9c2.4,0,4.8,2,4.8,4.8c0,2.4-2,4.3-4.4,4.3H74.3c-2.4,0-4.4,2-4.4,4.4c0,2.8,2,4.8,4.4,4.8h36.3h14.3
		c2.4,0,4.4,2,4.4,4.4l0,0c0,2.4-2,4.8-4.4,4.8c-13.5,0-27.5,0-41,0c-2.8,0-4.8,2-4.8,4.4c0,2.4,2,4.4,4.8,4.4h10.3
		c10.4,15.9,28.3,26.6,49,26.6h29.1c8.4,22.2,29.9,38.5,55.4,38.5c69,0,138.3,0,207.7,0c35.9,0,64.6-29,64.6-64.4
		c0-34.2-26.7-62.4-60.6-64.4c-6.8-40.9-42.7-71.1-84.5-71.1c-4,0-8,0.4-11.9,0.8c-15.6-23.5-41.9-39.4-72.2-39.4
		c-30.7,0-57.4,15.9-72.5,39.7C193.8,136.1,189.1,135.3,183.9,135.3L183.9,135.3z M56.3,262.1h15.5c2.4,0,4.4,2,4.4,4.4
		c0,2.4-2,4.4-4.4,4.4H56.3c-2.4,0-4.8-2-4.8-4.4l0,0C51.5,264.1,53.9,262.1,56.3,262.1L56.3,262.1z M24.4,243.8h36.3
		c2.4,0,4.4,2,4.4,4.4c0,2.8-2,4.8-4.4,4.8H24.4c-2.8,0-4.7-2-4.7-4.8C19.7,245.8,21.6,243.8,24.4,243.8L24.4,243.8z M35.6,225.9
		h9.6c2.4,0,4.4,2,4.4,4.4c0,2.4-2,4.4-4.4,4.4h-9.6c-2.4,0-4.4-2-4.4-4.4C31.2,227.9,33.2,225.9,35.6,225.9L35.6,225.9z M6.1,207.7
		h35.5c2.8,0,4.8,1.9,4.8,4.8c0,2.4-2,4.4-4.8,4.4H6.1c-2.4,0-4.4-2-4.4-4.4C1.7,209.6,3.7,207.7,6.1,207.7L6.1,207.7z M61.1,207.7
		h7.6c2.8,0,4.8,1.9,4.8,4.8c0,2.4-2,4.4-4.8,4.4h-7.6c-2.8,0-4.8-2-4.8-4.4C56.3,209.6,58.3,207.7,61.1,207.7L61.1,207.7z
		 M44.3,189.8h20.7c2.4,0,4.4,2,4.4,4.4c0,2.4-2,4.4-4.4,4.4H44.3c-2.8,0-4.8-2-4.8-4.4C39.6,191.7,41.6,189.8,44.3,189.8
		L44.3,189.8z M98.2,135.3h-8c-2.4,0-4.4,2-4.4,4.8c0,2.4,2,4.4,4.4,4.4h8c2.4,0,4.8-2,4.8-4.4C102.9,137.3,100.5,135.3,98.2,135.3
		L98.2,135.3z M9.7,171.5h66.2c2.8,0,4.8,2,4.8,4.8c0,2.4-2,4.4-4.8,4.4H9.7c-2.4,0-4.4-2-4.4-4.4C5.3,173.4,7.3,171.5,9.7,171.5
		L9.7,171.5z M47.5,153.6h16.3c2.4,0,4.4,2,4.4,4.4c0,2.4-2,4.8-4.4,4.8H47.5c-2.4,0-4.4-2.4-4.4-4.8
		C43.2,155.6,45.2,153.6,47.5,153.6L47.5,153.6z M219,239.8l13.6-3.2c-6.8-35,28.7-56,59.4-37.4c9.9-26.2,33.9-42.9,63-42.9
		c32.7,0,59.4,23.5,64.6,55.3c-13.6,4-26.7,13.5-35.1,30.2c30.7-25,95.3-22.7,95.3,29.8c0,24.2-19.5,44.1-44.3,44.1
		c-69.4,0-138.7,0-207.7,0C182.7,315.7,173.1,250.2,219,239.8L219,239.8z"/>
</g>
<g id="Business_Manager" class="st0">
	<path class="st6" d="M204.7,132.6h90.5c4.5,0,8.1-3.6,8.1-8.1c0-4.5-3.7-8.1-8.1-8.1h-90.5c-4.5,0-8.1,3.7-8.1,8.1
		C196.6,129,200.3,132.6,204.7,132.6z"/>
	<path class="st7" d="M377.4,404.8H183.4l135.2-135.2l5.8,5.8l13.4-50.1l-50.1,13.4l5.8,5.8L133.4,404.8h-10.8
		c-6.7,0-13-1.4-18.7-3.9l92.5-92.5l5.8,5.8l13.4-50.1l-50.1,13.4l5.8,5.8l-92.3,92.3c-2.3-5.6-3.6-11.7-3.6-18.1V346l115.8-115.8
		l5.8,5.8l13.4-50.1l-50.1,13.4l5.8,5.8L75.5,296V180.8c0-12.7,5-24.2,13.2-32.7L0,236.8V439c0,33.7,27.3,61,61,61h240.4L407,394.3
		C398.9,400.9,388.6,404.8,377.4,404.8z"/>
	<path class="st6" d="M439,0H61C27.3,0,0,27.3,0,61v175.8l88.7-88.7c0.4-0.4,0.8-0.8,1.3-1.2l0.6-0.6l-0.6,0.6
		c8.5-8.2,20-13.2,32.7-13.2h0.2v-6.8h34.9v6.8h19.1c-0.9-2.9-1.4-5.9-1.4-9.1c0-16.2,13.2-29.4,29.3-29.4h90.5
		c16.2,0,29.4,13.2,29.4,29.4c0,3.2-0.5,6.2-1.5,9.1h19.1v-6.8h34.9v6.8h0.2c26,0,47.2,21.1,47.2,47.2v176.9
		c0,11.2-3.9,21.6-10.5,29.7l0.1-0.1l-0.1,0.1c-2.1,2.6-4.4,4.9-7,7L301.4,500H439c33.7,0,61-27.3,61-61V61C500,27.3,472.7,0,439,0z
		"/>
</g>
<g id="Group_1_" class="st0">
	
		<radialGradient id="SVGID_5_" cx="255.5143" cy="230.5688" r="186.5802" gradientTransform="matrix(1 0 0 -1 0 502)" gradientUnits="userSpaceOnUse">
		<stop  offset="0.2" style="stop-color:#F19720"/>
		<stop  offset="1" style="stop-color:#955123"/>
	</radialGradient>
	<path class="st8" d="M318.9,399.2v0.1l0,0c-85.3,0-106.4-59.2-126.8-116.6c-4-11.2-7.9-22.4-12.5-32.6l0,0
		c-1.1-2.4-2.1-4.7-3.2-6.9l-0.1-0.3c-0.5-1-1.1-2.1-1.6-3.2v-0.1l-0.6-1v-0.1c-10.1-18-24.3-33.4-48.6-33.4l0,0v-0.1
		c-13.3,0-26.8,5.5-37.7,14.3c-10.9,8.9-19.3,21-22.5,34.3l0,0c-3.2,13.3-0.6,25.5,6.1,34.3c6.3,8.4,16.4,13.7,28.7,14.2
		c12.3,0.5,23.9-3.5,29.5-6c-12.7,6.2-26.6,9.5-40.7,9.6c-34.7,0-59.1-21.7-63.5-52.1c-1.3-9.7-0.8-19.7,1.6-29.2
		c4.7-18.6,14.4-35.5,28.1-48.9c25.4-20.4,56.5-31.8,85.3-31.8v-0.1l0,0c73.6,0,92.6,53,112,107.6c1.1,3,2.2,6.1,3.3,9.2l0,0
		c3.6,9.9,7.3,19.6,11.6,28.7l0.1,0.2c0.3,0.5,0.5,1,0.8,1.6v0.1l0.8,1.6l0.1,0.2c0.3,0.5,0.5,1,0.8,1.5v0.1
		c13.3,25.6,33.9,44.5,66.5,43.6c20.5-0.6,42.4-9.1,60.2-24.1c18.6-15.5,31.9-36.5,37.8-60l0,0c5.6-23.5,1.9-44.7-9-60
		c-19.1-26.7-59.3-31.6-94.9-12.6c10-5.6,29.1-16.7,63.7-17c55.3,0,92.3,38.2,92.4,89.6l0,0c-0.1,16.8-3.7,33.5-10.4,48.9
		c-11.8,20.3-27.1,38.3-45.1,53.3C397.4,384,357.5,399.1,318.9,399.2L318.9,399.2z"/>
	
		<radialGradient id="SVGID_6_" cx="250.3912" cy="265.9993" r="198.3186" gradientTransform="matrix(1 0 0 -1 0 502)" gradientUnits="userSpaceOnUse">
		<stop  offset="0" style="stop-color:#F4AC3D"/>
		<stop  offset="1" style="stop-color:#F19720"/>
	</radialGradient>
	<path class="st9" d="M293.1,137.8c26.8-18,57.6-29.7,95.5-29.7l0,0v0.1c40.5,0,72.2,16.5,91.3,43.1c18.8,26.3,25.3,62.5,15.8,102.3
		l0,0c-4.2,17.2-10.8,33.7-19.7,48.9c2.9-6.9,5.3-14,7-21.3c2.2-9,3.3-18.3,3.3-27.6l0,0c-0.2-51.4-37.3-89.6-92.4-89.6
		c-34.6,0.3-53.6,11.4-63.6,17l1.8-1c-22.4,11.4-42.2,31-61,52.4c-22.9,26.1-43.8,53.7-68.8,78.2c-31.4,30.8-67,53.1-114.9,53.1l0,0
		v-0.1c-30.5,0-55.1-12.3-70.2-32.1C2.3,311.8-3.4,284.2,3.9,253.7l0,0c7-29.2,25.4-57.6,51.1-78.1C41.4,189,31.7,206,27,224.5
		c-2.4,9.5-2.9,19.5-1.6,29.2c4.4,30.5,28.8,52.1,63.5,52.1c26.1,0,52.3-12.3,71.8-31.5c17.1-15.6,31.9-33.8,46.8-51.3
		C233.7,192.3,258.8,160.9,293.1,137.8L293.1,137.8z"/>
</g>
<g class="st0">
	<g class="st10">
		<g>
			<linearGradient id="SVGID_7_" gradientUnits="userSpaceOnUse" x1="124.0702" y1="165.5355" x2="375.9269" y2="165.5355">
				<stop  offset="0" style="stop-color:#00A44F"/>
				<stop  offset="0.5" style="stop-color:#CDDB44"/>
				<stop  offset="1" style="stop-color:#00A44F"/>
			</linearGradient>
			<path class="st11" d="M250,122.2c-54.8,0-102.3,31.3-125.9,76.9c8.6,1.8,16.6,5.1,23.9,9.7c19.6-36.2,58-60.9,102-60.9
				c44,0,82.4,24.6,102,60.8c7.3-4.6,15.3-7.9,23.9-9.7C352.3,153.5,304.8,122.2,250,122.2z"/>
			<linearGradient id="SVGID_8_" gradientUnits="userSpaceOnUse" x1="5.1291" y1="181.7043" x2="494.868" y2="181.7043">
				<stop  offset="0" style="stop-color:#00A44F"/>
				<stop  offset="0.5" style="stop-color:#CDDB44"/>
				<stop  offset="1" style="stop-color:#00A44F"/>
			</linearGradient>
			<path class="st12" d="M40.1,326.9c-6-19.9-9.2-41-9.2-62.9c0-120.8,98.3-219.1,219.1-219.1c120.8,0,219.1,98.3,219.1,219.1
				c0,21.8-3.3,43-9.2,62.9c7.7,5,14.9,10.9,21.4,17.4c8.8-25.2,13.6-52.2,13.6-80.3C494.9,129,385,19.1,250,19.1
				C115,19.1,5.1,129,5.1,264c0,28.1,4.8,55.1,13.6,80.3C25.2,337.8,32.4,331.9,40.1,326.9z"/>
			<linearGradient id="SVGID_9_" gradientUnits="userSpaceOnUse" x1="63.3271" y1="142.2428" x2="436.6701" y2="142.2428">
				<stop  offset="0" style="stop-color:#00A44F"/>
				<stop  offset="0.5" style="stop-color:#CDDB44"/>
				<stop  offset="1" style="stop-color:#00A44F"/>
			</linearGradient>
			<path class="st13" d="M250,70.7c-89.2,0-164.5,60.8-186.7,143.1c9.4-7.4,20.4-12.7,32.3-14.9C121.1,138.8,180.7,96.5,250,96.5
				c69.3,0,128.9,42.3,154.4,102.4c11.9,2.3,22.9,7.5,32.3,14.9C414.5,131.5,339.2,70.7,250,70.7z"/>
		</g>
		<linearGradient id="SVGID_10_" gradientUnits="userSpaceOnUse" x1="5.1291" y1="173.6176" x2="494.868" y2="173.6176">
			<stop  offset="0" style="stop-color:#00A44F"/>
			<stop  offset="0.5" style="stop-color:#CDDB44"/>
			<stop  offset="1" style="stop-color:#00A44F"/>
		</linearGradient>
		<path class="st14" d="M5.2,268.2c0-1.4-0.1-2.8-0.1-4.2C5.1,129,115,19.1,250,19.1C385,19.1,494.9,129,494.9,264
			c0,1.4-0.1,2.8-0.1,4.2C492.9,134.8,383.8,26.8,250,26.8C116.2,26.8,7.1,134.8,5.2,268.2z M469,267.1c-0.3,20.7-3.4,40.8-9.1,59.8
			c0.6,0.4,1.1,0.8,1.7,1.2c4.8-18,7.5-36.9,7.5-56.4C469.1,270.2,469,268.7,469,267.1z M30.9,271.7c0,19.5,2.7,38.4,7.6,56.4
			c0.6-0.4,1.1-0.8,1.7-1.2c-5.7-19-8.8-39-9.1-59.8C31,268.7,30.9,270.2,30.9,271.7z M250,70.7c-89.2,0-164.5,60.8-186.7,143.1
			c1-0.8,2.1-1.4,3.1-2.2c25.3-77.2,98-133.2,183.6-133.2c85.6,0,158.2,56,183.6,133.2c1,0.7,2.1,1.4,3.1,2.2
			C414.5,131.5,339.2,70.7,250,70.7z M250,122.2c-54.8,0-102.3,31.3-125.9,76.9c1.3,0.3,2.5,0.6,3.8,1
			c24.6-41.9,70.1-70.2,122.2-70.2s97.5,28.3,122.2,70.2c1.3-0.3,2.5-0.7,3.8-1C352.3,153.5,304.8,122.2,250,122.2z"/>
		<linearGradient id="SVGID_11_" gradientUnits="userSpaceOnUse" x1="415.2164" y1="449.7092" x2="415.2164" y2="220.5993">
			<stop  offset="0" style="stop-color:#235FAB"/>
			<stop  offset="0.4623" style="stop-color:#4089C8"/>
			<stop  offset="1" style="stop-color:#5FB7E7"/>
		</linearGradient>
		<path class="st15" d="M444.9,279.9c0-32.8-24.2-59.3-54-59.3c-29.9,0-54,26.6-54,59.3c0,22.7,11.7,42.5,28.8,52.4
			c-12.8,3.3-24.5,9.2-35.2,16.9c32.3,22.8,55.3,58.8,63.6,100.5h91.3c8.5,0,15.5-6.9,14.5-15.3c-5.8-50.2-39.7-90.6-83.8-102
			C433.2,322.4,444.9,302.7,444.9,279.9z"/>
		<linearGradient id="SVGID_12_" gradientUnits="userSpaceOnUse" x1="443.4974" y1="449.7092" x2="443.4974" y2="220.5993">
			<stop  offset="0" style="stop-color:#221F1F"/>
			<stop  offset="1" style="stop-color:#808083"/>
		</linearGradient>
		<path class="st16" d="M499.9,434.4c-5.8-50.2-39.7-90.6-83.8-102c17.1-10,28.8-29.7,28.8-52.4c0-32.8-24.2-59.3-54-59.3
			c-1.3,0-2.6,0.1-3.9,0.2c28.1,2.2,50.2,27.8,50.2,59.1c0,22.7-11.7,42.5-28.8,52.4c44.1,11.4,78,51.9,83.8,102
			c1,8.4-6,15.3-14.5,15.3h7.7C493.9,449.7,500.9,442.8,499.9,434.4z"/>
		<linearGradient id="SVGID_13_" gradientUnits="userSpaceOnUse" x1="84.9474" y1="449.7092" x2="84.9474" y2="220.5993">
			<stop  offset="0" style="stop-color:#235FAB"/>
			<stop  offset="0.4623" style="stop-color:#4089C8"/>
			<stop  offset="1" style="stop-color:#5FB7E7"/>
		</linearGradient>
		<path class="st17" d="M134.4,332.3c17.1-10,28.8-29.7,28.8-52.4c0-32.8-24.2-59.3-54-59.3c-29.9,0-54,26.6-54,59.3
			c0,22.7,11.7,42.5,28.8,52.4c-44.1,11.4-78,51.9-83.8,102c-1,8.4,6,15.3,14.5,15.3h92c8.4-41.6,31.2-77.4,63.3-100.2
			C159.2,341.7,147.3,335.7,134.4,332.3z"/>
		<linearGradient id="SVGID_14_" gradientUnits="userSpaceOnUse" x1="134.3858" y1="449.7092" x2="134.3858" y2="220.5993">
			<stop  offset="0" style="stop-color:#221F1F"/>
			<stop  offset="1" style="stop-color:#808083"/>
		</linearGradient>
		<path class="st18" d="M134.4,332.3c17.1-10,28.8-29.7,28.8-52.4c0-32.8-24.2-59.3-54-59.3c-1.3,0-2.6,0.1-3.8,0.2
			c28,2.2,50.2,27.8,50.2,59.1c0,22.7-11.6,42.5-28.8,52.4c12.9,3.3,24.8,9.3,35.5,17.1c-32.1,22.9-55,58.7-63.3,100.2h7.7
			c8.4-41.6,31.2-77.4,63.3-100.2C159.2,341.7,147.3,335.7,134.4,332.3z"/>
		<linearGradient id="SVGID_15_" gradientUnits="userSpaceOnUse" x1="250.3277" y1="480.8816" x2="250.3277" y2="189.4521">
			<stop  offset="0" style="stop-color:#235FAB"/>
			<stop  offset="0.4623" style="stop-color:#4089C8"/>
			<stop  offset="1" style="stop-color:#5FB7E7"/>
		</linearGradient>
		<path class="st19" d="M389.3,465.5c-7.2-63.1-49.1-115.2-106.8-130.2l-9.5-2.4l8.6-5c22-12.8,35.7-37.7,35.7-65
			c0-40.5-30-73.5-67-73.5c-37,0-67,33-67,73.5c0,27.3,13.7,52.2,35.7,65l8.6,5l-9.5,2.4c-57.7,14.9-99.6,67-106.8,130.1
			c-1,8.5,5.8,15.3,14.3,15.3l249.2,0C383.4,480.9,390.2,474,389.3,465.5z M250,474.4l-24.5-32l21-88.6l-14.5-18.3
			c5.6,1.8,11.7,2.9,18.1,2.9c6.4,0,12.6-1,18.1-2.9l-14.6,18.3l21,88.6L250,474.4z"/>
		<linearGradient id="SVGID_16_" gradientUnits="userSpaceOnUse" x1="317.922" y1="480.8816" x2="317.922" y2="189.4521">
			<stop  offset="0" style="stop-color:#808083"/>
			<stop  offset="1" style="stop-color:#221F1F"/>
		</linearGradient>
		<path class="st20" d="M389.3,465.5c-7.2-63.1-49.1-115.2-106.8-130.2l-9.5-2.4l8.6-5c22-12.8,35.7-37.7,35.7-65
			c0-40.5-30-73.5-67-73.5c-1.3,0-2.6,0.1-3.9,0.2c35.1,2.2,63.1,34.2,63.1,73.3c0,27.3-13.7,52.2-35.7,65l-8.6,5l9.5,2.4
			c57.7,14.9,99.6,67,106.8,130.2c0.9,8.4-5.8,15.3-14.3,15.3h7.7C383.4,480.9,390.2,474,389.3,465.5z"/>
	</g>
	<linearGradient id="SVGID_17_" gradientUnits="userSpaceOnUse" x1="312.149" y1="480.8816" x2="312.149" y2="189.4521">
		<stop  offset="0" style="stop-color:#221F1F"/>
		<stop  offset="1" style="stop-color:#808083"/>
	</linearGradient>
	<path class="st21" d="M389.3,465.5c-7.2-63.1-49.1-115.2-106.8-130.2l-9.5-2.4l8.6-5c22-12.8,35.7-37.7,35.7-65
		c0-40.5-30-73.5-67-73.5c-5.3,0-10.4,0.7-15.4,2c29.5,7.7,51.6,36.8,51.6,71.5c0,27.3-14.2,59.4-36.2,72.2l-4.9,2.8
		c1.5,0.1,3,0.4,4.5,0.4c2.8,0,5.5-0.3,8.1-0.6c0.4-0.1,0.7-0.2,1.1-0.1c0,0,0,0,0,0c3.1-0.5,6.1-1.2,8.9-2.1l-3.3,4.1
		c50.8,18.9,87,67.7,93.6,125.9c1,8.4-5.8,15.3-14.3,15.3h30.8C383.4,480.9,390.2,474,389.3,465.5z"/>
</g>
<linearGradient id="SVGID_18_" gradientUnits="userSpaceOnUse" x1="78.7897" y1="421.2103" x2="421.2104" y2="78.7896">
	<stop  offset="0" style="stop-color:#3D80C2"/>
	<stop  offset="1" style="stop-color:#54BFA0"/>
</linearGradient>
<path class="st22" d="M469,181.8v-47.3c0-6.8-3.6-13-9.5-16.4l-41-23.7c-5.9-3.4-13.1-3.4-19,0l-32.1,18.5c-5.9,3.4-13.1,3.4-19,0
	l-29.2-16.8c-5.9-3.4-9.5-9.6-9.5-16.4v-37c0-6.8-3.6-13-9.5-16.4l-41-23.7c-5.9-3.4-13.1-3.4-19,0l-41,23.7
	c-5.9,3.4-9.5,9.6-9.5,16.4v37c0,6.8-3.6,13-9.5,16.4l-29.2,16.8c-5.9,3.4-13.1,3.4-19,0l-32.1-18.5c-5.9-3.4-13.1-3.4-19,0
	l-41,23.7c-5.9,3.4-9.5,9.6-9.5,16.4v47.3c0,6.8,3.6,13,9.5,16.4l32.1,18.5c5.9,3.4,9.5,9.6,9.5,16.4v33.7c0,6.8-3.6,13-9.5,16.4
	l-32.1,18.5c-5.9,3.4-9.5,9.6-9.5,16.4v47.3c0,6.8,3.6,13,9.5,16.4l41,23.7c5.9,3.4,13.1,3.4,19,0l32.1-18.5c5.9-3.4,13.1-3.4,19,0
	l29.2,16.8c5.9,3.4,9.5,9.6,9.5,16.4v37c0,6.8,3.6,13,9.5,16.4l41,23.7c5.9,3.4,13.1,3.4,19,0l41-23.7c5.9-3.4,9.5-9.6,9.5-16.4v-37
	c0-6.8,3.6-13,9.5-16.4l29.2-16.8c5.9-3.4,13.1-3.4,19,0l32.1,18.5c5.9,3.4,13.1,3.4,19,0l41-23.7c5.9-3.4,9.5-9.6,9.5-16.4v-47.3
	c0-6.8-3.6-13-9.5-16.4l-32.1-18.5c-5.9-3.4-9.5-9.6-9.5-16.4v-33.7c0-6.8,3.6-13,9.5-16.4l32.1-18.5
	C465.4,194.8,469,188.6,469,181.8z M354.5,293.2l-22.1-12.7c-5.9-3.4-9.5-9.6-9.5-16.4V236c0-6.8,3.6-13,9.5-16.4l22.1-12.7
	c5.9-3.4,13.1-3.4,19,0l17.2,9.9c5.9,3.4,9.5,9.6,9.5,16.4v33.7c0,6.8-3.6,13-9.5,16.4l-17.2,9.9
	C367.6,296.6,360.4,296.6,354.5,293.2z M145.4,206.8l22.1,12.7c5.9,3.4,9.5,9.6,9.5,16.4V264c0,6.8-3.6,13-9.5,16.4l-22.1,12.7
	c-5.9,3.4-13.1,3.4-19,0l-17.2-9.9c-5.9-3.4-9.5-9.6-9.5-16.4v-33.7c0-6.8,3.6-13,9.5-16.4l17.2-9.9
	C132.4,203.4,139.6,203.4,145.4,206.8z M339.7,181.1l-22.1,12.7c-5.9,3.4-13.1,3.4-19,0l-39.2-22.6c-5.9-3.4-13.1-3.4-19,0
	l-39.2,22.6c-5.9,3.4-13.1,3.4-19,0l-22.1-12.7c-5.9-3.4-9.5-9.6-9.5-16.4v-19.8c0-6.8,3.6-13,9.5-16.4l29.2-16.8
	c5.9-3.4,13.1-3.4,19,0l32.1,18.5c5.9,3.4,13.1,3.4,19,0l32.1-18.5c5.9-3.4,13.1-3.4,19,0l29.2,16.8c5.9,3.4,9.5,9.6,9.5,16.4v19.8
	C349.2,171.4,345.5,177.7,339.7,181.1z M160.3,318.9l22.1-12.7c5.9-3.4,13.1-3.4,19,0l39.2,22.6c5.9,3.4,13.1,3.4,19,0l39.2-22.6
	c5.9-3.4,13.1-3.4,19,0l22.1,12.7c5.9,3.4,9.5,9.6,9.5,16.4v19.8c0,6.8-3.6,13-9.5,16.4l-29.2,16.8c-5.9,3.4-13.1,3.4-19,0
	L259.5,370c-5.9-3.4-13.1-3.4-19,0l-32.1,18.5c-5.9,3.4-13.1,3.4-19,0l-29.2-16.8c-5.9-3.4-9.5-9.6-9.5-16.4v-19.8
	C150.8,328.6,154.5,322.3,160.3,318.9z M388.4,135.2l11.2-6.5c5.9-3.4,13.1-3.4,19,0l11.2,6.5c5.9,3.4,9.5,9.6,9.5,16.4v13
	c0,6.8-3.6,13-9.5,16.4l-11.2,6.5c-5.9,3.4-13.1,3.4-19,0l-11.2-6.5c-5.9-3.4-9.5-9.6-9.5-16.4v-13
	C378.9,144.9,382.5,138.6,388.4,135.2z M229.3,43.4l11.2-6.5c5.9-3.4,13.1-3.4,19,0l11.2,6.5c5.9,3.4,9.5,9.6,9.5,16.4v13
	c0,6.8-3.6,13-9.5,16.4l-11.2,6.5c-5.9,3.4-13.1,3.4-19,0l-11.2-6.5c-5.9-3.4-9.5-9.6-9.5-16.4v-13C219.8,53,223.4,46.8,229.3,43.4z
	 M70.2,135.2l11.2-6.5c5.9-3.4,13.1-3.4,19,0l11.2,6.5c5.9,3.4,9.5,9.6,9.5,16.4v13c0,6.8-3.6,13-9.5,16.4l-11.2,6.5
	c-5.9,3.4-13.1,3.4-19,0l-11.2-6.5c-5.9-3.4-9.5-9.6-9.5-16.4v-13C60.7,144.9,64.3,138.6,70.2,135.2z M111.6,364.8l-11.2,6.5
	c-5.9,3.4-13.1,3.4-19,0l-11.2-6.5c-5.9-3.4-9.5-9.6-9.5-16.4v-13c0-6.8,3.6-13,9.5-16.4l11.2-6.5c5.9-3.4,13.1-3.4,19,0l11.2,6.5
	c5.9,3.4,9.5,9.6,9.5,16.4v13C121.1,355.1,117.5,361.4,111.6,364.8z M270.7,456.6l-11.2,6.5c-5.9,3.4-13.1,3.4-19,0l-11.2-6.5
	c-5.9-3.4-9.5-9.6-9.5-16.4v-13c0-6.8,3.6-13,9.5-16.4l11.2-6.5c5.9-3.4,13.1-3.4,19,0l11.2,6.5c5.9,3.4,9.5,9.6,9.5,16.4v13
	C280.2,447,276.6,453.2,270.7,456.6z M429.8,364.8l-11.2,6.5c-5.9,3.4-13.1,3.4-19,0l-11.2-6.5c-5.9-3.4-9.5-9.6-9.5-16.4v-13
	c0-6.8,3.6-13,9.5-16.4l11.2-6.5c5.9-3.4,13.1-3.4,19,0l11.2,6.5c5.9,3.4,9.5,9.6,9.5,16.4v13C439.3,355.1,435.7,361.4,429.8,364.8z
	"/>
<g id="D1">
	<defs>
		<filter id="Adobe_OpacityMaskFilter_2_" filterUnits="userSpaceOnUse" x="38.1" y="446.2" width="430.9" height="51.9">
			<feFlood  style="flood-color:white;flood-opacity:1" result="back"/>
			<feBlend  in="SourceGraphic" in2="back" mode="normal"/>
		</filter>
	</defs>
	<mask maskUnits="userSpaceOnUse" x="38.1" y="446.2" width="430.9" height="51.9" id="SVGID_19_">
		<g class="st23">
			<defs>
				<filter id="Adobe_OpacityMaskFilter_3_" filterUnits="userSpaceOnUse" x="38.1" y="446.2" width="430.9" height="51.9">
					<feFlood  style="flood-color:white;flood-opacity:1" result="back"/>
					<feBlend  in="SourceGraphic" in2="back" mode="normal"/>
				</filter>
			</defs>
			<mask maskUnits="userSpaceOnUse" x="38.1" y="446.2" width="430.9" height="51.9" id="SVGID_19_">
				<g class="st24">
				</g>
			</mask>
			
				<radialGradient id="SVGID_20_" cx="253.5464" cy="1722.2046" r="215.4993" gradientTransform="matrix(1 0 0 0.1203 0 264.9659)" gradientUnits="userSpaceOnUse">
				<stop  offset="0" style="stop-color:#999999"/>
				<stop  offset="0.1268" style="stop-color:#8E8E8E"/>
				<stop  offset="0.3466" style="stop-color:#727272"/>
				<stop  offset="0.6328" style="stop-color:#444444"/>
				<stop  offset="0.9714" style="stop-color:#060606"/>
				<stop  offset="1" style="stop-color:#000000"/>
			</radialGradient>
			<path class="st25" d="M469,472.2c0,14.3-96.5,25.9-215.5,25.9c-119,0-215.4-11.6-215.4-25.9c0-14.3,96.5-25.9,215.4-25.9
				C372.5,446.2,469,457.8,469,472.2z"/>
		</g>
	</mask>
	
		<radialGradient id="SVGID_21_" cx="253.5464" cy="1722.2046" r="215.4993" gradientTransform="matrix(1 0 0 0.1203 0 264.9659)" gradientUnits="userSpaceOnUse">
		<stop  offset="0" style="stop-color:#606263"/>
		<stop  offset="0.1232" style="stop-color:#6B6C6D"/>
		<stop  offset="0.3365" style="stop-color:#878889"/>
		<stop  offset="0.6145" style="stop-color:#B5B5B6"/>
		<stop  offset="0.9431" style="stop-color:#F3F4F4"/>
		<stop  offset="1" style="stop-color:#FFFFFF"/>
	</radialGradient>
	<path class="st26" d="M469,472.2c0,14.3-96.5,25.9-215.5,25.9c-119,0-215.4-11.6-215.4-25.9c0-14.3,96.5-25.9,215.4-25.9
		C372.5,446.2,469,457.8,469,472.2z"/>
	<g>
		<g>
			<linearGradient id="SVGID_22_" gradientUnits="userSpaceOnUse" x1="251.0853" y1="-23.09" x2="270.3364" y2="466.7522">
				<stop  offset="0" style="stop-color:#30BFEF"/>
				<stop  offset="1" style="stop-color:#233E82"/>
			</linearGradient>
			<path class="st27" d="M151.4,247.3c-19.2-57.2,8.9-116.6,65.3-138.2c48.4-18.5,106.3,2.6,131.9,47.9c4.2,7.4,7.1,15.4,10,23.2
				c3.9,10.7,8,21.7,15.2,31c1.3,1.7,1.8,3.7,1.5,5.8c-0.4,2.3-1.7,4.3-3.9,5.7c-3.9,2.5-8.2,1.5-11.2-2.6
				c-3.8-5.2-7.8-11-10.7-17.5c-2.2-5-4.2-10.3-6-15.3c-3.5-9.6-7.2-19.6-13.2-28.3c-25.5-37.2-73.1-50-115.7-31.2
				c-18.4,8.1-33.7,23.2-43.2,42.6c-9.5,19.4-12.1,41.1-7.2,60.8c7.2,29.3,20.6,58.3,42.1,91.3c2.2,3.4,4.6,6.8,6.9,10
				c1.8,2.6,3.7,5.2,5.5,7.8c2.8,4.1,2.3,8.5-1.3,11.5c-0.5,0.4-0.9,0.7-1.4,0.9c-3.2,1.7-6.7,0.9-10-2.4c-1.3-1.3-2.6-2.9-4.1-4.7
				c-10.1-13.2-18.4-26.5-25.5-40.6C165.1,286,157.4,265.2,151.4,247.3z"/>
			<linearGradient id="SVGID_23_" gradientUnits="userSpaceOnUse" x1="230.2957" y1="-22.2729" x2="249.5468" y2="467.5696">
				<stop  offset="0" style="stop-color:#30BFEF"/>
				<stop  offset="1" style="stop-color:#233E82"/>
			</linearGradient>
			<path class="st28" d="M112.3,226c1.5,14,5.9,27.6,10.1,40.7l1.3,4.1c1.6,4.9,0.4,8.7-3.2,10.7c-0.4,0.2-0.9,0.4-1.3,0.6
				c-3.5,1.3-8.2,1.2-11.1-6.2c-16.4-42.4-17.3-81.7-2.7-120c16.5-43.4,48.8-76.3,90.8-92.9c42-16.5,88-14.3,129.5,6.1
				c20.4,10,37.9,24.1,52.1,41.6l0.1,0.1c2.2,3.4,4.5,8.4-0.3,12.5c-5.3,4.5-10.3-0.1-12-1.7c-0.7-0.6-1.3-1.3-1.8-2l-0.3-0.4
				c-22-26.2-52.7-43.6-86.3-48.9c-32.5-5.1-65.8,1-93.9,17.2C134.8,115.6,106.2,171.2,112.3,226z"/>
			<linearGradient id="SVGID_24_" gradientUnits="userSpaceOnUse" x1="287.3812" y1="-24.5163" x2="306.6322" y2="465.3245">
				<stop  offset="0" style="stop-color:#30BFEF"/>
				<stop  offset="1" style="stop-color:#233E82"/>
			</linearGradient>
			<path class="st29" d="M222.7,223c-2.9-8.8-2.7-17,0.7-24.6c6-13.5,17.8-21,32.4-20.6c14.4,0.4,26.2,9.6,30.7,24.2
				c7.6,24.3,19.7,46.4,35.8,65.6c1.8,2.1,4,5.3,3.7,8.7c-0.2,2-1.3,3.8-3.2,5.3c-6.5,5.2-11.8-1.3-13.5-3.4
				c-12.3-15.3-21-28.8-27.4-42.5c-2.3-5-4.3-10.2-6.2-15.3c-2.1-5.5-4.3-11.2-6.9-16.6c-4.2-8.7-12.2-11.7-21.5-7.9
				c-7.4,3-11.6,12.3-9.1,20.1c3.2,9.8,6.5,19.8,11,29.4c25.9,54.8,66.5,95.3,120.8,120.3c2.9,1.3,5,2.7,6.7,4.2
				c2.7,2.5,3.2,6,1.3,9.4c-0.8,1.4-1.8,2.5-3,3.1c-1.6,0.9-3.6,1.1-5.7,0.6c-2-0.5-3.8-1.3-5.5-2.1l-0.3-0.2
				c-51.7-23.4-92.2-60.8-120.6-111.3C233.4,253.5,227.1,236.2,222.7,223z"/>
			<linearGradient id="SVGID_25_" gradientUnits="userSpaceOnUse" x1="296.3108" y1="-24.8674" x2="315.5619" y2="464.9743">
				<stop  offset="0" style="stop-color:#30BFEF"/>
				<stop  offset="1" style="stop-color:#233E82"/>
			</linearGradient>
			<path class="st30" d="M449.2,198.8c-17.1-6.6-28.8-19.4-34.8-37.9c-1.9-5.7-4.3-11.2-6.7-16.6c-2-4.4-4-9-5.6-13.7
				c-0.9-1.4-1.9-2.8-2.8-4.2c-2-3.1-4-6-6-8.9C356.1,65,304.8,40.3,240.9,44.1c-30.1,1.8-57.8,11.8-82.4,29.6
				c-3.4,2.5-9.7,7.1-14.7,0.4c-1.4-1.9-2-3.9-1.7-5.9c0.4-2.6,2.3-5,5.9-7.5c28.4-19.8,60.2-31,94.6-33.3c39.2-2.6,79.4,8,113,30.1
				c35.4,23.1,60.9,56.4,73.7,96.3c5,15.4,13.4,25,25.9,29.6c3.4,1.3,5.7,3,6.7,5.3c0.8,1.9,0.8,4-0.2,6.4c-0.9,2.2-2.1,3.5-3.5,4.2
				C455.1,201.1,450.9,199.4,449.2,198.8z"/>
			<linearGradient id="SVGID_26_" gradientUnits="userSpaceOnUse" x1="98.6179" y1="-17.0978" x2="117.869" y2="472.7446">
				<stop  offset="0" style="stop-color:#30BFEF"/>
				<stop  offset="1" style="stop-color:#233E82"/>
			</linearGradient>
			<path class="st31" d="M83.5,282c-22-59.4-16.9-116.2,14.9-168.8c5.8-9.7,12.8-18.8,20.8-27c4.7-5,9.2-5.6,13.2-1.8
				c4.9,4.6,1.3,9.4-1.1,12.6c-0.7,1-1.5,1.9-2.3,2.8c-0.4,0.4-0.8,0.9-1.1,1.3c-28.2,33.1-42.1,71.6-41.3,114.4
				c0.7,35.5,13.9,67.9,28.1,97.6c11.1,23.3,22.5,43,34.9,60.2c3.5,4.9,3.1,9.5-1.1,12.7c-0.4,0.3-0.8,0.5-1.2,0.8
				c-2.7,1.5-6.4,1.7-10.6-3.4c-1.7-2-3.3-4.2-4.6-6.1c-8.5-11.8-15.6-24.7-22.7-38C98.6,322,90.7,301.5,83.5,282z"/>
			<linearGradient id="SVGID_27_" gradientUnits="userSpaceOnUse" x1="316.3053" y1="-25.653" x2="335.5564" y2="464.1887">
				<stop  offset="0" style="stop-color:#30BFEF"/>
				<stop  offset="1" style="stop-color:#233E82"/>
			</linearGradient>
			<path class="st32" d="M318.3,191.1c-6.4-19.4-20.6-34.8-39-42.2c-18.1-7.3-38.6-6.2-56.3,3.1c-0.7,0.4-1.4,0.8-2.2,1.2
				c-3,1.8-6.3,3.7-9.6,2.8c-2-0.6-3.6-2.2-4.9-4.8c-3.5-6.9,1.9-10,5.8-12.2c1.1-0.6,2.1-1.2,3-1.8l0.1-0.1l0.1-0.1
				c7.4-3.4,15.5-6.8,24.4-8.2c43-6.9,81.2,16.8,95.2,58.9c11.3,34.2,32.5,60.9,63,79.2c12.3,7.4,25.7,12.8,39.9,16.1
				c2.9,0.7,10.6,2.5,8.7,10.8c-0.6,2.5-1.7,4.2-3.3,5.2c-0.1,0.1-0.2,0.1-0.3,0.2c-2.6,1.4-5.9,0.8-9.1,0l-0.3-0.1
				c-0.4-0.1-0.8-0.2-1.2-0.3C375.1,283.1,336.8,246.9,318.3,191.1z"/>
			<linearGradient id="SVGID_28_" gradientUnits="userSpaceOnUse" x1="233.7989" y1="-22.4105" x2="253.05" y2="467.4306">
				<stop  offset="0" style="stop-color:#30BFEF"/>
				<stop  offset="1" style="stop-color:#233E82"/>
			</linearGradient>
			<path class="st33" d="M172.7,229.3c-5.4-20.5-2.1-41.1,9.9-61.2c3.6-6.1,8.2-5.4,11.4-3.8c3.1,1.6,6.1,4.9,2.9,11.7
				c-0.6,1.3-1.3,2.6-2,3.8l-0.2,0.3c-8.5,15.6-10.2,32.4-5.1,49.9c4.7,15.9,10.5,30.4,17.8,44.3l0.1,0.2c2.2,5.9,5.7,11.6,9.4,17.6
				c1.2,1.9,2.4,3.8,3.5,5.8c17.7,29.7,40.9,55.6,71,79.2c6.2,4.8,12.9,9.2,19.3,13.4c2.4,1.6,4.9,3.2,7.3,4.8
				c5.3,3.6,6.5,7.6,3.6,12.1c-0.9,1.3-1.9,2.3-3.1,3c-2.5,1.4-5.7,1-9.5-1.1c-0.7-0.4-1.4-0.8-2-1.2c-0.4-0.3-0.8-0.5-1.2-0.8
				c-20.8-12.6-40.5-28.6-58.7-47.4C210.6,321.6,185.5,277.7,172.7,229.3z"/>
			<linearGradient id="SVGID_29_" gradientUnits="userSpaceOnUse" x1="211.7304" y1="-21.5434" x2="230.9815" y2="468.299">
				<stop  offset="0" style="stop-color:#30BFEF"/>
				<stop  offset="1" style="stop-color:#233E82"/>
			</linearGradient>
			<path class="st34" d="M346.9,32.3c-0.9,2-2,3.2-3.2,3.9c-3,1.6-6.8,0.2-9.6-0.9l-0.8-0.3c-2.4-0.9-4.7-1.9-7-2.8
				c-4.3-1.8-8.7-3.6-13.2-4.9c-72-20.5-136.6-5.6-191.9,44.3c-7.6,6.9-14.1,15-20.5,22.8C99.5,96,98.2,97.5,97,99
				c-2.2,2.7-5.1,4.2-7.8,3.9c-2.4-0.2-4.4-1.6-5.7-3.9l0,0l0,0c-1.8-3.5-1.3-7,1.6-10.7c1-1.3,1.9-2.5,2.9-3.8
				c2.9-3.9,6-7.9,9.3-11.6c36.7-40.5,82.2-64,135.5-69.8c36.8-4,72.8,1.7,107.2,17.1C342.9,21.7,350.1,24.9,346.9,32.3z"/>
			<linearGradient id="SVGID_30_" gradientUnits="userSpaceOnUse" x1="171.8952" y1="-19.9776" x2="191.1462" y2="469.8633">
				<stop  offset="0" style="stop-color:#30BFEF"/>
				<stop  offset="1" style="stop-color:#233E82"/>
			</linearGradient>
			<path class="st35" d="M139.4,287c-8.1-20-16.6-40.6-18.6-62.9c-0.9-10.1-0.8-19,0.3-27.3c0.3-2.1,0.8-4.7,2.3-6.7
				c1.6-2.2,4.1-3,7.2-2.6c7.6,1.1,6.9,8.4,6.7,10.8c-0.2,1.9-0.3,3.8-0.4,5.9c-0.7,14.1,0.5,26.1,3.6,36.8
				c18.6,62.8,52.8,116.8,101.6,160.3c2.1,1.9,4.3,3.8,5.9,6.1c2.4,3.3,2.1,7.1-0.7,10.2c-0.6,0.7-1.3,1.2-2,1.6
				c-2.2,1.2-4.7,1.1-7.4-0.2c-2.3-1.2-4.3-2.8-5.8-4.1c-32.1-28.1-57.5-60.1-80-100.7C149.2,309.3,144.5,299.4,139.4,287z"/>
			<linearGradient id="SVGID_31_" gradientUnits="userSpaceOnUse" x1="357.4035" y1="-27.2683" x2="376.6546" y2="462.574">
				<stop  offset="0" style="stop-color:#30BFEF"/>
				<stop  offset="1" style="stop-color:#233E82"/>
			</linearGradient>
			<path class="st36" d="M366.7,177c-11.3-33.8-31.9-57.5-62.9-72.4c-9.1-4.3-18.5-6.9-27.5-9.1c-7.2-1.8-7.8-6.3-6.9-9.8
				c0.8-3.4,3.3-7.2,10.5-5.9c1.6,0.3,3.1,0.7,4.5,1c49.2,12.8,82.2,43.3,97.9,90.7c8.9,26.8,26.6,46.3,52.6,57.9
				c5.5,2.4,11.5,4.3,19.1,5.8c4.2,0.8,6.6,3.5,7,7.4c0.3,3.3-1.1,6-3.9,7.8l0,0c-0.1,0.1-0.2,0.1-0.3,0.2c-3.1,1.7-6.3,0.9-9,0.2
				l-0.6-0.1C406.7,240.4,379.6,215.7,366.7,177z"/>
			<linearGradient id="SVGID_32_" gradientUnits="userSpaceOnUse" x1="311.5942" y1="-25.4679" x2="330.8453" y2="464.3733">
				<stop  offset="0" style="stop-color:#30BFEF"/>
				<stop  offset="1" style="stop-color:#233E82"/>
			</linearGradient>
			<path class="st37" d="M263.9,256.1L263.9,256.1c-0.7-1.5-1.5-3.1-2.4-4.7c-2-4-4.3-8.5-6.2-13.1c-0.6-1.5-1.2-3-1.9-4.5
				c-2.6-6.3-5.4-12.9-6.8-19.8c-1.5-7.3,2.6-9.5,5.2-10.2c4.5-1.2,8.2,0.8,10.2,5.5c0.6,1.4,1.2,2.8,1.7,4.2
				c5.7,17,13,32.4,22.3,47.1c17,27.1,39.9,50,68,68.1c11.6,7.5,24.5,13.9,39.4,19.7c2.7,1,9.8,3.8,7.1,11.3c-0.8,2.2-2,3.8-3.6,4.6
				c-0.7,0.4-1.4,0.6-2.3,0.8c-2.5,0.4-5.2-0.4-7.3-1.2c-0.4-0.1-0.8-0.3-1.2-0.5l-0.3-0.1C332.4,342.1,292.6,307,263.9,256.1
				L263.9,256.1z"/>
			<linearGradient id="SVGID_33_" gradientUnits="userSpaceOnUse" x1="56.0786" y1="-15.426" x2="75.3297" y2="474.4152">
				<stop  offset="0" style="stop-color:#30BFEF"/>
				<stop  offset="1" style="stop-color:#233E82"/>
			</linearGradient>
			<path class="st38" d="M68.6,308.4c-0.4-0.8-0.9-1.6-1.3-2.4l0-0.1c-7.5-15.2-12.9-29.8-16.4-44.6c-11.3-47.4-6.6-94.1,14-138.9
				c1.5-3.3,4.7-10.1,12.1-7.1c2.2,0.9,3.6,2.2,4.3,3.9c1.2,3-0.2,6.4-1.5,9.5l-0.1,0.2c-0.2,0.4-0.4,0.8-0.6,1.2
				c-0.1,0.3-0.3,0.6-0.4,0.8c-22.1,49.6-23.3,100.9-3.6,152.4c1.8,4.8,4.2,9.3,6.5,13.8c1.5,3,3.1,6,4.6,9.1
				c2.5,5.4,1.4,9.8-2.9,12.2c-0.1,0.1-0.3,0.1-0.4,0.2c-2.5,1.2-7.2,2.2-11.3-4.6C70.6,312.1,69.6,310.2,68.6,308.4z"/>
			<linearGradient id="SVGID_34_" gradientUnits="userSpaceOnUse" x1="239.6273" y1="-22.6394" x2="258.8784" y2="467.2022">
				<stop  offset="0" style="stop-color:#30BFEF"/>
				<stop  offset="1" style="stop-color:#233E82"/>
			</linearGradient>
			<path class="st39" d="M215.8,273.3l-0.1-0.1c-1.5-3.5-3.1-7.1-4.6-10.6C205.6,250,199.8,237,197,223
				c-3.7-18.4,1.2-36.8,13.5-50.7c12.3-13.8,30-20.9,48.7-19.3c14.4,1.2,26.8,7,37,17.3c1.9,1.9,4.4,4.9,4.4,8.3
				c0,2-0.9,3.9-2.7,5.6c-5.7,5.5-11.4,0-13.2-1.8c-2.1-2.1-4.1-3.8-6.1-5.3c-13.4-10.1-33.1-10.6-46.9-1.1
				c-16,11-22.9,28.4-18.2,45.3c3.8,13.7,9.3,27.6,17.8,45.1c0.4,0.8,0.9,1.6,1.4,2.5c1.7,2.9,3.6,6.2,2.6,9.5
				c-0.6,1.8-1.9,3.3-4.2,4.5c-0.2,0.1-0.3,0.2-0.5,0.3c-7.3,3.7-10.3-1.9-12.7-6.3c-0.6-1.1-1.3-2.3-1.9-3.3L215.8,273.3z"/>
			<linearGradient id="SVGID_35_" gradientUnits="userSpaceOnUse" x1="355.1167" y1="-27.1785" x2="374.3678" y2="462.6635">
				<stop  offset="0" style="stop-color:#30BFEF"/>
				<stop  offset="1" style="stop-color:#233E82"/>
			</linearGradient>
			<path class="st40" d="M300,214.2c-1.7-4.5-4.3-11.2,3-14.2c7.8-3.1,11.1,4.9,12.3,7.9c15.2,36.8,41.1,65.3,77.2,84.8
				c11.6,6.3,23.9,10.3,35.4,13.7c5.3,1.6,7.6,5.3,6.4,10.3c-0.6,2.5-1.9,4.3-3.7,5.3c-1.8,1-4.1,1.2-6.8,0.6
				c-1.9-0.4-3.7-0.9-5.2-1.4c-48.1-14.7-85.1-44.4-110-88.3C305,226.7,302.3,220.3,300,214.2z"/>
			<linearGradient id="SVGID_36_" gradientUnits="userSpaceOnUse" x1="403.1713" y1="-29.0672" x2="422.4224" y2="460.7745">
				<stop  offset="0" style="stop-color:#30BFEF"/>
				<stop  offset="1" style="stop-color:#233E82"/>
			</linearGradient>
			<path class="st41" d="M445,167.3c-3.1-1.6-4.3-5.4-5.4-8.8l-0.2-0.5c-0.1-0.2-0.1-0.4-0.2-0.5c-0.1-0.3-0.2-0.6-0.3-0.9
				c-12.1-41.6-36.3-76-72.1-102.4l-0.4-0.3c-1.5-1.1-3.1-2.3-4.4-3.7c-2.6-3-2.9-6.4-0.7-9.4c2.5-3.4,6.1-4.4,9.8-2.7
				c2.1,1,4,2.3,6,3.7c25,17.7,45.5,40.8,60.8,68.5l0,0c8,14.6,13.8,28.5,17.8,42.5l0.1,0.2c1.2,4.3,3,10.6-2.6,13.7
				c-0.5,0.3-1.1,0.6-1.8,0.8C448.8,168.2,446.7,168.2,445,167.3z"/>
			<linearGradient id="SVGID_37_" gradientUnits="userSpaceOnUse" x1="185.7901" y1="-20.5236" x2="205.0412" y2="469.3183">
				<stop  offset="0" style="stop-color:#30BFEF"/>
				<stop  offset="1" style="stop-color:#233E82"/>
			</linearGradient>
			<path class="st42" d="M134.6,151.2c13.2-25.6,31.8-44.7,55.2-56.8c1-0.6,2-1.1,3.1-1.7c2.2-1.3,4.5-2.6,6.9-3.7
				c13.5-6.2,28-10,43.2-11.3c3.2-0.3,5.7,0.4,7.5,1.9c1.6,1.3,2.4,3.3,2.6,5.8c0.2,2.9-0.6,7.8-8.5,8.5l-0.2,0
				c-1.4,0.1-2.8,0.3-4.2,0.5c-42.8,6.6-73.9,29.3-92.5,67.4c-0.2,0.5-0.5,1-0.7,1.4c-0.7,1.6-1.5,3.2-2.5,4.7
				c-0.8,1.3-1.9,2.2-3,2.9c-2,1.1-4.3,1.2-6.7,0.3c-3.8-1.5-5.6-5.1-4.5-9.2C131.2,158.6,132.6,155,134.6,151.2z"/>
			<linearGradient id="SVGID_38_" gradientUnits="userSpaceOnUse" x1="280.0453" y1="-24.2279" x2="299.2963" y2="465.6135">
				<stop  offset="0" style="stop-color:#30BFEF"/>
				<stop  offset="1" style="stop-color:#233E82"/>
			</linearGradient>
			<path class="st43" d="M238.1,309.5L238.1,309.5c-3-4.7-2.5-9,1.4-12c3.7-2.9,8-2.3,11.4,1.7c1.8,2.1,3.5,4.3,5.1,6.4
				c1.1,1.4,2.2,2.8,3.3,4.2c23.7,29.7,52.6,53.8,86.1,71.6c3.6,1.9,10.4,5.5,6.8,12.9c-0.9,1.9-2.1,3.3-3.5,4.1
				c-0.3,0.2-0.6,0.3-1,0.4c-3.2,1.1-6.6-0.7-9.6-2.2l-0.8-0.4c-8.7-4.4-17.8-9.9-28.4-17.2C280.7,359.6,256.9,336.2,238.1,309.5z"
				/>
			<linearGradient id="SVGID_39_" gradientUnits="userSpaceOnUse" x1="148.1584" y1="-19.0451" x2="167.4094" y2="470.7962">
				<stop  offset="0" style="stop-color:#30BFEF"/>
				<stop  offset="1" style="stop-color:#233E82"/>
			</linearGradient>
			<path class="st44" d="M121.3,301.1c0.7-1.7,2.2-3.1,4.4-4c2.3-0.9,4.4-1,6.4-0.2c2.5,1,4.5,3.5,6,7.1c2.4,6,5.3,11.8,8.4,17.4
				c17.2,29.8,34.9,54.1,54,74.3c2.2,2.4,7.5,7.9,1.9,13.8c-0.8,0.8-1.6,1.5-2.4,1.9c-1.1,0.6-2.2,0.9-3.4,0.9c-2.6,0-5.2-1.5-8-4.6
				c-29.6-32.4-51.1-64.1-65.7-97C121.4,307.4,120.1,304.1,121.3,301.1z"/>
			<linearGradient id="SVGID_40_" gradientUnits="userSpaceOnUse" x1="414.1942" y1="-29.5002" x2="433.4452" y2="460.3417">
				<stop  offset="0" style="stop-color:#30BFEF"/>
				<stop  offset="1" style="stop-color:#233E82"/>
			</linearGradient>
			<path class="st45" d="M449.8,225.2c-22.6-5.6-40.1-19.4-53.6-41.9l-0.1-0.1l-3.5-8.9c-3.3-8.4-6.9-17.8-10.5-27.2
				c-1.5-4-0.4-7.7,3.1-9.7c3.3-1.9,6.9-1.4,10.1,1.3c2.8,2.4,4.1,5.6,5.3,9c0.9,2.5,1.8,5,2.6,7.6c1.8,5.2,3.6,10.6,5.8,15.6
				c9,20.1,24.3,33.1,45.4,38.6c3.3,0.8,7.3,1.9,8.6,6.5c0.8,3.1-0.1,6.1-2.6,8.3c-0.5,0.4-0.9,0.7-1.4,1c-2.9,1.6-6.1,0.8-8.7,0.1
				L449.8,225.2z"/>
			<linearGradient id="SVGID_41_" gradientUnits="userSpaceOnUse" x1="362.6456" y1="-27.4743" x2="381.8966" y2="462.3671">
				<stop  offset="0" style="stop-color:#30BFEF"/>
				<stop  offset="1" style="stop-color:#233E82"/>
			</linearGradient>
			<path class="st46" d="M335.3,304l-0.2-0.2c-3.1-4.2-3-8.2,0.2-11.3c5.3-5.2,10.9-0.8,12.7,0.7c20.1,16.1,40.8,27.4,63.1,34.5
				c2.8,0.9,6.2,2.3,7.6,5.2c0.9,1.8,0.9,3.9,0.1,6.3c-0.9,2.4-2.1,3.8-3.6,4.6c-3.4,1.9-7.8,0.3-9.6-0.3
				c-17.2-6.1-30.8-12.2-42.6-19.4C354.1,318.8,343.8,312.2,335.3,304z"/>
			<linearGradient id="SVGID_42_" gradientUnits="userSpaceOnUse" x1="407.1188" y1="-29.2219" x2="426.37" y2="460.6214">
				<stop  offset="0" style="stop-color:#30BFEF"/>
				<stop  offset="1" style="stop-color:#233E82"/>
			</linearGradient>
			<path class="st47" d="M384.7,247.1c-4.1-3.5-4.6-8-1.4-12.1c2.9-3.7,7.2-3.9,11.5-0.6c16.3,12.7,34.5,21.3,54,25.5
				c1.4,0.3,2.8,1.1,4,2.2c1.8,1.7,2.6,4,2.3,6.5c-0.3,2.8-2,5.2-4.5,6.6l-0.3,0.2l-0.4,0c-0.2,0-0.5,0.1-0.9,0.1
				c-1.1,0.2-2.5,0.4-3.9,0.1C422.6,271.5,402.2,261.8,384.7,247.1z"/>
			<linearGradient id="SVGID_43_" gradientUnits="userSpaceOnUse" x1="241.209" y1="-22.7014" x2="260.4601" y2="467.1402">
				<stop  offset="0" style="stop-color:#30BFEF"/>
				<stop  offset="1" style="stop-color:#233E82"/>
			</linearGradient>
			<path class="st48" d="M229.4,377.5c-0.7-0.7-1.3-1.4-1.9-2l-0.2-0.3c-2.6-4.4-2.2-8.3,1.2-11.5c2.8-2.7,6.5-2.8,10.2-0.4
				c1.7,1.1,3.1,2.6,4.5,4l0.2,0.2c12.9,13.2,25.9,24.3,39.6,34.2c3,2.1,5.9,4.5,6.4,7.7c0.3,1.9-0.3,4-1.9,6c-1,1.3-1.9,2.1-3,2.7
				c-4.3,2.4-8.9-1-11.6-3c-13.3-9.7-26.1-20.5-38.1-32C232.8,381.2,230.9,379.3,229.4,377.5z"/>
		</g>
	</g>
</g>
</svg>
