<svg xmlns="http://www.w3.org/2000/svg" xmlns:xlink="http://www.w3.org/1999/xlink" viewBox="0 0 316.16 184.43"><defs><style>.cls-1{fill:url(#radial-gradient);}.cls-2{fill:url(#radial-gradient-2);}</style><radialGradient id="radial-gradient" cx="161.32" cy="103.45" r="118.16" gradientUnits="userSpaceOnUse"><stop offset="0.2" stop-color="#f39800"/><stop offset="1" stop-color="#964f00"/></radialGradient><radialGradient id="radial-gradient-2" cx="158.08" cy="80.98" r="125.59" gradientUnits="userSpaceOnUse"><stop offset="0" stop-color="#f6ad3c"/><stop offset="1" stop-color="#f39800"/></radialGradient></defs><title>Isotipo Naranja</title><g id="Layer_2" data-name="Layer 2"><g id="Card_A"><g id="Group"><path class="cls-1" d="M201.49,184.35v.08h0c-54,0-67.37-37.52-80.33-73.87-2.54-7.12-5-14.17-7.92-20.62h0q-1-2.24-2.05-4.37l-.08-.16c-.34-.66-.67-1.32-1-2l0-.07-.35-.64,0-.06C103.37,71.27,94.4,61.5,79,61.5h0l0-.09c-8.43,0-17,3.47-23.9,9.08S42.88,83.78,40.86,92.21h0c-2,8.44-.39,16.12,3.88,21.72,4,5.3,10.37,8.69,18.18,9s15.13-2.2,18.68-3.82a60.23,60.23,0,0,1-25.78,6.09c-21.95,0-37.4-13.72-40.21-33a48.85,48.85,0,0,1,1-18.5,66.55,66.55,0,0,1,17.77-31c16.1-12.91,35.78-20.17,54-20.17l0-.08h0C135,22.47,147,56,159.3,90.6c.69,1.93,1.39,3.88,2.09,5.82h0c2.26,6.24,4.62,12.41,7.34,18.16l.06.11c.16.33.31.66.48,1l0,.06.48,1,.08.15c.16.31.31.63.48.94l0,.06c8.4,16.22,21.46,28.19,42.1,27.6,13-.38,26.84-5.79,38.15-15.25a72.12,72.12,0,0,0,23.91-38h0c3.57-14.89,1.22-28.32-5.71-38-12.1-16.88-37.55-20-60.1-8C215,42.73,227.08,35.69,249,35.5c35,0,58.46,24.17,58.52,56.72h0a79.59,79.59,0,0,1-6.57,31A127.71,127.71,0,0,1,272.38,157c-21.2,17.73-46.46,27.31-70.89,27.31Z"/><path class="cls-2" d="M185.17,18.83C202.12,7.41,221.64,0,245.63,0h0V.08c25.67,0,45.72,10.44,57.81,27.32,11.93,16.64,16,39.56,10,64.81h0a115.63,115.63,0,0,1-12.47,31,85,85,0,0,0,4.46-13.5,74,74,0,0,0,2.11-17.46h0C307.43,59.67,283.92,35.5,249,35.5c-21.89.19-33.93,7.23-40.25,10.75l1.17-.61c-14.19,7.24-26.7,19.61-38.61,33.18-14.51,16.53-27.75,34-43.56,49.53C107.85,147.85,85.32,162,55,162h0l0-.08c-19.3,0-34.87-7.78-44.44-20.36S-2.62,111.52,2,92.22H2c4.42-18.5,16.1-36.48,32.39-49.49a66.55,66.55,0,0,0-17.77,31,48.85,48.85,0,0,0-1,18.5c2.81,19.32,18.26,33,40.21,33,16.56,0,33.15-7.81,45.49-19.94,10.86-9.86,20.21-21.41,29.63-32.49,16.55-19.47,32.49-39.36,54.24-54Z"/></g></g></g></svg>