<?xml version="1.0" encoding="utf-8"?>
<!-- Generator: Adobe Illustrator 22.1.0, SVG Export Plug-In . SVG Version: 6.00 Build 0)  -->
<svg version="1.1" id="Modules" xmlns="http://www.w3.org/2000/svg" xmlns:xlink="http://www.w3.org/1999/xlink" x="0px" y="0px"
	 viewBox="0 0 500 500" style="enable-background:new 0 0 500 500;" xml:space="preserve">
<style type="text/css">
	.st0{display:none;}
	.st1{display:inline;filter:url(#Adobe_OpacityMaskFilter);}
	.st2{filter:url(#Adobe_OpacityMaskFilter_1_);}
	.st3{mask:url(#SVGID_1_);fill:url(#SVGID_2_);}
	.st4{display:inline;fill:url(#SVGID_3_);}
	.st5{display:inline;fill:url(#SVGID_4_);}
	.st6{display:inline;fill:#25A9E0;}
	.st7{display:inline;fill:#006DA5;}
	.st8{fill:url(#SVGID_5_);}
	.st9{fill:url(#SVGID_6_);}
	.st10{display:inline;}
	.st11{fill:url(#SVGID_7_);}
	.st12{fill:url(#SVGID_8_);}
	.st13{fill:url(#SVGID_9_);}
	.st14{opacity:0.5;fill:url(#SVGID_10_);}
	.st15{fill:url(#SVGID_11_);}
	.st16{opacity:0.25;fill:url(#SVGID_12_);}
	.st17{fill:url(#SVGID_13_);}
	.st18{opacity:0.25;fill:url(#SVGID_14_);}
	.st19{fill:url(#SVGID_15_);}
	.st20{opacity:0.5;fill:url(#SVGID_16_);}
	.st21{display:inline;opacity:0.25;fill:url(#SVGID_17_);}
</style>
<g id="Hostig" class="st0">
	<defs>
		<filter id="Adobe_OpacityMaskFilter" filterUnits="userSpaceOnUse" x="132.5" y="365.3" width="324.1" height="39">
			<feFlood  style="flood-color:white;flood-opacity:1" result="back"/>
			<feBlend  in="SourceGraphic" in2="back" mode="normal"/>
		</filter>
	</defs>
	<mask maskUnits="userSpaceOnUse" x="132.5" y="365.3" width="324.1" height="39" id="SVGID_1_" class="st10">
		<g style="filter:url(#Adobe_OpacityMaskFilter);">
			<defs>
				<filter id="Adobe_OpacityMaskFilter_1_" filterUnits="userSpaceOnUse" x="132.5" y="365.3" width="324.1" height="39">
					<feFlood  style="flood-color:white;flood-opacity:1" result="back"/>
					<feBlend  in="SourceGraphic" in2="back" mode="normal"/>
				</filter>
			</defs>
			<mask maskUnits="userSpaceOnUse" x="132.5" y="365.3" width="324.1" height="39" id="SVGID_1_">
				<g class="st2">
				</g>
			</mask>
			
				<radialGradient id="SVGID_2_" cx="294.4901" cy="996.4299" r="162.0642" gradientTransform="matrix(1 0 0 0.1203 0 264.9659)" gradientUnits="userSpaceOnUse">
				<stop  offset="0" style="stop-color:#999999"/>
				<stop  offset="0.1268" style="stop-color:#8E8E8E"/>
				<stop  offset="0.3466" style="stop-color:#727272"/>
				<stop  offset="0.6328" style="stop-color:#444444"/>
				<stop  offset="0.9714" style="stop-color:#060606"/>
				<stop  offset="1" style="stop-color:#000000"/>
			</radialGradient>
			<path class="st3" d="M456.5,384.8c0,10.8-72.6,19.5-162,19.5c-89.5,0-162-8.7-162-19.5c0-10.8,72.5-19.5,162-19.5
				C384,365.3,456.5,374.1,456.5,384.8z"/>
		</g>
	</mask>
	
		<radialGradient id="SVGID_3_" cx="294.4901" cy="996.4299" r="162.0642" gradientTransform="matrix(1 0 0 0.1203 0 264.9659)" gradientUnits="userSpaceOnUse">
		<stop  offset="0" style="stop-color:#606263"/>
		<stop  offset="0.1232" style="stop-color:#6B6C6D"/>
		<stop  offset="0.3365" style="stop-color:#878889"/>
		<stop  offset="0.6145" style="stop-color:#B5B5B6"/>
		<stop  offset="0.9431" style="stop-color:#F3F4F4"/>
		<stop  offset="1" style="stop-color:#FFFFFF"/>
	</radialGradient>
	<path class="st4" d="M456.5,384.8c0,10.8-72.6,19.5-162,19.5c-89.5,0-162-8.7-162-19.5c0-10.8,72.5-19.5,162-19.5
		C384,365.3,456.5,374.1,456.5,384.8z"/>
	<radialGradient id="SVGID_4_" cx="51.108" cy="85.5255" r="686.4553" gradientUnits="userSpaceOnUse">
		<stop  offset="0" style="stop-color:#27A8E0"/>
		<stop  offset="0.1182" style="stop-color:#26A4DC"/>
		<stop  offset="0.2407" style="stop-color:#2597D1"/>
		<stop  offset="0.3651" style="stop-color:#2283BE"/>
		<stop  offset="0.4901" style="stop-color:#1E66A4"/>
		<stop  offset="0.6" style="stop-color:#1A4687"/>
		<stop  offset="0.6839" style="stop-color:#18386C"/>
		<stop  offset="0.8222" style="stop-color:#142444"/>
		<stop  offset="0.9324" style="stop-color:#12182C"/>
		<stop  offset="1" style="stop-color:#111323"/>
	</radialGradient>
	<path class="st5" d="M183.9,135.3c-0.8,0-2,0-2.8,0h-66.2c-2.8,0-4.8,2-4.8,4.8c0,2.4,2,4.4,4.8,4.4h38.7h9.9c2.4,0,4.4,2,4.4,4.4
		c0,2.8-2,4.8-4.4,4.8H85.4c-2.4,0-4.4,2-4.4,4.4c0,2.4,2,4.8,4.4,4.8h98.1c2.4,0,4.4,2,4.4,4.4c0,2.4-2,4.4-4.4,4.4H95.4
		c-2.4,0-4.4,2-4.4,4.8c0,2.4,2,4.4,4.4,4.4h65c2.4,0,4.4,2,4.4,4.4c0,2.8-2,4.8-4.4,4.8c-16.8,0-33.1,0-49.4,0H85
		c-2.8,0-4.8,2-4.8,4.4c0,2.4,2,4.4,4.8,4.4h15.1H136c2.4,0,4.4,2.4,4.4,4.8c0,2.4-2,4.4-4.4,4.4H85c-2.8,0-4.8,1.9-4.8,4.8
		c0,2.4,2,4.4,4.8,4.4h71.4c2.4,0,4.4,2,4.4,4.4c0,2.8-2,4.8-4.4,4.8c-31.5,0-63.4,0-94.9,0c-2.4,0-4.4,2-4.4,4.4
		c0,2.4,2,4.4,4.4,4.4h23.1h25.9c2.4,0,4.8,2,4.8,4.8c0,2.4-2,4.3-4.4,4.3H74.3c-2.4,0-4.4,2-4.4,4.4c0,2.8,2,4.8,4.4,4.8h36.3h14.3
		c2.4,0,4.4,2,4.4,4.4l0,0c0,2.4-2,4.8-4.4,4.8c-13.5,0-27.5,0-41,0c-2.8,0-4.8,2-4.8,4.4c0,2.4,2,4.4,4.8,4.4h10.3
		c10.4,15.9,28.3,26.6,49,26.6h29.1c8.4,22.2,29.9,38.5,55.4,38.5c69,0,138.3,0,207.7,0c35.9,0,64.6-29,64.6-64.4
		c0-34.2-26.7-62.4-60.6-64.4c-6.8-40.9-42.7-71.1-84.5-71.1c-4,0-8,0.4-11.9,0.8c-15.6-23.5-41.9-39.4-72.2-39.4
		c-30.7,0-57.4,15.9-72.5,39.7C193.8,136.1,189.1,135.3,183.9,135.3L183.9,135.3z M56.3,262.1h15.5c2.4,0,4.4,2,4.4,4.4
		c0,2.4-2,4.4-4.4,4.4H56.3c-2.4,0-4.8-2-4.8-4.4l0,0C51.5,264.1,53.9,262.1,56.3,262.1L56.3,262.1z M24.4,243.8h36.3
		c2.4,0,4.4,2,4.4,4.4c0,2.8-2,4.8-4.4,4.8H24.4c-2.8,0-4.7-2-4.7-4.8C19.7,245.8,21.6,243.8,24.4,243.8L24.4,243.8z M35.6,225.9
		h9.6c2.4,0,4.4,2,4.4,4.4c0,2.4-2,4.4-4.4,4.4h-9.6c-2.4,0-4.4-2-4.4-4.4C31.2,227.9,33.2,225.9,35.6,225.9L35.6,225.9z M6.1,207.7
		h35.5c2.8,0,4.8,1.9,4.8,4.8c0,2.4-2,4.4-4.8,4.4H6.1c-2.4,0-4.4-2-4.4-4.4C1.7,209.6,3.7,207.7,6.1,207.7L6.1,207.7z M61.1,207.7
		h7.6c2.8,0,4.8,1.9,4.8,4.8c0,2.4-2,4.4-4.8,4.4h-7.6c-2.8,0-4.8-2-4.8-4.4C56.3,209.6,58.3,207.7,61.1,207.7L61.1,207.7z
		 M44.3,189.8h20.7c2.4,0,4.4,2,4.4,4.4c0,2.4-2,4.4-4.4,4.4H44.3c-2.8,0-4.8-2-4.8-4.4C39.6,191.7,41.6,189.8,44.3,189.8
		L44.3,189.8z M98.2,135.3h-8c-2.4,0-4.4,2-4.4,4.8c0,2.4,2,4.4,4.4,4.4h8c2.4,0,4.8-2,4.8-4.4C102.9,137.3,100.5,135.3,98.2,135.3
		L98.2,135.3z M9.7,171.5h66.2c2.8,0,4.8,2,4.8,4.8c0,2.4-2,4.4-4.8,4.4H9.7c-2.4,0-4.4-2-4.4-4.4C5.3,173.4,7.3,171.5,9.7,171.5
		L9.7,171.5z M47.5,153.6h16.3c2.4,0,4.4,2,4.4,4.4c0,2.4-2,4.8-4.4,4.8H47.5c-2.4,0-4.4-2.4-4.4-4.8
		C43.2,155.6,45.2,153.6,47.5,153.6L47.5,153.6z M219,239.8l13.6-3.2c-6.8-35,28.7-56,59.4-37.4c9.9-26.2,33.9-42.9,63-42.9
		c32.7,0,59.4,23.5,64.6,55.3c-13.6,4-26.7,13.5-35.1,30.2c30.7-25,95.3-22.7,95.3,29.8c0,24.2-19.5,44.1-44.3,44.1
		c-69.4,0-138.7,0-207.7,0C182.7,315.7,173.1,250.2,219,239.8L219,239.8z"/>
</g>
<g id="Business_Manager" class="st0">
	<path class="st6" d="M204.7,132.6h90.5c4.5,0,8.1-3.6,8.1-8.1c0-4.5-3.7-8.1-8.1-8.1h-90.5c-4.5,0-8.1,3.7-8.1,8.1
		C196.6,129,200.3,132.6,204.7,132.6z"/>
	<path class="st7" d="M377.4,404.8H183.4l135.2-135.2l5.8,5.8l13.4-50.1l-50.1,13.4l5.8,5.8L133.4,404.8h-10.8
		c-6.7,0-13-1.4-18.7-3.9l92.5-92.5l5.8,5.8l13.4-50.1l-50.1,13.4l5.8,5.8l-92.3,92.3c-2.3-5.6-3.6-11.7-3.6-18.1V346l115.8-115.8
		l5.8,5.8l13.4-50.1l-50.1,13.4l5.8,5.8L75.5,296V180.8c0-12.7,5-24.2,13.2-32.7L0,236.8V439c0,33.7,27.3,61,61,61h240.4L407,394.3
		C398.9,400.9,388.6,404.8,377.4,404.8z"/>
	<path class="st6" d="M439,0H61C27.3,0,0,27.3,0,61v175.8l88.7-88.7c0.4-0.4,0.8-0.8,1.3-1.2l0.6-0.6l-0.6,0.6
		c8.5-8.2,20-13.2,32.7-13.2h0.2v-6.8h34.9v6.8h19.1c-0.9-2.9-1.4-5.9-1.4-9.1c0-16.2,13.2-29.4,29.3-29.4h90.5
		c16.2,0,29.4,13.2,29.4,29.4c0,3.2-0.5,6.2-1.5,9.1h19.1v-6.8h34.9v6.8h0.2c26,0,47.2,21.1,47.2,47.2v176.9
		c0,11.2-3.9,21.6-10.5,29.7l0.1-0.1l-0.1,0.1c-2.1,2.6-4.4,4.9-7,7L301.4,500H439c33.7,0,61-27.3,61-61V61C500,27.3,472.7,0,439,0z
		"/>
</g>
<g id="Group_1_">
	
		<radialGradient id="SVGID_5_" cx="255.5143" cy="230.5688" r="186.5802" gradientTransform="matrix(1 0 0 -1 0 502)" gradientUnits="userSpaceOnUse">
		<stop  offset="0.2" style="stop-color:#F19720"/>
		<stop  offset="1" style="stop-color:#955123"/>
	</radialGradient>
	<path class="st8" d="M318.9,399.2v0.1l0,0c-85.3,0-106.4-59.2-126.8-116.6c-4-11.2-7.9-22.4-12.5-32.6l0,0
		c-1.1-2.4-2.1-4.7-3.2-6.9l-0.1-0.3c-0.5-1-1.1-2.1-1.6-3.2v-0.1l-0.6-1v-0.1c-10.1-18-24.3-33.4-48.6-33.4l0,0v-0.1
		c-13.3,0-26.8,5.5-37.7,14.3c-10.9,8.9-19.3,21-22.5,34.3l0,0c-3.2,13.3-0.6,25.5,6.1,34.3c6.3,8.4,16.4,13.7,28.7,14.2
		c12.3,0.5,23.9-3.5,29.5-6c-12.7,6.2-26.6,9.5-40.7,9.6c-34.7,0-59.1-21.7-63.5-52.1c-1.3-9.7-0.8-19.7,1.6-29.2
		c4.7-18.6,14.4-35.5,28.1-48.9c25.4-20.4,56.5-31.8,85.3-31.8v-0.1l0,0c73.6,0,92.6,53,112,107.6c1.1,3,2.2,6.1,3.3,9.2l0,0
		c3.6,9.9,7.3,19.6,11.6,28.7l0.1,0.2c0.3,0.5,0.5,1,0.8,1.6v0.1l0.8,1.6l0.1,0.2c0.3,0.5,0.5,1,0.8,1.5v0.1
		c13.3,25.6,33.9,44.5,66.5,43.6c20.5-0.6,42.4-9.1,60.2-24.1c18.6-15.5,31.9-36.5,37.8-60l0,0c5.6-23.5,1.9-44.7-9-60
		c-19.1-26.7-59.3-31.6-94.9-12.6c10-5.6,29.1-16.7,63.7-17c55.3,0,92.3,38.2,92.4,89.6l0,0c-0.1,16.8-3.7,33.5-10.4,48.9
		c-11.8,20.3-27.1,38.3-45.1,53.3C397.4,384,357.5,399.1,318.9,399.2L318.9,399.2z"/>
	
		<radialGradient id="SVGID_6_" cx="250.3912" cy="265.9993" r="198.3186" gradientTransform="matrix(1 0 0 -1 0 502)" gradientUnits="userSpaceOnUse">
		<stop  offset="0" style="stop-color:#F4AC3D"/>
		<stop  offset="1" style="stop-color:#F19720"/>
	</radialGradient>
	<path class="st9" d="M293.1,137.8c26.8-18,57.6-29.7,95.5-29.7l0,0v0.1c40.5,0,72.2,16.5,91.3,43.1c18.8,26.3,25.3,62.5,15.8,102.3
		l0,0c-4.2,17.2-10.8,33.7-19.7,48.9c2.9-6.9,5.3-14,7-21.3c2.2-9,3.3-18.3,3.3-27.6l0,0c-0.2-51.4-37.3-89.6-92.4-89.6
		c-34.6,0.3-53.6,11.4-63.6,17l1.8-1c-22.4,11.4-42.2,31-61,52.4c-22.9,26.1-43.8,53.7-68.8,78.2c-31.4,30.8-67,53.1-114.9,53.1l0,0
		v-0.1c-30.5,0-55.1-12.3-70.2-32.1C2.3,311.8-3.4,284.2,3.9,253.7l0,0c7-29.2,25.4-57.6,51.1-78.1C41.4,189,31.7,206,27,224.5
		c-2.4,9.5-2.9,19.5-1.6,29.2c4.4,30.5,28.8,52.1,63.5,52.1c26.1,0,52.3-12.3,71.8-31.5c17.1-15.6,31.9-33.8,46.8-51.3
		C233.7,192.3,258.8,160.9,293.1,137.8L293.1,137.8z"/>
</g>
<g class="st0">
	<g class="st10">
		<g>
			<linearGradient id="SVGID_7_" gradientUnits="userSpaceOnUse" x1="151.7747" y1="184.1177" x2="348.223" y2="184.1177">
				<stop  offset="0" style="stop-color:#00A44F"/>
				<stop  offset="0.5" style="stop-color:#CDDB44"/>
				<stop  offset="1" style="stop-color:#00A44F"/>
			</linearGradient>
			<path class="st11" d="M250,150.3c-42.8,0-79.8,24.4-98.2,60c6.7,1.4,13,4,18.6,7.6c15.3-28.2,45.3-47.5,79.6-47.5
				c34.3,0,64.3,19.2,79.6,47.5c5.7-3.6,12-6.1,18.6-7.6C329.8,174.8,292.8,150.3,250,150.3z"/>
			<linearGradient id="SVGID_8_" gradientUnits="userSpaceOnUse" x1="59.0007" y1="196.7294" x2="440.997" y2="196.7294">
				<stop  offset="0" style="stop-color:#00A44F"/>
				<stop  offset="0.5" style="stop-color:#CDDB44"/>
				<stop  offset="1" style="stop-color:#00A44F"/>
			</linearGradient>
			<path class="st12" d="M86.3,310c-4.7-15.5-7.2-32-7.2-49C79.1,166.7,155.8,90,250,90c94.2,0,170.9,76.7,170.9,170.9
				c0,17-2.5,33.5-7.2,49c6,3.9,11.6,8.5,16.7,13.6c6.9-19.6,10.6-40.7,10.6-62.6c0-105.3-85.7-191-191-191
				c-105.3,0-191,85.7-191,191c0,21.9,3.8,43,10.6,62.6C74.7,318.4,80.3,313.9,86.3,310z"/>
			<linearGradient id="SVGID_9_" gradientUnits="userSpaceOnUse" x1="104.3952" y1="165.9494" x2="395.6027" y2="165.9494">
				<stop  offset="0" style="stop-color:#00A44F"/>
				<stop  offset="0.5" style="stop-color:#CDDB44"/>
				<stop  offset="1" style="stop-color:#00A44F"/>
			</linearGradient>
			<path class="st13" d="M250,110.1c-69.6,0-128.3,47.4-145.6,111.6c7.3-5.8,15.9-9.9,25.2-11.6c19.9-46.9,66.4-79.9,120.4-79.9
				c54.1,0,100.5,33,120.4,79.9c9.3,1.8,17.9,5.8,25.2,11.6C378.3,157.5,319.6,110.1,250,110.1z"/>
		</g>
		<linearGradient id="SVGID_10_" gradientUnits="userSpaceOnUse" x1="59.0007" y1="190.4217" x2="440.997" y2="190.4217">
			<stop  offset="0" style="stop-color:#00A44F"/>
			<stop  offset="0.5" style="stop-color:#CDDB44"/>
			<stop  offset="1" style="stop-color:#00A44F"/>
		</linearGradient>
		<path class="st14" d="M59.1,264.2c0-1.1-0.1-2.2-0.1-3.3c0-105.3,85.7-191,191-191c105.3,0,191,85.7,191,191c0,1.1,0,2.2-0.1,3.3
			C439.5,160.1,354.4,75.9,250,75.9C145.6,75.9,60.5,160.1,59.1,264.2z M420.8,263.4c-0.2,16.2-2.7,31.8-7.1,46.6
			c0.5,0.3,0.9,0.7,1.3,1c3.8-14.1,5.9-28.8,5.9-44C420.9,265.7,420.8,264.6,420.8,263.4z M79.1,266.9c0,15.2,2.1,29.9,5.9,44
			c0.5-0.3,0.9-0.7,1.3-1c-4.4-14.8-6.9-30.4-7.1-46.6C79.2,264.6,79.1,265.7,79.1,266.9z M250,110.1
			c-69.6,0-128.3,47.4-145.6,111.6c0.8-0.6,1.6-1.1,2.4-1.7c19.8-60.3,76.4-103.9,143.2-103.9c66.8,0,123.4,43.7,143.2,103.9
			c0.8,0.6,1.6,1.1,2.4,1.7C378.3,157.5,319.6,110.1,250,110.1z M250,150.3c-42.8,0-79.8,24.4-98.2,60c1,0.2,2,0.5,2.9,0.8
			c19.2-32.7,54.7-54.8,95.3-54.8s76.1,22.1,95.3,54.8c1-0.3,1.9-0.5,2.9-0.8C329.8,174.8,292.8,150.3,250,150.3z"/>
		<linearGradient id="SVGID_11_" gradientUnits="userSpaceOnUse" x1="378.8688" y1="405.7732" x2="378.8688" y2="227.0674">
			<stop  offset="0" style="stop-color:#235FAB"/>
			<stop  offset="0.4623" style="stop-color:#4089C8"/>
			<stop  offset="1" style="stop-color:#5FB7E7"/>
		</linearGradient>
		<path class="st15" d="M402,273.3c0-25.6-18.9-46.3-42.1-46.3c-23.3,0-42.1,20.7-42.1,46.3c0,17.7,9.1,33.1,22.4,40.9
			c-9.9,2.6-19.1,7.2-27.4,13.2c25.2,17.8,43.1,45.8,49.6,78.4h71.2c6.6,0,12.1-5.4,11.3-12c-4.5-39.1-31-70.7-65.4-79.6
			C392.9,306.5,402,291.1,402,273.3z"/>
		<linearGradient id="SVGID_12_" gradientUnits="userSpaceOnUse" x1="400.928" y1="405.7732" x2="400.928" y2="227.0674">
			<stop  offset="0" style="stop-color:#221F1F"/>
			<stop  offset="1" style="stop-color:#808083"/>
		</linearGradient>
		<path class="st16" d="M444.9,393.8c-4.5-39.1-31-70.7-65.4-79.6c13.3-7.8,22.5-23.1,22.5-40.9c0-25.6-18.9-46.3-42.1-46.3
			c-1,0-2,0.1-3,0.2c21.9,1.7,39.2,21.7,39.2,46.1c0,17.7-9.1,33.1-22.4,40.9c34.4,8.9,60.8,40.5,65.4,79.6c0.7,6.6-4.7,12-11.3,12
			h6C440.2,405.8,445.7,400.4,444.9,393.8z"/>
		<linearGradient id="SVGID_13_" gradientUnits="userSpaceOnUse" x1="121.259" y1="405.7732" x2="121.259" y2="227.0674">
			<stop  offset="0" style="stop-color:#235FAB"/>
			<stop  offset="0.4623" style="stop-color:#4089C8"/>
			<stop  offset="1" style="stop-color:#5FB7E7"/>
		</linearGradient>
		<path class="st17" d="M159.8,314.2c13.3-7.8,22.4-23.1,22.4-40.9c0-25.6-18.9-46.3-42.1-46.3c-23.3,0-42.1,20.7-42.1,46.3
			c0,17.7,9.1,33.1,22.4,40.9c-34.4,8.9-60.8,40.5-65.4,79.6c-0.8,6.6,4.7,12,11.3,12h71.7c6.5-32.4,24.3-60.3,49.4-78.2
			C179.2,321.5,169.9,316.8,159.8,314.2z"/>
		<linearGradient id="SVGID_14_" gradientUnits="userSpaceOnUse" x1="159.8209" y1="405.7732" x2="159.8209" y2="227.0674">
			<stop  offset="0" style="stop-color:#221F1F"/>
			<stop  offset="1" style="stop-color:#808083"/>
		</linearGradient>
		<path class="st18" d="M159.8,314.2c13.3-7.8,22.4-23.1,22.4-40.9c0-25.6-18.9-46.3-42.1-46.3c-1,0-2,0.1-3,0.2
			c21.9,1.7,39.1,21.7,39.1,46.1c0,17.7-9.1,33.1-22.4,40.9c10,2.6,19.3,7.3,27.7,13.4c-25,17.8-42.9,45.8-49.4,78.2h6
			c6.5-32.4,24.3-60.3,49.4-78.2C179.2,321.5,169.9,316.8,159.8,314.2z"/>
		<linearGradient id="SVGID_15_" gradientUnits="userSpaceOnUse" x1="250.2556" y1="430.0876" x2="250.2556" y2="202.7727">
			<stop  offset="0" style="stop-color:#235FAB"/>
			<stop  offset="0.4623" style="stop-color:#4089C8"/>
			<stop  offset="1" style="stop-color:#5FB7E7"/>
		</linearGradient>
		<path class="st19" d="M358.6,418.1c-5.6-49.2-38.3-89.9-83.3-101.5l-7.4-1.9l6.7-3.9c17.1-10,27.8-29.4,27.8-50.7
			c0-31.6-23.4-57.3-52.2-57.3c-28.8,0-52.2,25.7-52.2,57.3c0,21.3,10.7,40.7,27.8,50.7l6.7,3.9l-7.4,1.9
			c-45,11.6-77.7,52.3-83.3,101.5c-0.8,6.6,4.6,12,11.2,12l194.4,0C354.1,430.1,359.4,424.7,358.6,418.1z M250,425l-19.1-25
			l16.4-69.1l-11.3-14.2c4.3,1.4,9.1,2.2,14.1,2.2c5,0,9.8-0.8,14.1-2.2l-11.4,14.2l16.4,69.1L250,425z"/>
		<linearGradient id="SVGID_16_" gradientUnits="userSpaceOnUse" x1="302.9791" y1="430.0876" x2="302.9791" y2="202.7727">
			<stop  offset="0" style="stop-color:#808083"/>
			<stop  offset="1" style="stop-color:#221F1F"/>
		</linearGradient>
		<path class="st20" d="M358.6,418.1c-5.6-49.2-38.3-89.9-83.3-101.5l-7.4-1.9l6.7-3.9c17.1-10,27.8-29.4,27.8-50.7
			c0-31.6-23.4-57.3-52.2-57.3c-1,0-2,0.1-3,0.2c27.4,1.7,49.2,26.7,49.2,57.2c0,21.3-10.7,40.7-27.8,50.7l-6.7,3.9l7.4,1.9
			c45,11.6,77.7,52.3,83.3,101.5c0.7,6.6-4.6,12-11.2,12h6C354.1,430.1,359.4,424.7,358.6,418.1z"/>
	</g>
	<linearGradient id="SVGID_17_" gradientUnits="userSpaceOnUse" x1="298.4763" y1="430.0876" x2="298.4763" y2="202.7727">
		<stop  offset="0" style="stop-color:#221F1F"/>
		<stop  offset="1" style="stop-color:#808083"/>
	</linearGradient>
	<path class="st21" d="M358.6,418.1c-5.6-49.2-38.3-89.9-83.3-101.5l-7.4-1.9l6.7-3.9c17.1-10,27.8-29.4,27.8-50.7
		c0-31.6-23.4-57.3-52.2-57.3c-4.1,0-8.1,0.6-12,1.6c23,6,40.2,28.7,40.2,55.8c0,21.3-11.1,46.3-28.2,56.3l-3.8,2.2
		c1.2,0.1,2.3,0.3,3.5,0.3c2.2,0,4.3-0.2,6.3-0.5c0.3-0.1,0.6-0.1,0.8-0.1c0,0,0,0,0,0c2.4-0.4,4.8-0.9,7-1.7l-2.5,3.2
		c39.7,14.8,67.9,52.8,73,98.2c0.7,6.6-4.5,12-11.2,12h24C354.1,430.1,359.4,424.7,358.6,418.1z"/>
</g>
</svg>
