<?xml version="1.0" encoding="utf-8"?>
<!-- Generator: Adobe Illustrator 22.1.0, SVG Export Plug-In . SVG Version: 6.00 Build 0)  -->
<svg version="1.1" id="Modules" xmlns="http://www.w3.org/2000/svg" xmlns:xlink="http://www.w3.org/1999/xlink" x="0px" y="0px"
	 viewBox="0 0 500 500" style="enable-background:new 0 0 500 500;" xml:space="preserve">
<style type="text/css">
	.st0{display:none;}
	.st1{display:inline;filter:url(#Adobe_OpacityMaskFilter);}
	.st2{filter:url(#Adobe_OpacityMaskFilter_1_);}
	.st3{mask:url(#SVGID_1_);fill:url(#SVGID_2_);}
	.st4{display:inline;fill:url(#SVGID_3_);}
	.st5{display:inline;fill:url(#SVGID_4_);}
	.st6{display:inline;fill:#25A9E0;}
	.st7{display:inline;fill:#006DA5;}
	.st8{display:inline;fill:url(#SVGID_5_);}
	.st9{display:inline;fill:url(#SVGID_6_);}
	.st10{fill:url(#SVGID_7_);}
	.st11{fill:url(#SVGID_8_);}
	.st12{fill:url(#SVGID_9_);}
	.st13{opacity:0.5;fill:url(#SVGID_10_);}
	.st14{fill:url(#SVGID_11_);}
	.st15{opacity:0.25;fill:url(#SVGID_12_);}
	.st16{fill:url(#SVGID_13_);}
	.st17{opacity:0.25;fill:url(#SVGID_14_);}
	.st18{fill:url(#SVGID_15_);}
	.st19{opacity:0.5;fill:url(#SVGID_16_);}
	.st20{opacity:0.25;fill:url(#SVGID_17_);}
</style>
<g id="Hostig" class="st0">
	<defs>
		<filter id="Adobe_OpacityMaskFilter" filterUnits="userSpaceOnUse" x="132.5" y="365.3" width="324.1" height="39">
			<feFlood  style="flood-color:white;flood-opacity:1" result="back"/>
			<feBlend  in="SourceGraphic" in2="back" mode="normal"/>
		</filter>
	</defs>
	<mask maskUnits="userSpaceOnUse" x="132.5" y="365.3" width="324.1" height="39" id="SVGID_1_" style="display:inline;">
		<g style="filter:url(#Adobe_OpacityMaskFilter);">
			<defs>
				<filter id="Adobe_OpacityMaskFilter_1_" filterUnits="userSpaceOnUse" x="132.5" y="365.3" width="324.1" height="39">
					<feFlood  style="flood-color:white;flood-opacity:1" result="back"/>
					<feBlend  in="SourceGraphic" in2="back" mode="normal"/>
				</filter>
			</defs>
			<mask maskUnits="userSpaceOnUse" x="132.5" y="365.3" width="324.1" height="39" id="SVGID_1_">
				<g class="st2">
				</g>
			</mask>
			
				<radialGradient id="SVGID_2_" cx="294.4901" cy="996.4299" r="162.0642" gradientTransform="matrix(1 0 0 0.1203 0 264.9659)" gradientUnits="userSpaceOnUse">
				<stop  offset="0" style="stop-color:#999999"/>
				<stop  offset="0.1268" style="stop-color:#8E8E8E"/>
				<stop  offset="0.3466" style="stop-color:#727272"/>
				<stop  offset="0.6328" style="stop-color:#444444"/>
				<stop  offset="0.9714" style="stop-color:#060606"/>
				<stop  offset="1" style="stop-color:#000000"/>
			</radialGradient>
			<path class="st3" d="M456.5,384.8c0,10.8-72.6,19.5-162,19.5c-89.5,0-162-8.7-162-19.5c0-10.8,72.5-19.5,162-19.5
				C384,365.3,456.5,374.1,456.5,384.8z"/>
		</g>
	</mask>
	
		<radialGradient id="SVGID_3_" cx="294.4901" cy="996.4299" r="162.0642" gradientTransform="matrix(1 0 0 0.1203 0 264.9659)" gradientUnits="userSpaceOnUse">
		<stop  offset="0" style="stop-color:#606263"/>
		<stop  offset="0.1232" style="stop-color:#6B6C6D"/>
		<stop  offset="0.3365" style="stop-color:#878889"/>
		<stop  offset="0.6145" style="stop-color:#B5B5B6"/>
		<stop  offset="0.9431" style="stop-color:#F3F4F4"/>
		<stop  offset="1" style="stop-color:#FFFFFF"/>
	</radialGradient>
	<path class="st4" d="M456.5,384.8c0,10.8-72.6,19.5-162,19.5c-89.5,0-162-8.7-162-19.5c0-10.8,72.5-19.5,162-19.5
		C384,365.3,456.5,374.1,456.5,384.8z"/>
	<radialGradient id="SVGID_4_" cx="51.108" cy="85.5255" r="686.4553" gradientUnits="userSpaceOnUse">
		<stop  offset="0" style="stop-color:#27A8E0"/>
		<stop  offset="0.1182" style="stop-color:#26A4DC"/>
		<stop  offset="0.2407" style="stop-color:#2597D1"/>
		<stop  offset="0.3651" style="stop-color:#2283BE"/>
		<stop  offset="0.4901" style="stop-color:#1E66A4"/>
		<stop  offset="0.6" style="stop-color:#1A4687"/>
		<stop  offset="0.6839" style="stop-color:#18386C"/>
		<stop  offset="0.8222" style="stop-color:#142444"/>
		<stop  offset="0.9324" style="stop-color:#12182C"/>
		<stop  offset="1" style="stop-color:#111323"/>
	</radialGradient>
	<path class="st5" d="M183.9,135.3c-0.8,0-2,0-2.8,0h-66.2c-2.8,0-4.8,2-4.8,4.8c0,2.4,2,4.4,4.8,4.4h38.7h9.9c2.4,0,4.4,2,4.4,4.4
		c0,2.8-2,4.8-4.4,4.8H85.4c-2.4,0-4.4,2-4.4,4.4c0,2.4,2,4.8,4.4,4.8h98.1c2.4,0,4.4,2,4.4,4.4c0,2.4-2,4.4-4.4,4.4H95.4
		c-2.4,0-4.4,2-4.4,4.8c0,2.4,2,4.4,4.4,4.4h65c2.4,0,4.4,2,4.4,4.4c0,2.8-2,4.8-4.4,4.8c-16.8,0-33.1,0-49.4,0H85
		c-2.8,0-4.8,2-4.8,4.4c0,2.4,2,4.4,4.8,4.4h15.1H136c2.4,0,4.4,2.4,4.4,4.8c0,2.4-2,4.4-4.4,4.4H85c-2.8,0-4.8,1.9-4.8,4.8
		c0,2.4,2,4.4,4.8,4.4h71.4c2.4,0,4.4,2,4.4,4.4c0,2.8-2,4.8-4.4,4.8c-31.5,0-63.4,0-94.9,0c-2.4,0-4.4,2-4.4,4.4
		c0,2.4,2,4.4,4.4,4.4h23.1h25.9c2.4,0,4.8,2,4.8,4.8c0,2.4-2,4.3-4.4,4.3H74.3c-2.4,0-4.4,2-4.4,4.4c0,2.8,2,4.8,4.4,4.8h36.3h14.3
		c2.4,0,4.4,2,4.4,4.4l0,0c0,2.4-2,4.8-4.4,4.8c-13.5,0-27.5,0-41,0c-2.8,0-4.8,2-4.8,4.4c0,2.4,2,4.4,4.8,4.4h10.3
		c10.4,15.9,28.3,26.6,49,26.6h29.1c8.4,22.2,29.9,38.5,55.4,38.5c69,0,138.3,0,207.7,0c35.9,0,64.6-29,64.6-64.4
		c0-34.2-26.7-62.4-60.6-64.4c-6.8-40.9-42.7-71.1-84.5-71.1c-4,0-8,0.4-11.9,0.8c-15.6-23.5-41.9-39.4-72.2-39.4
		c-30.7,0-57.4,15.9-72.5,39.7C193.8,136.1,189.1,135.3,183.9,135.3L183.9,135.3z M56.3,262.1h15.5c2.4,0,4.4,2,4.4,4.4
		c0,2.4-2,4.4-4.4,4.4H56.3c-2.4,0-4.8-2-4.8-4.4l0,0C51.5,264.1,53.9,262.1,56.3,262.1L56.3,262.1z M24.4,243.8h36.3
		c2.4,0,4.4,2,4.4,4.4c0,2.8-2,4.8-4.4,4.8H24.4c-2.8,0-4.7-2-4.7-4.8C19.7,245.8,21.6,243.8,24.4,243.8L24.4,243.8z M35.6,225.9
		h9.6c2.4,0,4.4,2,4.4,4.4c0,2.4-2,4.4-4.4,4.4h-9.6c-2.4,0-4.4-2-4.4-4.4C31.2,227.9,33.2,225.9,35.6,225.9L35.6,225.9z M6.1,207.7
		h35.5c2.8,0,4.8,1.9,4.8,4.8c0,2.4-2,4.4-4.8,4.4H6.1c-2.4,0-4.4-2-4.4-4.4C1.7,209.6,3.7,207.7,6.1,207.7L6.1,207.7z M61.1,207.7
		h7.6c2.8,0,4.8,1.9,4.8,4.8c0,2.4-2,4.4-4.8,4.4h-7.6c-2.8,0-4.8-2-4.8-4.4C56.3,209.6,58.3,207.7,61.1,207.7L61.1,207.7z
		 M44.3,189.8h20.7c2.4,0,4.4,2,4.4,4.4c0,2.4-2,4.4-4.4,4.4H44.3c-2.8,0-4.8-2-4.8-4.4C39.6,191.7,41.6,189.8,44.3,189.8
		L44.3,189.8z M98.2,135.3h-8c-2.4,0-4.4,2-4.4,4.8c0,2.4,2,4.4,4.4,4.4h8c2.4,0,4.8-2,4.8-4.4C102.9,137.3,100.5,135.3,98.2,135.3
		L98.2,135.3z M9.7,171.5h66.2c2.8,0,4.8,2,4.8,4.8c0,2.4-2,4.4-4.8,4.4H9.7c-2.4,0-4.4-2-4.4-4.4C5.3,173.4,7.3,171.5,9.7,171.5
		L9.7,171.5z M47.5,153.6h16.3c2.4,0,4.4,2,4.4,4.4c0,2.4-2,4.8-4.4,4.8H47.5c-2.4,0-4.4-2.4-4.4-4.8
		C43.2,155.6,45.2,153.6,47.5,153.6L47.5,153.6z M219,239.8l13.6-3.2c-6.8-35,28.7-56,59.4-37.4c9.9-26.2,33.9-42.9,63-42.9
		c32.7,0,59.4,23.5,64.6,55.3c-13.6,4-26.7,13.5-35.1,30.2c30.7-25,95.3-22.7,95.3,29.8c0,24.2-19.5,44.1-44.3,44.1
		c-69.4,0-138.7,0-207.7,0C182.7,315.7,173.1,250.2,219,239.8L219,239.8z"/>
</g>
<g id="Business_Manager" class="st0">
	<path class="st6" d="M204.7,132.6h90.5c4.5,0,8.1-3.6,8.1-8.1c0-4.5-3.7-8.1-8.1-8.1h-90.5c-4.5,0-8.1,3.7-8.1,8.1
		C196.6,129,200.3,132.6,204.7,132.6z"/>
	<path class="st7" d="M377.4,404.8H183.4l135.2-135.2l5.8,5.8l13.4-50.1l-50.1,13.4l5.8,5.8L133.4,404.8h-10.8
		c-6.7,0-13-1.4-18.7-3.9l92.5-92.5l5.8,5.8l13.4-50.1l-50.1,13.4l5.8,5.8l-92.3,92.3c-2.3-5.6-3.6-11.7-3.6-18.1V346l115.8-115.8
		l5.8,5.8l13.4-50.1l-50.1,13.4l5.8,5.8L75.5,296V180.8c0-12.7,5-24.2,13.2-32.7L0,236.8V439c0,33.7,27.3,61,61,61h240.4L407,394.3
		C398.9,400.9,388.6,404.8,377.4,404.8z"/>
	<path class="st6" d="M439,0H61C27.3,0,0,27.3,0,61v175.8l88.7-88.7c0.4-0.4,0.8-0.8,1.3-1.2l0.6-0.6l-0.6,0.6
		c8.5-8.2,20-13.2,32.7-13.2h0.2v-6.8h34.9v6.8h19.1c-0.9-2.9-1.4-5.9-1.4-9.1c0-16.2,13.2-29.4,29.3-29.4h90.5
		c16.2,0,29.4,13.2,29.4,29.4c0,3.2-0.5,6.2-1.5,9.1h19.1v-6.8h34.9v6.8h0.2c26,0,47.2,21.1,47.2,47.2v176.9
		c0,11.2-3.9,21.6-10.5,29.7l0.1-0.1l-0.1,0.1c-2.1,2.6-4.4,4.9-7,7L301.4,500H439c33.7,0,61-27.3,61-61V61C500,27.3,472.7,0,439,0z
		"/>
</g>
<g id="Group_1_" class="st0">
	
		<radialGradient id="SVGID_5_" cx="255.5143" cy="230.5688" r="186.5802" gradientTransform="matrix(1 0 0 -1 0 502)" gradientUnits="userSpaceOnUse">
		<stop  offset="0.2" style="stop-color:#F19720"/>
		<stop  offset="1" style="stop-color:#955123"/>
	</radialGradient>
	<path class="st8" d="M318.9,399.2v0.1l0,0c-85.3,0-106.4-59.2-126.8-116.6c-4-11.2-7.9-22.4-12.5-32.6l0,0
		c-1.1-2.4-2.1-4.7-3.2-6.9l-0.1-0.3c-0.5-1-1.1-2.1-1.6-3.2v-0.1l-0.6-1v-0.1c-10.1-18-24.3-33.4-48.6-33.4l0,0v-0.1
		c-13.3,0-26.8,5.5-37.7,14.3c-10.9,8.9-19.3,21-22.5,34.3l0,0c-3.2,13.3-0.6,25.5,6.1,34.3c6.3,8.4,16.4,13.7,28.7,14.2
		c12.3,0.5,23.9-3.5,29.5-6c-12.7,6.2-26.6,9.5-40.7,9.6c-34.7,0-59.1-21.7-63.5-52.1c-1.3-9.7-0.8-19.7,1.6-29.2
		c4.7-18.6,14.4-35.5,28.1-48.9c25.4-20.4,56.5-31.8,85.3-31.8v-0.1l0,0c73.6,0,92.6,53,112,107.6c1.1,3,2.2,6.1,3.3,9.2l0,0
		c3.6,9.9,7.3,19.6,11.6,28.7l0.1,0.2c0.3,0.5,0.5,1,0.8,1.6v0.1l0.8,1.6l0.1,0.2c0.3,0.5,0.5,1,0.8,1.5v0.1
		c13.3,25.6,33.9,44.5,66.5,43.6c20.5-0.6,42.4-9.1,60.2-24.1c18.6-15.5,31.9-36.5,37.8-60l0,0c5.6-23.5,1.9-44.7-9-60
		c-19.1-26.7-59.3-31.6-94.9-12.6c10-5.6,29.1-16.7,63.7-17c55.3,0,92.3,38.2,92.4,89.6l0,0c-0.1,16.8-3.7,33.5-10.4,48.9
		c-11.8,20.3-27.1,38.3-45.1,53.3C397.4,384,357.5,399.1,318.9,399.2L318.9,399.2z"/>
	
		<radialGradient id="SVGID_6_" cx="250.3912" cy="265.9993" r="198.3186" gradientTransform="matrix(1 0 0 -1 0 502)" gradientUnits="userSpaceOnUse">
		<stop  offset="0" style="stop-color:#F4AC3D"/>
		<stop  offset="1" style="stop-color:#F19720"/>
	</radialGradient>
	<path class="st9" d="M293.1,137.8c26.8-18,57.6-29.7,95.5-29.7l0,0v0.1c40.5,0,72.2,16.5,91.3,43.1c18.8,26.3,25.3,62.5,15.8,102.3
		l0,0c-4.2,17.2-10.8,33.7-19.7,48.9c2.9-6.9,5.3-14,7-21.3c2.2-9,3.3-18.3,3.3-27.6l0,0c-0.2-51.4-37.3-89.6-92.4-89.6
		c-34.6,0.3-53.6,11.4-63.6,17l1.8-1c-22.4,11.4-42.2,31-61,52.4c-22.9,26.1-43.8,53.7-68.8,78.2c-31.4,30.8-67,53.1-114.9,53.1l0,0
		v-0.1c-30.5,0-55.1-12.3-70.2-32.1C2.3,311.8-3.4,284.2,3.9,253.7l0,0c7-29.2,25.4-57.6,51.1-78.1C41.4,189,31.7,206,27,224.5
		c-2.4,9.5-2.9,19.5-1.6,29.2c4.4,30.5,28.8,52.1,63.5,52.1c26.1,0,52.3-12.3,71.8-31.5c17.1-15.6,31.9-33.8,46.8-51.3
		C233.7,192.3,258.8,160.9,293.1,137.8L293.1,137.8z"/>
</g>
<g>
	<g>
		<g>
			<linearGradient id="SVGID_7_" gradientUnits="userSpaceOnUse" x1="124.0702" y1="165.5355" x2="375.9269" y2="165.5355">
				<stop  offset="0" style="stop-color:#00A44F"/>
				<stop  offset="0.5" style="stop-color:#CDDB44"/>
				<stop  offset="1" style="stop-color:#00A44F"/>
			</linearGradient>
			<path class="st10" d="M250,122.2c-54.8,0-102.3,31.3-125.9,76.9c8.6,1.8,16.6,5.1,23.9,9.7c19.6-36.2,58-60.9,102-60.9
				c44,0,82.4,24.6,102,60.8c7.3-4.6,15.3-7.9,23.9-9.7C352.3,153.5,304.8,122.2,250,122.2z"/>
			<linearGradient id="SVGID_8_" gradientUnits="userSpaceOnUse" x1="5.1291" y1="181.7043" x2="494.868" y2="181.7043">
				<stop  offset="0" style="stop-color:#00A44F"/>
				<stop  offset="0.5" style="stop-color:#CDDB44"/>
				<stop  offset="1" style="stop-color:#00A44F"/>
			</linearGradient>
			<path class="st11" d="M40.1,326.9c-6-19.9-9.2-41-9.2-62.9c0-120.8,98.3-219.1,219.1-219.1c120.8,0,219.1,98.3,219.1,219.1
				c0,21.8-3.3,43-9.2,62.9c7.7,5,14.9,10.9,21.4,17.4c8.8-25.2,13.6-52.2,13.6-80.3C494.9,129,385,19.1,250,19.1
				C115,19.1,5.1,129,5.1,264c0,28.1,4.8,55.1,13.6,80.3C25.2,337.8,32.4,331.9,40.1,326.9z"/>
			<linearGradient id="SVGID_9_" gradientUnits="userSpaceOnUse" x1="63.3271" y1="142.2428" x2="436.6701" y2="142.2428">
				<stop  offset="0" style="stop-color:#00A44F"/>
				<stop  offset="0.5" style="stop-color:#CDDB44"/>
				<stop  offset="1" style="stop-color:#00A44F"/>
			</linearGradient>
			<path class="st12" d="M250,70.7c-89.2,0-164.5,60.8-186.7,143.1c9.4-7.4,20.4-12.7,32.3-14.9C121.1,138.8,180.7,96.5,250,96.5
				c69.3,0,128.9,42.3,154.4,102.4c11.9,2.3,22.9,7.5,32.3,14.9C414.5,131.5,339.2,70.7,250,70.7z"/>
		</g>
		<linearGradient id="SVGID_10_" gradientUnits="userSpaceOnUse" x1="5.1291" y1="173.6176" x2="494.868" y2="173.6176">
			<stop  offset="0" style="stop-color:#00A44F"/>
			<stop  offset="0.5" style="stop-color:#CDDB44"/>
			<stop  offset="1" style="stop-color:#00A44F"/>
		</linearGradient>
		<path class="st13" d="M5.2,268.2c0-1.4-0.1-2.8-0.1-4.2C5.1,129,115,19.1,250,19.1C385,19.1,494.9,129,494.9,264
			c0,1.4-0.1,2.8-0.1,4.2C492.9,134.8,383.8,26.8,250,26.8C116.2,26.8,7.1,134.8,5.2,268.2z M469,267.1c-0.3,20.7-3.4,40.8-9.1,59.8
			c0.6,0.4,1.1,0.8,1.7,1.2c4.8-18,7.5-36.9,7.5-56.4C469.1,270.2,469,268.7,469,267.1z M30.9,271.7c0,19.5,2.7,38.4,7.6,56.4
			c0.6-0.4,1.1-0.8,1.7-1.2c-5.7-19-8.8-39-9.1-59.8C31,268.7,30.9,270.2,30.9,271.7z M250,70.7c-89.2,0-164.5,60.8-186.7,143.1
			c1-0.8,2.1-1.4,3.1-2.2c25.3-77.2,98-133.2,183.6-133.2c85.6,0,158.2,56,183.6,133.2c1,0.7,2.1,1.4,3.1,2.2
			C414.5,131.5,339.2,70.7,250,70.7z M250,122.2c-54.8,0-102.3,31.3-125.9,76.9c1.3,0.3,2.5,0.6,3.8,1
			c24.6-41.9,70.1-70.2,122.2-70.2s97.5,28.3,122.2,70.2c1.3-0.3,2.5-0.7,3.8-1C352.3,153.5,304.8,122.2,250,122.2z"/>
		<linearGradient id="SVGID_11_" gradientUnits="userSpaceOnUse" x1="415.2164" y1="449.7092" x2="415.2164" y2="220.5993">
			<stop  offset="0" style="stop-color:#235FAB"/>
			<stop  offset="0.4623" style="stop-color:#4089C8"/>
			<stop  offset="1" style="stop-color:#5FB7E7"/>
		</linearGradient>
		<path class="st14" d="M444.9,279.9c0-32.8-24.2-59.3-54-59.3c-29.9,0-54,26.6-54,59.3c0,22.7,11.7,42.5,28.8,52.4
			c-12.8,3.3-24.5,9.2-35.2,16.9c32.3,22.8,55.3,58.8,63.6,100.5h91.3c8.5,0,15.5-6.9,14.5-15.3c-5.8-50.2-39.7-90.6-83.8-102
			C433.2,322.4,444.9,302.7,444.9,279.9z"/>
		<linearGradient id="SVGID_12_" gradientUnits="userSpaceOnUse" x1="443.4974" y1="449.7092" x2="443.4974" y2="220.5993">
			<stop  offset="0" style="stop-color:#221F1F"/>
			<stop  offset="1" style="stop-color:#808083"/>
		</linearGradient>
		<path class="st15" d="M499.9,434.4c-5.8-50.2-39.7-90.6-83.8-102c17.1-10,28.8-29.7,28.8-52.4c0-32.8-24.2-59.3-54-59.3
			c-1.3,0-2.6,0.1-3.9,0.2c28.1,2.2,50.2,27.8,50.2,59.1c0,22.7-11.7,42.5-28.8,52.4c44.1,11.4,78,51.9,83.8,102
			c1,8.4-6,15.3-14.5,15.3h7.7C493.9,449.7,500.9,442.8,499.9,434.4z"/>
		<linearGradient id="SVGID_13_" gradientUnits="userSpaceOnUse" x1="84.9474" y1="449.7092" x2="84.9474" y2="220.5993">
			<stop  offset="0" style="stop-color:#235FAB"/>
			<stop  offset="0.4623" style="stop-color:#4089C8"/>
			<stop  offset="1" style="stop-color:#5FB7E7"/>
		</linearGradient>
		<path class="st16" d="M134.4,332.3c17.1-10,28.8-29.7,28.8-52.4c0-32.8-24.2-59.3-54-59.3c-29.9,0-54,26.6-54,59.3
			c0,22.7,11.7,42.5,28.8,52.4c-44.1,11.4-78,51.9-83.8,102c-1,8.4,6,15.3,14.5,15.3h92c8.4-41.6,31.2-77.4,63.3-100.2
			C159.2,341.7,147.3,335.7,134.4,332.3z"/>
		<linearGradient id="SVGID_14_" gradientUnits="userSpaceOnUse" x1="134.3858" y1="449.7092" x2="134.3858" y2="220.5993">
			<stop  offset="0" style="stop-color:#221F1F"/>
			<stop  offset="1" style="stop-color:#808083"/>
		</linearGradient>
		<path class="st17" d="M134.4,332.3c17.1-10,28.8-29.7,28.8-52.4c0-32.8-24.2-59.3-54-59.3c-1.3,0-2.6,0.1-3.8,0.2
			c28,2.2,50.2,27.8,50.2,59.1c0,22.7-11.6,42.5-28.8,52.4c12.9,3.3,24.8,9.3,35.5,17.1c-32.1,22.9-55,58.7-63.3,100.2h7.7
			c8.4-41.6,31.2-77.4,63.3-100.2C159.2,341.7,147.3,335.7,134.4,332.3z"/>
		<linearGradient id="SVGID_15_" gradientUnits="userSpaceOnUse" x1="250.3277" y1="480.8816" x2="250.3277" y2="189.4521">
			<stop  offset="0" style="stop-color:#235FAB"/>
			<stop  offset="0.4623" style="stop-color:#4089C8"/>
			<stop  offset="1" style="stop-color:#5FB7E7"/>
		</linearGradient>
		<path class="st18" d="M389.3,465.5c-7.2-63.1-49.1-115.2-106.8-130.2l-9.5-2.4l8.6-5c22-12.8,35.7-37.7,35.7-65
			c0-40.5-30-73.5-67-73.5c-37,0-67,33-67,73.5c0,27.3,13.7,52.2,35.7,65l8.6,5l-9.5,2.4c-57.7,14.9-99.6,67-106.8,130.1
			c-1,8.5,5.8,15.3,14.3,15.3l249.2,0C383.4,480.9,390.2,474,389.3,465.5z M250,474.4l-24.5-32l21-88.6l-14.5-18.3
			c5.6,1.8,11.7,2.9,18.1,2.9c6.4,0,12.6-1,18.1-2.9l-14.6,18.3l21,88.6L250,474.4z"/>
		<linearGradient id="SVGID_16_" gradientUnits="userSpaceOnUse" x1="317.922" y1="480.8816" x2="317.922" y2="189.4521">
			<stop  offset="0" style="stop-color:#808083"/>
			<stop  offset="1" style="stop-color:#221F1F"/>
		</linearGradient>
		<path class="st19" d="M389.3,465.5c-7.2-63.1-49.1-115.2-106.8-130.2l-9.5-2.4l8.6-5c22-12.8,35.7-37.7,35.7-65
			c0-40.5-30-73.5-67-73.5c-1.3,0-2.6,0.1-3.9,0.2c35.1,2.2,63.1,34.2,63.1,73.3c0,27.3-13.7,52.2-35.7,65l-8.6,5l9.5,2.4
			c57.7,14.9,99.6,67,106.8,130.2c0.9,8.4-5.8,15.3-14.3,15.3h7.7C383.4,480.9,390.2,474,389.3,465.5z"/>
	</g>
	<linearGradient id="SVGID_17_" gradientUnits="userSpaceOnUse" x1="312.149" y1="480.8816" x2="312.149" y2="189.4521">
		<stop  offset="0" style="stop-color:#221F1F"/>
		<stop  offset="1" style="stop-color:#808083"/>
	</linearGradient>
	<path class="st20" d="M389.3,465.5c-7.2-63.1-49.1-115.2-106.8-130.2l-9.5-2.4l8.6-5c22-12.8,35.7-37.7,35.7-65
		c0-40.5-30-73.5-67-73.5c-5.3,0-10.4,0.7-15.4,2c29.5,7.7,51.6,36.8,51.6,71.5c0,27.3-14.2,59.4-36.2,72.2l-4.9,2.8
		c1.5,0.1,3,0.4,4.5,0.4c2.8,0,5.5-0.3,8.1-0.6c0.4-0.1,0.7-0.2,1.1-0.1c0,0,0,0,0,0c3.1-0.5,6.1-1.2,8.9-2.1l-3.3,4.1
		c50.8,18.9,87,67.7,93.6,125.9c1,8.4-5.8,15.3-14.3,15.3h30.8C383.4,480.9,390.2,474,389.3,465.5z"/>
</g>
</svg>
