<svg xmlns="http://www.w3.org/2000/svg" xmlns:xlink="http://www.w3.org/1999/xlink" viewBox="0 0 500 500"><defs><style>.cls-1{isolation:isolate;}.cls-2{mix-blend-mode:multiply;fill:url(#linear-gradient);}.cls-3{fill:#fff;}.cls-4{fill:url(#linear-gradient-2);}.cls-5{fill:url(#linear-gradient-3);}</style><linearGradient id="linear-gradient" x1="206.96" y1="252.02" x2="406.57" y2="252.02" gradientUnits="userSpaceOnUse"><stop offset="0" stop-color="#bf4627"/><stop offset="1" stop-color="#f7941d"/></linearGradient><linearGradient id="linear-gradient-2" x1="153.41" y1="252.02" x2="353.03" y2="252.02" gradientUnits="userSpaceOnUse"><stop offset="0" stop-color="#106b39"/><stop offset="1" stop-color="#25a267"/></linearGradient><linearGradient id="linear-gradient-3" x1="92.86" y1="248.03" x2="292.47" y2="248.03" gradientUnits="userSpaceOnUse"><stop offset="0" stop-color="#2155a5"/><stop offset="1" stop-color="#4ea3da"/></linearGradient></defs><title>Workplace</title><g class="cls-1"><g id="Modules"><polygon class="cls-2" points="406.57 431.66 206.96 493 206.96 84.06 406.57 11.04 406.57 431.66"/><polygon class="cls-3" points="368.11 121.83 239.58 167.48 239.58 174.73 368.11 129.04 368.11 121.83"/><polygon class="cls-3" points="368.11 162.59 239.58 208.24 239.58 215.48 368.11 169.8 368.11 162.59"/><polygon class="cls-3" points="368.11 203.34 239.58 249 239.58 256.24 368.11 210.56 368.11 203.34"/><polygon class="cls-3" points="368.11 244.1 239.58 289.75 239.58 297 368.11 251.32 368.11 244.1"/><polygon class="cls-3" points="368.11 284.86 239.58 330.51 239.58 337.76 368.11 292.08 368.11 284.86"/><polygon class="cls-3" points="368.11 325.62 239.58 371.27 239.58 378.52 368.11 332.84 368.11 325.62"/><polygon class="cls-3" points="368.11 366.38 239.58 412.03 239.58 419.28 368.11 373.6 368.11 366.38"/><polygon class="cls-4" points="353.03 431.66 153.41 493 153.41 84.06 353.03 11.04 353.03 431.66"/><polygon class="cls-3" points="312.27 118.36 183.73 164.01 183.73 171.25 312.27 125.57 312.27 118.36"/><polygon class="cls-3" points="312.27 159.11 183.73 204.76 183.73 212.01 312.27 166.33 312.27 159.11"/><polygon class="cls-3" points="312.27 199.87 183.73 245.52 183.73 252.77 312.27 207.09 312.27 199.87"/><polygon class="cls-3" points="312.27 240.63 183.73 286.28 183.73 293.53 312.27 247.85 312.27 240.63"/><polygon class="cls-3" points="312.27 281.39 183.73 327.04 183.73 334.29 312.27 288.6 312.27 281.39"/><polygon class="cls-3" points="312.27 322.15 183.73 367.8 183.73 375.05 312.27 329.36 312.27 322.15"/><polygon class="cls-3" points="312.27 362.91 183.73 408.56 183.73 415.8 312.27 370.12 312.27 362.91"/><polygon class="cls-5" points="292.47 427.67 92.86 489.01 92.86 80.07 292.47 7.05 292.47 427.67"/><polygon class="cls-3" points="251.99 115.76 123.46 161.41 123.46 168.66 251.99 122.97 251.99 115.76"/><polygon class="cls-3" points="251.99 156.52 123.46 202.17 123.46 209.41 251.99 163.73 251.99 156.52"/><polygon class="cls-3" points="251.99 197.28 123.46 242.93 123.46 250.17 251.99 204.49 251.99 197.28"/><polygon class="cls-3" points="251.99 238.03 123.46 283.69 123.46 290.93 251.99 245.25 251.99 238.03"/><polygon class="cls-3" points="251.99 278.79 123.46 324.44 123.46 331.69 251.99 286.01 251.99 278.79"/><polygon class="cls-3" points="251.99 319.55 123.46 365.2 123.46 372.45 251.99 326.77 251.99 319.55"/><polygon class="cls-3" points="251.99 360.31 123.46 405.96 123.46 413.21 251.99 367.53 251.99 360.31"/></g></g></svg>