<?xml version="1.0" encoding="utf-8"?>
<!-- Generator: Adobe Illustrator 22.1.0, SVG Export Plug-In . SVG Version: 6.00 Build 0)  -->
<svg version="1.1" id="Modules" xmlns="http://www.w3.org/2000/svg" xmlns:xlink="http://www.w3.org/1999/xlink" x="0px" y="0px"
	 viewBox="0 0 500 500" style="enable-background:new 0 0 500 500;" xml:space="preserve">
<style type="text/css">
	.st0{fill:url(#SVGID_1_);}
	.st1{fill:url(#SVGID_2_);}
	.st2{fill:url(#SVGID_3_);}
	.st3{fill:url(#SVGID_4_);}
	.st4{fill:url(#SVGID_5_);}
	.st5{fill:url(#SVGID_6_);}
	.st6{fill:url(#SVGID_7_);}
	.st7{fill:url(#SVGID_8_);}
	.st8{fill:url(#SVGID_9_);}
	.st9{fill:url(#SVGID_10_);}
	.st10{fill:url(#SVGID_11_);}
	.st11{fill:url(#SVGID_12_);}
	.st12{fill:url(#SVGID_13_);}
	.st13{fill:url(#SVGID_14_);}
	.st14{fill:url(#SVGID_15_);}
	.st15{fill:url(#SVGID_16_);}
	.st16{fill:url(#SVGID_17_);}
	.st17{fill:url(#SVGID_18_);}
	.st18{fill:url(#SVGID_19_);}
	.st19{fill:url(#SVGID_20_);}
	.st20{fill:url(#SVGID_21_);}
	.st21{fill:url(#SVGID_22_);}
	.st22{fill:url(#SVGID_23_);}
	.st23{fill:url(#SVGID_24_);}
	.st24{opacity:0.2;fill:#FFFFFF;enable-background:new    ;}
	.st25{fill:none;}
	.st26{opacity:0.2;}
	.st27{opacity:0.1;}
	.st28{fill:#FFFFFF;}
</style>
<g>
	
		<linearGradient id="SVGID_1_" gradientUnits="userSpaceOnUse" x1="35.0122" y1="413.9" x2="296.2471" y2="413.9" gradientTransform="matrix(1 0 0 -1 0 500)">
		<stop  offset="0" style="stop-color:#D28BBC"/>
		<stop  offset="1" style="stop-color:#4B2C82"/>
	</linearGradient>
	<path class="st0" d="M171.4,96.8c-5.9,0-10.7-4.8-10.7-10.7c0-5.9,4.8-10.7,10.7-10.7s10.7,4.8,10.7,10.7
		C182.1,92.1,177.3,96.8,171.4,96.8z"/>
	
		<linearGradient id="SVGID_2_" gradientUnits="userSpaceOnUse" x1="35.2" y1="413.75" x2="296.4352" y2="413.75" gradientTransform="matrix(1 0 0 -1 0 500)">
		<stop  offset="0" style="stop-color:#D28BBC"/>
		<stop  offset="1" style="stop-color:#4B2C82"/>
	</linearGradient>
	<path class="st1" d="M298.5,139.1c-12.9,0.4-25.9,0.6-39.1,0.6c-2.3,0.1-4.6,0.1-6.9,0.1c-15.5,0-30.9-0.2-45.9-0.6
		c-3-0.1-5.9-0.2-8.8-0.3c-5.8-0.2-11.6-0.4-17.4-0.7c0,0,0,0-0.1,0c-5.7-0.3-11.4-0.6-17.1-0.9c-2.5-0.1-4.9-0.3-7.4-0.4
		c-6-0.4-11.8-0.8-17.6-1.2c-23.1-1.7-45-3.9-65.2-6.6c-10.3-1.4-20.1-2.9-29.4-4.5c-2.8-0.5-5.6-1-8.4-1.5L52,106.3l20.6-20.6
		c24.1,4.8,56.8,8.3,79.2,9.7c3.5,7.3,10.9,12.5,19.6,12.5c11.9,0,21.6-9.7,21.6-21.7c0-11.9-9.7-21.6-21.6-21.6
		c-8.1,0-15.2,4.5-18.9,11.1c-18-1.2-42.4-3.8-62.8-7l36-36l0,0c12.2,1.1,24.9,2.1,38,2.8c3.3,0.2,6.7,0.4,10.1,0.6h0.1
		c1.4,0.1,2.9,0.1,4.4,0.2c1.9,0.1,3.8,0.2,5.7,0.3c3.4,0.2,6.9,0.3,10.4,0.4c3.5,0.1,7,0.3,10.6,0.3c0.8,0.1,1.7,0.1,2.5,0.1
		c1.2,0.1,2.5,0.1,3.7,0.1c12.4,16.2,26.3,33.3,41.4,50.8c6.1,7.1,12.5,14.3,18.9,21.5c2.1,2.3,4.2,4.7,6.4,7.1
		c4.7,5.2,9.6,10.5,14.5,15.7C294.4,134.7,296.4,136.8,298.5,139.1C298.5,139,298.5,139,298.5,139.1z"/>
	
		<linearGradient id="SVGID_3_" gradientUnits="userSpaceOnUse" x1="35.0119" y1="448.5" x2="296.2474" y2="448.5" gradientTransform="matrix(1 0 0 -1 0 500)">
		<stop  offset="0" style="stop-color:#D28BBC"/>
		<stop  offset="1" style="stop-color:#4B2C82"/>
	</linearGradient>
	<path class="st2" d="M379.4,32.6c-0.5,2.7-1,5.5-1.5,8.4c-1.6,9.3-3.1,19.2-4.4,29.4c-11.2-11.8-22-23.5-32.1-34.9
		C354.6,34.7,367.3,33.7,379.4,32.6z"/>
	
		<linearGradient id="SVGID_4_" gradientUnits="userSpaceOnUse" x1="456.6277" y1="464.0428" x2="452.2079" y2="203.2664" gradientTransform="matrix(1 0 0 -1 0 500)">
		<stop  offset="0" style="stop-color:#D28BBC"/>
		<stop  offset="1" style="stop-color:#4B2C82"/>
	</linearGradient>
	<path class="st3" d="M467,338.9c0.8,13.2,1.7,25.9,2.8,38c-2.7-0.5-5.5-1-8.4-1.5c-9.3-1.6-19.2-3.1-29.4-4.5
		C443.9,359.7,455.6,349,467,338.9z"/>
	
		<linearGradient id="SVGID_5_" gradientUnits="userSpaceOnUse" x1="419.3981" y1="464.6737" x2="414.9782" y2="203.8974" gradientTransform="matrix(1 0 0 -1 0 500)">
		<stop  offset="0" style="stop-color:#D28BBC"/>
		<stop  offset="1" style="stop-color:#4B2C82"/>
	</linearGradient>
	<path class="st4" d="M417.1,157.4c5.9,0,10.7,4.8,10.7,10.7s-4.8,10.7-10.7,10.7c-5.9,0-10.6-4.8-10.6-10.7
		C406.4,162.2,411.2,157.4,417.1,157.4z"/>
	
		<linearGradient id="SVGID_6_" gradientUnits="userSpaceOnUse" x1="418.8368" y1="464.6835" x2="414.417" y2="203.9067" gradientTransform="matrix(1 0 0 -1 0 500)">
		<stop  offset="0" style="stop-color:#D28BBC"/>
		<stop  offset="1" style="stop-color:#4B2C82"/>
	</linearGradient>
	<path class="st5" d="M469.9,123C469.9,123.1,469.9,123.1,469.9,123c-1.1,12.2-2.1,24.9-2.8,38.1c0,0.5-0.1,1-0.1,1.6
		c-0.4,6-0.7,12.1-0.9,18.4c-0.1,2.7-0.3,5.5-0.4,8.2c-0.1,1.3-0.1,2.5-0.1,3.8c-0.1,2.1-0.2,4.3-0.2,6.5c-0.1,3-0.2,6-0.3,9
		c-16.2,12.4-33.3,26.3-50.8,41.5c-16.6,14.3-33.6,29.7-50.7,45.9c0,0-0.1,0-0.1,0.1c-0.4-15.1-0.6-30.5-0.6-45.9
		c0-15.5,0.2-30.9,0.6-46c0.7-23.5,1.8-46.5,3.4-68.4c1.7-23,4-45,6.6-65.2c1.4-10.3,2.9-20.1,4.4-29.4c0.5-2.9,1-5.6,1.5-8.4
		l14.9,14.9l23,23c-4.7,24-8.1,56-9.5,78c-7.4,3.5-12.5,10.9-12.5,19.6c0,11.9,9.7,21.6,21.7,21.6c11.9,0,21.6-9.7,21.6-21.6
		c0-8.1-4.5-15.2-11.1-18.9c1.2-17.6,3.7-41.4,6.9-61.6L469.9,123z"/>
	
		<linearGradient id="SVGID_7_" gradientUnits="userSpaceOnUse" x1="467.9585" y1="50.5268" x2="215.2851" y2="51.2633" gradientTransform="matrix(1 0 0 -1 0 500)">
		<stop  offset="0" style="stop-color:#D28BBC"/>
		<stop  offset="1" style="stop-color:#4B2C82"/>
	</linearGradient>
	<path class="st6" d="M131.6,429.5c11.2,11.9,22,23.6,32.1,35c-13.2,0.8-25.9,1.7-38,2.9c0.5-2.7,1-5.5,1.5-8.4
		C128.7,449.6,130.2,439.8,131.6,429.5z"/>
	
		<linearGradient id="SVGID_8_" gradientUnits="userSpaceOnUse" x1="468.058" y1="85.6781" x2="215.3853" y2="86.4146" gradientTransform="matrix(1 0 0 -1 0 500)">
		<stop  offset="0" style="stop-color:#D28BBC"/>
		<stop  offset="1" style="stop-color:#4B2C82"/>
	</linearGradient>
	<path class="st7" d="M335.1,403.2c5.9,0,10.7,4.8,10.7,10.7c0,5.9-4.8,10.7-10.7,10.7c-5.9,0-10.7-4.8-10.7-10.7
		C324.4,407.9,329.2,403.2,335.1,403.2z"/>
	
		<linearGradient id="SVGID_9_" gradientUnits="userSpaceOnUse" x1="468.0583" y1="85.826" x2="215.3849" y2="86.5625" gradientTransform="matrix(1 0 0 -1 0 500)">
		<stop  offset="0" style="stop-color:#D28BBC"/>
		<stop  offset="1" style="stop-color:#4B2C82"/>
	</linearGradient>
	<path class="st8" d="M469.9,376.9L469.9,376.9l-37.1,37.2c-24-4.7-56-8.1-78.1-9.5c-3.5-7.3-10.9-12.5-19.6-12.5
		c-11.9,0-21.6,9.7-21.6,21.7s9.7,21.6,21.6,21.6c8.1,0,15.2-4.5,18.9-11.1c17.6,1.1,41.5,3.7,61.6,6.8l-36.2,36.2l0,0
		c-12.2-1.2-24.9-2.1-38.1-2.9c-1.4-0.1-2.9-0.2-4.3-0.3c-13.9-0.8-28.3-1.4-43-1.8c-12.4-16.2-26.3-33.3-41.5-50.8
		c-2.2-2.5-4.4-5.1-6.7-7.7c-4.5-5.1-9-10.3-13.7-15.4c-2.3-2.6-4.7-5.2-7.1-7.8c-5.7-6.2-11.5-12.5-17.5-18.8l0,0
		c-0.3-0.4-0.7-0.7-1-1.1c15.1-0.4,30.4-0.6,45.9-0.6s30.9,0.2,46,0.6c23.6,0.6,46.5,1.8,68.3,3.4c23.1,1.7,45,4,65.3,6.6
		c10.2,1.4,20,2.9,29.4,4.5C464.4,375.9,467.1,376.4,469.9,376.9z"/>
	
		<linearGradient id="SVGID_10_" gradientUnits="userSpaceOnUse" x1="53.0154" y1="33.1892" x2="53.752" y2="288.0732" gradientTransform="matrix(1 0 0 -1 0 500)">
		<stop  offset="0" style="stop-color:#D28BBC"/>
		<stop  offset="1" style="stop-color:#4B2C82"/>
	</linearGradient>
	<path class="st9" d="M38,161.1c-0.8-13.2-1.8-25.9-2.9-38c2.7,0.5,5.5,1,8.4,1.5c9.3,1.6,19.2,3.1,29.4,4.5
		C61.1,140.3,49.4,151,38,161.1z"/>
	
		<linearGradient id="SVGID_11_" gradientUnits="userSpaceOnUse" x1="89.0095" y1="33.0858" x2="89.7462" y2="287.9699" gradientTransform="matrix(1 0 0 -1 0 500)">
		<stop  offset="0" style="stop-color:#D28BBC"/>
		<stop  offset="1" style="stop-color:#4B2C82"/>
	</linearGradient>
	<path class="st10" d="M89.4,342.5c-5.9,0-10.7-4.8-10.7-10.7c0-5.9,4.8-10.7,10.7-10.7c5.9,0,10.7,4.8,10.7,10.7
		C100.1,337.8,95.3,342.5,89.4,342.5z"/>
	
		<linearGradient id="SVGID_12_" gradientUnits="userSpaceOnUse" x1="88.4103" y1="33.0874" x2="89.147" y2="287.9709" gradientTransform="matrix(1 0 0 -1 0 500)">
		<stop  offset="0" style="stop-color:#D28BBC"/>
		<stop  offset="1" style="stop-color:#4B2C82"/>
	</linearGradient>
	<path class="st11" d="M142.3,250c0,15.5-0.2,30.8-0.6,45.9c-0.6,23.6-1.8,46.5-3.4,68.4c-1.7,23.1-3.9,45-6.6,65.2
		c-1.4,10.3-2.8,20.1-4.4,29.5c-0.5,2.8-1,5.6-1.5,8.4l0,0l-36.7-36.7c4.8-24.2,8.3-56.8,9.7-79.2c7.3-3.5,12.5-11,12.5-19.6
		c0-11.9-9.7-21.6-21.7-21.6c-11.9,0-21.6,9.7-21.6,21.6c0,8.2,4.5,15.2,11.1,18.9c-1.2,18-3.8,42.4-7,62.9L35.4,377l0,0
		c0.3-2.8,0.5-5.6,0.7-8.5c0-0.5,0.1-1,0.1-1.4c0.8-9.1,1.4-18.5,2-28.2c0.1-2.3,0.3-4.7,0.4-7.1c0.1-0.9,0.1-1.8,0.1-2.8
		c0.4-7.6,0.8-15.4,1-23.3c0.1-2.4,0.2-4.9,0.3-7.3c0.1-2.3,0.1-4.6,0.2-6.9C56.3,279,73.3,265.1,90.9,250
		c16.6-14.3,33.6-29.7,50.7-45.9c0,0,0.1,0,0.1-0.1C142.1,219.1,142.3,234.5,142.3,250z"/>
	
		<linearGradient id="SVGID_13_" gradientUnits="userSpaceOnUse" x1="219.9306" y1="524.5164" x2="396.1761" y2="330.0383" gradientTransform="matrix(1 0 0 -1 0 500)">
		<stop  offset="0" style="stop-color:#8CD3D8"/>
		<stop  offset="0.4648" style="stop-color:#21BCC2"/>
		<stop  offset="1" style="stop-color:#335FAB"/>
	</linearGradient>
	<path class="st12" d="M303.7,83.8c-4.2-4.2-4.2-10.9,0-15.1s10.9-4.2,15.1,0s4.2,10.9,0,15.1S307.8,88,303.7,83.8z"/>
	
		<linearGradient id="SVGID_14_" gradientUnits="userSpaceOnUse" x1="219.5229" y1="524.1469" x2="395.7681" y2="329.6692" gradientTransform="matrix(1 0 0 -1 0 500)">
		<stop  offset="0" style="stop-color:#8CD3D8"/>
		<stop  offset="0.4648" style="stop-color:#21BCC2"/>
		<stop  offset="1" style="stop-color:#335FAB"/>
	</linearGradient>
	<path class="st13" d="M373.5,70.4c-2.7,20.2-4.9,42.2-6.6,65.2c-1.6,21.9-2.7,44.8-3.4,68.4c-11-10.4-22-21.1-32.9-32
		c-11-11-21.7-22-32-33c0,0,0,0-0.1-0.1c-16.2-17.1-31.6-34.1-45.9-50.7c-15.1-17.5-29-34.5-41.4-50.8c-6.3-8.2-12.2-16.2-17.7-24
		c-1.6-2.3-3.3-4.7-4.8-7H242c13.7,20.4,34.1,45.7,48.8,62.4c-2.7,7.6-1.1,16.5,5.1,22.6c8.4,8.4,22.2,8.4,30.6,0s8.4-22.1,0-30.6
		c-5.7-5.8-13.9-7.6-21.2-5.5C293.5,42,278.2,23.1,266.2,6.5h50.4c7.8,9.4,16.1,19,24.9,28.9c1.3,1.5,2.7,3,4,4.5
		c1.2,1.4,2.4,2.7,3.7,4.1c1.4,1.6,2.8,3.1,4.2,4.7c0.5,0.5,0.9,1,1.4,1.5c0.1,0.1,0.2,0.2,0.3,0.3c0.6,0.8,1.3,1.5,2,2.2
		c1.6,1.7,3.1,3.3,4.6,5c0.1,0.1,0.2,0.3,0.4,0.4c0.3,0.3,0.5,0.6,0.8,0.8c1.9,2.1,3.9,4.2,5.9,6.3c0.1,0.1,0.1,0.1,0.2,0.2l0,0
		c1.4,1.5,2.8,3,4.2,4.5C373.2,70.1,373.4,70.3,373.5,70.4z"/>
	
		<linearGradient id="SVGID_15_" gradientUnits="userSpaceOnUse" x1="252.6263" y1="554.1472" x2="428.8715" y2="359.6695" gradientTransform="matrix(1 0 0 -1 0 500)">
		<stop  offset="0" style="stop-color:#8CD3D8"/>
		<stop  offset="0.4648" style="stop-color:#21BCC2"/>
		<stop  offset="1" style="stop-color:#335FAB"/>
	</linearGradient>
	<path class="st14" d="M496,186c-2.3,1.6-4.6,3.2-7,4.9c-7.8,5.5-15.8,11.4-24,17.7c0.5-16.4,1.1-32.2,2-47.4
		C476.9,169.9,486.6,178.2,496,186z"/>
	
		<linearGradient id="SVGID_16_" gradientUnits="userSpaceOnUse" x1="554.6215" y1="250.4016" x2="362.3542" y2="74.3408" gradientTransform="matrix(1 0 0 -1 0 500)">
		<stop  offset="0" style="stop-color:#8CD3D8"/>
		<stop  offset="0.4648" style="stop-color:#21BCC2"/>
		<stop  offset="1" style="stop-color:#335FAB"/>
	</linearGradient>
	<path class="st15" d="M294,462.5c16.3,0.4,32.2,1.1,47.4,2c-8.8,9.9-17.1,19.5-24.9,28.9c-1.6-2.3-3.2-4.6-4.9-7
		C306.2,478.7,300.3,470.7,294,462.5z"/>
	
		<linearGradient id="SVGID_17_" gradientUnits="userSpaceOnUse" x1="525.5016" y1="282.2027" x2="333.2339" y2="106.1415" gradientTransform="matrix(1 0 0 -1 0 500)">
		<stop  offset="0" style="stop-color:#8CD3D8"/>
		<stop  offset="0.4648" style="stop-color:#21BCC2"/>
		<stop  offset="1" style="stop-color:#335FAB"/>
	</linearGradient>
	<path class="st16" d="M434.6,300.4c4.2,4.2,4.2,11,0,15.1c-4.2,4.2-10.9,4.2-15.1,0s-4.2-10.9,0-15.1
		C423.6,296.3,430.4,296.2,434.6,300.4z"/>
	
		<linearGradient id="SVGID_18_" gradientUnits="userSpaceOnUse" x1="525.1638" y1="282.5714" x2="332.8962" y2="106.5104" gradientTransform="matrix(1 0 0 -1 0 500)">
		<stop  offset="0" style="stop-color:#8CD3D8"/>
		<stop  offset="0.4648" style="stop-color:#21BCC2"/>
		<stop  offset="1" style="stop-color:#335FAB"/>
	</linearGradient>
	<path class="st17" d="M496,186v53.3c-20.2,13.7-45.2,33.8-61.7,48.3c-7.7-2.7-16.5-1.1-22.7,5.1c-8.4,8.4-8.4,22.2,0,30.6
		s22.1,8.4,30.6,0c5.8-5.8,7.6-13.9,5.5-21.2c13.2-11.6,31.8-26.6,48.2-38.6V314l0,0c-2.3,1.9-4.7,3.9-7.1,6
		c-4.8,4-9.6,8.2-14.5,12.5c-2.4,2.1-4.9,4.3-7.4,6.5c-0.7,0.6-1.4,1.3-2.2,1.9c-1.7,1.5-3.4,3.1-5.2,4.7c-2.5,2.2-4.9,4.5-7.4,6.7
		c-2.3,2.1-4.6,4.2-6.9,6.3c-0.2,0.2-0.4,0.4-0.6,0.6c-2.3,2.1-4.6,4.3-6.9,6.5c-0.2,0.2-0.4,0.4-0.6,0.6c-0.1,0.1-0.2,0.2-0.3,0.3
		c-1.5,1.4-3,2.8-4.5,4.2c-0.1,0.1-0.1,0.1-0.2,0.2c-20.3-2.7-42.2-4.9-65.3-6.6c-21.9-1.6-44.8-2.8-68.3-3.4
		c10.4-11,21.1-21.9,32-32.9c11-11,21.9-21.7,32.9-32c0,0,0,0,0.1-0.1c17.1-16.2,34.1-31.6,50.7-45.9c17.5-15.1,34.5-29.1,50.8-41.5
		c8.2-6.3,16.2-12.2,24-17.7C491.4,189.2,493.7,187.6,496,186z"/>
	
		<linearGradient id="SVGID_19_" gradientUnits="userSpaceOnUse" x1="249.2348" y1="-53.1382" x2="76.1205" y2="139.8659" gradientTransform="matrix(1 0 0 -1 0 500)">
		<stop  offset="0" style="stop-color:#8CD3D8"/>
		<stop  offset="0.4648" style="stop-color:#21BCC2"/>
		<stop  offset="1" style="stop-color:#335FAB"/>
	</linearGradient>
	<path class="st18" d="M16.1,309.1c7.8-5.5,15.8-11.4,24-17.6c-0.5,16.3-1.1,32.2-2,47.4c-9.9-8.8-19.5-17.1-28.9-24.9
		C11.4,312.4,13.7,310.8,16.1,309.1z"/>
	
		<linearGradient id="SVGID_20_" gradientUnits="userSpaceOnUse" x1="283.6318" y1="-22.2864" x2="110.5171" y2="170.7182" gradientTransform="matrix(1 0 0 -1 0 500)">
		<stop  offset="0" style="stop-color:#8CD3D8"/>
		<stop  offset="0.4648" style="stop-color:#21BCC2"/>
		<stop  offset="1" style="stop-color:#335FAB"/>
	</linearGradient>
	<path class="st19" d="M202.8,416.2c4.2,4.2,4.2,10.9,0,15.1s-10.9,4.2-15.1,0c-4.2-4.2-4.2-10.9,0-15.1S198.7,412,202.8,416.2z"/>
	
		<linearGradient id="SVGID_21_" gradientUnits="userSpaceOnUse" x1="283.3857" y1="-22.5072" x2="110.2713" y2="170.4971" gradientTransform="matrix(1 0 0 -1 0 500)">
		<stop  offset="0" style="stop-color:#8CD3D8"/>
		<stop  offset="0.4648" style="stop-color:#21BCC2"/>
		<stop  offset="1" style="stop-color:#335FAB"/>
	</linearGradient>
	<path class="st20" d="M316.5,493.4L316.5,493.4l-52,0.1c-13.7-20.4-34.1-45.7-48.8-62.4c2.7-7.6,1.1-16.5-5.1-22.6
		c-8.4-8.4-22.2-8.4-30.6,0c-8.4,8.4-8.4,22.1,0,30.6c5.7,5.7,13.9,7.6,21.2,5.5c11.8,13.4,27.1,32.3,39.1,48.9h-51.8
		c-1.9-2.3-4-4.7-5.9-7.1c-6-7.2-12.4-14.5-18.9-21.9c-1.2-1.4-2.5-2.8-3.8-4.3c-7.5-8.4-15.3-16.9-23.5-25.6l0,0
		c-0.1-0.1-0.3-0.3-0.4-0.4c-1.4-1.5-2.8-3-4.2-4.5c-0.1-0.1-0.1-0.1-0.2-0.2c2.7-20.2,4.9-42.1,6.6-65.2
		c1.6-21.9,2.8-44.8,3.4-68.4c11,10.4,22,21.1,33,32.1s21.7,21.9,32,32.9c0.3,0.4,0.7,0.7,1,1.1c15.8,16.8,30.9,33.4,44.9,49.7
		c15.1,17.5,29,34.6,41.5,50.8c6.3,8.2,12.2,16.2,17.6,23.9C313.3,488.8,314.9,491.1,316.5,493.4z"/>
	
		<linearGradient id="SVGID_22_" gradientUnits="userSpaceOnUse" x1="-21.4476" y1="221.5216" x2="173.7664" y2="388.7428" gradientTransform="matrix(1 0 0 -1 0 500)">
		<stop  offset="0" style="stop-color:#8CD3D8"/>
		<stop  offset="0.4648" style="stop-color:#21BCC2"/>
		<stop  offset="1" style="stop-color:#335FAB"/>
	</linearGradient>
	<path class="st21" d="M71.9,199.6c-4.2-4.2-4.2-11,0-15.1c4.2-4.2,10.9-4.2,15.1,0s4.2,10.9,0,15.1
		C82.9,203.7,76.1,203.8,71.9,199.6z"/>
	
		<linearGradient id="SVGID_23_" gradientUnits="userSpaceOnUse" x1="-21.5539" y1="221.6686" x2="173.6472" y2="388.8786" gradientTransform="matrix(1 0 0 -1 0 500)">
		<stop  offset="0" style="stop-color:#8CD3D8"/>
		<stop  offset="0.4648" style="stop-color:#21BCC2"/>
		<stop  offset="1" style="stop-color:#335FAB"/>
	</linearGradient>
	<path class="st22" d="M206.6,139.1c-6.7,7.1-13.5,14.2-20.5,21.3c-2.2,2.3-4.5,4.5-6.7,6.8c-1.6,1.6-3.2,3.2-4.8,4.8
		c-11,10.9-22,21.7-33,32.1c0,0,0,0-0.1,0.1c-17.1,16.2-34.1,31.6-50.7,45.9c-17.5,15.1-34.6,29-50.8,41.4
		c-8.2,6.3-16.2,12.2-24,17.6c-2.4,1.7-4.7,3.3-7,4.9l0,0v-52.2c20.5-13.7,46.2-34.4,63.1-49.3c7.7,2.7,16.5,1.1,22.7-5.1
		c8.4-8.4,8.4-22.2,0-30.6c-8.4-8.4-22.1-8.4-30.6,0c-5.8,5.8-7.6,13.9-5.5,21.2c-13.6,11.9-32.8,27.5-49.6,39.6v-51.5
		c0,0,0,0,0.1-0.1c2.3-1.9,4.7-3.9,7-5.9c7.1-6,14.4-12.4,21.8-18.9l0,0c1.8-1.6,3.7-3.3,5.5-4.9c0.3-0.2,0.5-0.5,0.8-0.7
		c1.6-1.4,3.2-2.9,4.8-4.3c3.8-3.4,7.5-6.8,11.3-10.3c0.5-0.4,0.9-0.9,1.4-1.3c2-1.9,4-3.7,6-5.6l0,0c0.2-0.1,0.4-0.3,0.6-0.5
		c1.5-1.4,3-2.8,4.5-4.2l0,0c20.2,2.7,42.2,4.9,65.2,6.6c5.8,0.4,11.7,0.8,17.6,1.2c2.5,0.1,4.9,0.3,7.4,0.4
		c5.6,0.3,11.4,0.6,17.1,0.9h0.1c5.8,0.3,11.5,0.5,17.4,0.7C200.7,138.9,203.6,139,206.6,139.1z"/>
	
		<linearGradient id="SVGID_24_" gradientUnits="userSpaceOnUse" x1="-54.4833" y1="260.0871" x2="140.7311" y2="427.3086" gradientTransform="matrix(1 0 0 -1 0 500)">
		<stop  offset="0" style="stop-color:#8CD3D8"/>
		<stop  offset="0.4648" style="stop-color:#21BCC2"/>
		<stop  offset="1" style="stop-color:#335FAB"/>
	</linearGradient>
	<path class="st23" d="M211.1,37.5c-16.4-0.4-32.2-1.1-47.4-2c8.8-9.9,17.1-19.5,24.9-28.9c1.6,2.3,3.2,4.6,4.8,6.9
		C198.9,21.3,204.8,29.3,211.1,37.5z"/>
	<path class="st24" d="M9.1,313.9L9.1,313.9c-1.7-1.4-3.4-2.8-5.1-4.2C5.7,311.1,7.4,312.5,9.1,313.9z"/>
	<line class="st25" x1="35.2" y1="376.9" x2="35.1" y2="376.9"/>
	<polygon points="35.1,123.2 35.2,123.1 35.2,123.1 	"/>
	<g class="st26">
		<path d="M373.5,70.4c-2.7,20.2-4.9,42.2-6.6,65.2c-1.6,21.9-2.7,44.8-3.4,68.4L341.4,35.4c1.3,1.5,2.7,3,4,4.5
			c1.2,1.4,2.4,2.7,3.7,4.1c1.4,1.6,2.8,3.1,4.2,4.7c0.5,0.5,0.9,1,1.4,1.5c0.1,0.1,0.2,0.2,0.3,0.3c0.6,0.8,1.3,1.5,2,2.2
			c1.6,1.7,3.1,3.3,4.6,5c0.4,0.4,0.8,0.8,1.2,1.2c1.9,2.1,3.9,4.2,5.9,6.3c0.1,0.1,0.1,0.1,0.2,0.2l0,0c1.4,1.5,2.8,3,4.2,4.5
			C373.2,70.1,373.4,70.3,373.5,70.4z"/>
		<path d="M467.1,161.1c0,0.5-0.1,1-0.1,1.6c-0.4,6-0.7,12.1-0.9,18.4c-0.1,2.7-0.3,5.5-0.4,8.2c-0.1,1.3-0.1,2.5-0.1,3.8
			c-0.1,2.1-0.2,4.3-0.2,6.5c-0.1,3-0.2,6-0.3,9c-16.2,12.4-33.3,26.3-50.8,41.5c-16.6,14.3-33.7,29.7-50.8,45.9L467.1,161.1z"/>
		<path d="M467.1,338.8c-0.7,0.6-1.4,1.3-2.2,1.9c-1.7,1.5-3.4,3.1-5.2,4.7c-2.5,2.2-4.9,4.5-7.4,6.7c-2.3,2.1-4.6,4.2-6.9,6.3
			c-0.2,0.2-0.4,0.4-0.6,0.6c-2.3,2.1-4.6,4.3-6.9,6.5c-0.2,0.2-0.4,0.4-0.6,0.6c-0.1,0.1-0.2,0.2-0.3,0.3c-1.5,1.4-3,2.8-4.5,4.2
			c-0.1,0.1-0.1,0.1-0.2,0.2c-20.3-2.7-42.2-4.9-65.3-6.6c-21.9-1.6-44.8-2.8-68.3-3.4L467.1,338.8z"/>
		<path d="M341.4,464.5c-1.4-0.1-2.9-0.2-4.3-0.3c-13.9-0.8-28.3-1.4-43-1.8c-12.4-16.2-26.3-33.3-41.5-50.8
			c-14.3-16.6-29.7-33.6-46-50.8L341.4,464.5z"/>
		<path d="M163.7,464.5c-1.2-1.4-2.5-2.8-3.8-4.3c-7.5-8.4-15.3-16.9-23.5-25.6l0,0c-0.1-0.1-0.3-0.3-0.4-0.4
			c-1.4-1.5-2.8-3-4.2-4.5c-0.1-0.1-0.1-0.1-0.2-0.2c2.7-20.2,4.9-42.1,6.6-65.2c1.6-21.9,2.8-44.8,3.4-68.4L163.7,464.5z"/>
		<path d="M141.6,204.1L38,338.8c0.1-2.3,0.3-4.7,0.4-7.1c0.1-0.9,0.1-1.8,0.1-2.8c0.4-7.6,0.8-15.4,1-23.3c0.1-2.4,0.2-4.9,0.3-7.3
			c0.1-2.3,0.1-4.6,0.2-6.9C56.3,279,73.3,265.1,90.9,250C107.5,235.7,124.5,220.2,141.6,204.1z"/>
		<path d="M206.6,139.1L38,161.1c1.8-1.6,3.7-3.3,5.5-4.9c0.3-0.2,0.5-0.5,0.8-0.7c1.6-1.4,3.2-2.9,4.8-4.3
			c3.8-3.4,7.5-6.8,11.3-10.3c0.5-0.4,0.9-0.9,1.4-1.3c2-1.9,4-3.7,6-5.6l0,0c0.2-0.1,0.4-0.3,0.6-0.5c1.5-1.4,3-2.8,4.5-4.2l0,0
			c20.2,2.7,42.2,4.9,65.2,6.6c5.8,0.4,11.7,0.8,17.6,1.2c2.5,0.1,4.9,0.3,7.4,0.4c5.6,0.3,11.4,0.6,17.1,0.9h0.1
			c5.8,0.3,11.5,0.5,17.4,0.7C200.7,138.9,203.6,139,206.6,139.1z"/>
		<path d="M298.5,139.1L163.7,35.4c3.3,0.2,6.7,0.4,10.1,0.6h0.1c1.4,0.1,2.9,0.1,4.4,0.2c1.9,0.1,3.8,0.2,5.7,0.3
			c3.4,0.2,6.9,0.3,10.4,0.4c3.5,0.1,7,0.3,10.6,0.3c0.8,0.1,1.7,0.1,2.5,0.1c1.2,0.1,2.5,0.1,3.7,0.1
			c12.4,16.2,26.3,33.3,41.4,50.8C266.9,104.9,282.3,121.9,298.5,139.1z"/>
	</g>
	<g class="st27">
		<path class="st28" d="M298.5,139c-16.2-17.1-31.6-34.1-45.9-50.7c-15.1-17.5-29-34.5-41.4-50.8c-6.3-8.2-12.2-16.2-17.7-24
			c-1.6-2.3-3.3-4.7-4.8-7h20.6C224,35.8,296,135.5,298.5,139z"/>
		<path class="st28" d="M394.3,47.5C383.8,79.7,363.5,204,363.5,204c0.7-23.5,1.8-46.5,3.4-68.4c1.7-23,4-45,6.6-65.2
			c1.4-10.3,2.9-20.1,4.4-29.4c0.5-2.9,1-5.6,1.5-8.4L394.3,47.5z"/>
		<path class="st28" d="M496,186v21.5c-30,15.2-129,85.9-132.4,88.4c17.1-16.2,34.1-31.6,50.7-45.9c17.5-15.1,34.5-29.1,50.8-41.5
			c8.2-6.3,16.2-12.2,24-17.7C491.4,189.2,493.7,187.6,496,186z"/>
		<path class="st28" d="M469.9,376.9L469.9,376.9l-15.4,15.5c-32.8-10.7-155.9-31.5-155.9-31.5c23.6,0.6,46.5,1.8,68.3,3.4
			c23.1,1.7,45,4,65.3,6.6c10.2,1.4,20,2.9,29.4,4.5C464.4,375.9,467.1,376.4,469.9,376.9z"/>
		<path class="st28" d="M316.5,493.4L316.5,493.4l-22.2,0.1c-14.8-29.2-79-120.5-86.7-131.5c15.8,16.8,30.9,33.4,44.9,49.7
			c15.1,17.5,29,34.6,41.5,50.8c6.3,8.2,12.2,16.2,17.6,23.9C313.3,488.8,314.9,491.1,316.5,493.4z"/>
		<path class="st28" d="M141.6,295.9c-0.6,23.6-1.8,46.5-3.4,68.4c-1.7,23.1-3.9,45-6.6,65.2c-1.4,10.3-2.8,20.1-4.4,29.5
			c-0.5,2.8-1,5.6-1.5,8.4l0,0l-16.2-16.2C120.3,417.7,141.6,295.9,141.6,295.9z"/>
		<path class="st28" d="M141.5,204.1c-17.1,16.2-34.1,31.6-50.7,45.9c-17.5,15.1-34.6,29-50.8,41.4c-8.2,6.3-16.2,12.2-24,17.6
			c-2.4,1.7-4.7,3.3-7,4.9l0,0v-23.3C40.2,274.8,138.1,206.5,141.5,204.1z"/>
		<path class="st28" d="M206.6,139.1c-3-0.1-5.9-0.2-8.8-0.3c-5.8-0.2-11.6-0.4-17.4-0.7c0,0,0,0-0.1,0c-5.7-0.3-11.4-0.6-17.1-0.9
			c-2.5-0.1-4.9-0.3-7.4-0.4c-6-0.4-11.8-0.8-17.6-1.2c-23.1-1.7-45-3.9-65.2-6.6c-10.3-1.4-20.1-2.9-29.4-4.5
			c-2.8-0.5-5.6-1-8.4-1.5L52,106.3C86.2,117.4,206.6,139.1,206.6,139.1z"/>
	</g>
</g>
</svg>
